<?xml version="1.0" encoding="UTF-8"?>
<svg width="25px" height="25px" viewBox="0 0 25 25" version="1.1" xmlns="http://www.w3.org/2000/svg" xmlns:xlink="http://www.w3.org/1999/xlink">
    <!-- Generator: Sketch 64 (93537) - https://sketch.com -->
    <title>Untitled 2</title>
    <desc>Created with Sketch.</desc>
    <g id="Page-1" stroke="none" stroke-width="1" fill="none" fill-rule="evenodd">
        <g id="next-skip-svgrepo-com-2" fill-rule="nonzero">
            <g id="next-skip-svgrepo-com">
                <circle id="Oval" fill="#FFC52F" cx="12.4852071" cy="12.4852071" r="12.2879684"></circle>
                <path d="M12.7218935,16.5369116 C12.0907298,16.9708367 11.6370809,16.6947026 11.6370809,15.9254718 L11.6370809,8.60791756 C11.6370809,7.83868679 12.0907298,7.56255267 12.7218935,7.99647772 L17.7120316,11.487602 C18.3431953,11.921527 18.3431953,12.6315862 17.7317554,13.0655113 L12.7218935,16.5369116 Z" id="Path" fill="#F4EFEF"></path>
                <path d="M8.43195266,8.48126233 L8.43195266,16.1341223 C8.43195266,16.4497041 8.86587771,16.765286 9.18145957,16.765286 L9.59566075,16.765286 C9.9112426,16.765286 10.0295858,16.4497041 10.0295858,16.1341223 L10.0295858,8.3234714 C10.0295858,8.00788955 9.9112426,7.69230769 9.59566075,7.69230769 L9.18145957,7.69230769 C8.86587771,7.69230769 8.47140039,8.16568047 8.47140039,8.48126233" id="Path" fill="#F4EFEF"></path>
                <path d="M12.4852071,24.9704142 C5.60157791,24.9704142 0,19.3688363 0,12.4852071 C0,5.60157791 5.60157791,0 12.4852071,0 C19.3688363,0 24.9704142,5.60157791 24.9704142,12.4852071 C24.9704142,19.3688363 19.3688363,24.9704142 12.4852071,24.9704142 Z M12.4852071,0.394477318 C5.81854043,0.394477318 0.394477318,5.81854043 0.394477318,12.4852071 C0.394477318,19.1518738 5.81854043,24.5759369 12.4852071,24.5759369 C19.1518738,24.5759369 24.5759369,19.1518738 24.5759369,12.4852071 C24.5759369,5.81854043 19.1518738,0.394477318 12.4852071,0.394477318 Z" id="Shape" fill="#000000"></path>
                <path d="M12.1499014,16.9805316 C12.0315582,16.9805316 11.8934911,16.9608078 11.7948718,16.9016362 C11.4990138,16.7438452 11.3412229,16.4085395 11.3412229,15.9746145 L11.3412229,8.65706023 C11.3412229,8.22313518 11.4990138,7.88782946 11.7948718,7.73003853 C12.0907298,7.57224761 12.4654832,7.6314192 12.8402367,7.88782946 L17.8895464,11.3789537 C18.2445759,11.6156401 18.4418146,11.9706697 18.4418146,12.3256993 C18.4418146,12.6807289 18.2445759,13.0357585 17.8895464,13.2921687 L12.8599606,16.783293 C12.6035503,16.9016362 12.3668639,16.9805316 12.1499014,16.9805316 Z M12.1499014,8.02589652 C12.0907298,8.02589652 12.0315582,8.04562039 11.9723866,8.06534425 C11.8145957,8.14423972 11.7159763,8.36120224 11.7159763,8.63733636 L11.7159763,15.9548906 C11.7159763,16.2507486 11.8145957,16.4479873 11.9723866,16.5268827 C12.1301775,16.6057782 12.3668639,16.5663304 12.6035503,16.3888157 L12.6035503,16.3888157 L17.6331361,12.8976914 C17.8895464,12.7201766 18.0276134,12.5032141 18.0276134,12.2665277 C18.0276134,12.0298413 17.8895464,11.8128788 17.65286,11.6550878 L12.6035503,8.16396358 C12.4457594,8.08506812 12.2879684,8.02589652 12.1499014,8.02589652 Z" id="Shape" fill="#000000"></path>
                <path d="M9.41814596,17.061144 L9.08284024,17.061144 C8.72781065,17.061144 8.43195266,16.7850099 8.43195266,16.4299803 L8.43195266,8.12623274 C8.43195266,7.79092702 8.74753452,7.49506903 9.1025641,7.49506903 L9.37869822,7.49506903 C9.71400394,7.49506903 10.0098619,7.79092702 10.0098619,8.14595661 L10.0098619,16.4497041 C10.0098619,16.7850099 9.75345168,17.061144 9.41814596,17.061144 Z M9.1025641,7.86982249 C8.96449704,7.86982249 8.82642998,7.98816568 8.82642998,8.10650888 L8.82642998,16.4102564 C8.82642998,16.5285996 8.94477318,16.6469428 9.08284024,16.6469428 L9.41814596,16.6469428 C9.55621302,16.6469428 9.61538462,16.5285996 9.61538462,16.4102564 L9.61538462,8.12623274 C9.61538462,7.98816568 9.51676529,7.86982249 9.37869822,7.86982249 L9.1025641,7.86982249 L9.1025641,7.86982249 Z" id="Shape" fill="#000000"></path>
            </g>
        </g>
    </g>
</svg>