<?xml version="1.0" encoding="UTF-8"?>
<svg width="25px" height="25px" viewBox="0 0 25 25" version="1.1" xmlns="http://www.w3.org/2000/svg" xmlns:xlink="http://www.w3.org/1999/xlink">
    <!-- Generator: Sketch 64 (93537) - https://sketch.com -->
    <title>debugBtns</title>
    <desc>Created with Sketch.</desc>
    <g id="Page-1" stroke="none" stroke-width="1" fill="none" fill-rule="evenodd">
        <g id="down-arrow-svgrepo-com-3" fill-rule="nonzero">
            <g id="down-arrow-svgrepo-com-2">
                <g id="down-arrow-svgrepo-com">
                    <circle id="Oval" fill="#A9E046" cx="12.4852071" cy="12.4852071" r="12.2879684"></circle>
                    <path d="M12.4852071,24.9704142 C5.60157791,24.9704142 0,19.3688363 0,12.4852071 C0,5.60157791 5.60157791,0 12.4852071,0 C19.3688363,0 24.9704142,5.60157791 24.9704142,12.4852071 C24.9704142,19.3688363 19.3688363,24.9704142 12.4852071,24.9704142 Z M12.4852071,0.394477318 C5.81854043,0.394477318 0.394477318,5.81854043 0.394477318,12.4852071 C0.394477318,19.1518738 5.81854043,24.5759369 12.4852071,24.5759369 C19.1518738,24.5759369 24.5759369,19.1518738 24.5759369,12.4852071 C24.5759369,5.81854043 19.1518738,0.394477318 12.4852071,0.394477318 Z" id="Shape" fill="#000000"></path>
                    <g id="sync" transform="translate(3.400000, 2.100000)" fill="#000000">
                        <polygon id="Path" points="8.56331361 14.2011834 9.76331361 14.2011834 9.76331361 15.5325444 8.56331361 15.5325444"></polygon>
                        <polygon id="Path" points="8.54225339 5.6386259 9.74225339 5.6386259 9.74225339 11.9386259 8.54225339 11.9386259"></polygon>
                        <path d="M1.29435991,10.3608092 C1.29435991,6.52073195 4.10283344,3.35314008 7.76627219,2.73058541 L7.76627219,3.88530815 L10.3550296,1.94267287 L7.76630977,0 L7.76630977,1.39997725 C3.38273419,2.03181873 0,5.80346685 0,10.3608092 C0,13.6363461 1.75141607,16.5034514 4.36080356,18.0966469 L5.4861395,17.2521864 C2.99902947,15.9554168 1.29439749,13.3558243 1.29435991,10.3608092 Z" id="Path"></path>
                        <path d="M13.7851689,2.61341223 L12.659837,3.45787279 C15.146938,4.75464237 16.8515638,7.35423487 16.8515638,10.34925 C16.8515638,14.19038 14.0445284,17.3671835 10.379675,17.9883094 L10.379675,16.8246758 L7.79092702,18.7673111 L10.379675,20.7100592 L10.379675,19.309142 C14.7628965,18.6772253 18.1459566,14.9065547 18.1459566,10.3492876 C18.1459566,7.07371304 16.3945093,4.20660777 13.7851689,2.61341223 L13.7851689,2.61341223 Z" id="Path"></path>
                    </g>
                </g>
            </g>
        </g>
    </g>
</svg>