<?xml version="1.0" encoding="UTF-8"?>
<svg width="25px" height="25px" viewBox="0 0 25 25" version="1.1" xmlns="http://www.w3.org/2000/svg" xmlns:xlink="http://www.w3.org/1999/xlink">
    <!-- Generator: Sketch 64 (93537) - https://sketch.com -->
    <title>Untitled 2</title>
    <desc>Created with Sketch.</desc>
    <g id="Page-1" stroke="none" stroke-width="1" fill="none" fill-rule="evenodd">
        <g id="down-arrow-svgrepo-com" fill-rule="nonzero">
            <circle id="Oval" fill="#E07D46" cx="12.4852071" cy="12.4852071" r="12.2879684"></circle>
            <path d="M12.504931,14.9704142 L12.504931,14.9704142 L17.2978304,10.1775148 C17.4753452,10 17.7712032,10 17.9487179,10.1775148 L18.4023669,10.6311637 C18.5798817,10.8086785 18.5798817,11.1045365 18.4023669,11.2820513 L12.8205128,16.8639053 C12.7218935,16.9625247 12.6035503,17.0019724 12.4852071,17.0019724 C12.3668639,17.0019724 12.2485207,16.9625247 12.1499014,16.8639053 L6.56804734,11.2820513 C6.39053254,11.1045365 6.39053254,10.8086785 6.56804734,10.6311637 L7.02169625,10.1775148 C7.19921105,10 7.49506903,10 7.67258383,10.1775148 L12.504931,14.9704142 Z" id="Path" fill="#F4EFEF"></path>
            <path d="M12.4852071,17.199211 C12.3076923,17.199211 12.1499014,17.1400394 12.0118343,17.0019724 L6.42998028,11.4201183 C6.17357002,11.1637081 6.17357002,10.7495069 6.42998028,10.4733728 L6.88362919,10.0197239 C7.00197239,9.90138067 7.17948718,9.82248521 7.35700197,9.82248521 L7.35700197,9.82248521 C7.53451677,9.82248521 7.69230769,9.8816568 7.83037475,10.0197239 L12.4852071,14.6745562 L17.1400394,10.0197239 C17.2583826,9.90138067 17.4358974,9.82248521 17.6134122,9.82248521 L17.6134122,9.82248521 C17.790927,9.82248521 17.9487179,9.8816568 18.086785,10.0197239 L18.5404339,10.4733728 C18.6587771,10.591716 18.7376726,10.7692308 18.7376726,10.9467456 C18.7376726,11.1242604 18.678501,11.2820513 18.5404339,11.4201183 L12.9585799,17.0019724 C12.8402367,17.1203156 12.6824458,17.199211 12.4852071,17.199211 C12.504931,17.199211 12.504931,17.199211 12.4852071,17.199211 Z M7.37672584,10.2366864 C7.29783037,10.2366864 7.23865878,10.2564103 7.17948718,10.3155819 L6.72583826,10.7692308 C6.62721893,10.8678501 6.62721893,11.0453649 6.72583826,11.1439842 L12.3076923,16.7258383 C12.3668639,16.7850099 12.4260355,16.8047337 12.504931,16.8047337 C12.5838264,16.8047337 12.642998,16.7850099 12.7021696,16.7258383 L18.2840237,11.1439842 C18.3431953,11.0848126 18.3629191,11.025641 18.3629191,10.9467456 C18.3629191,10.8678501 18.3431953,10.8086785 18.2840237,10.7495069 L17.8303748,10.295858 C17.7712032,10.2366864 17.7120316,10.2169625 17.6331361,10.2169625 L17.6331361,10.2169625 C17.5542406,10.2169625 17.495069,10.2366864 17.4358974,10.295858 L12.642998,15.0887574 C12.5641026,15.1676529 12.4457594,15.1676529 12.3668639,15.0887574 L7.55424063,10.3155819 C7.5147929,10.2564103 7.43589744,10.2366864 7.37672584,10.2366864 L7.37672584,10.2366864 Z" id="Shape" fill="#000000"></path>
            <path d="M12.4852071,24.9704142 C5.60157791,24.9704142 0,19.3688363 0,12.4852071 C0,5.60157791 5.60157791,0 12.4852071,0 C19.3688363,0 24.9704142,5.60157791 24.9704142,12.4852071 C24.9704142,19.3688363 19.3688363,24.9704142 12.4852071,24.9704142 Z M12.4852071,0.394477318 C5.81854043,0.394477318 0.394477318,5.81854043 0.394477318,12.4852071 C0.394477318,19.1518738 5.81854043,24.5759369 12.4852071,24.5759369 C19.1518738,24.5759369 24.5759369,19.1518738 24.5759369,12.4852071 C24.5759369,5.81854043 19.1518738,0.394477318 12.4852071,0.394477318 Z" id="Shape" fill="#000000"></path>
        </g>
    </g>
</svg>