<?xml version="1.0" encoding="UTF-8"?>
<svg width="25px" height="25px" viewBox="0 0 25 25" version="1.1" xmlns="http://www.w3.org/2000/svg" xmlns:xlink="http://www.w3.org/1999/xlink">
    <!-- Generator: Sketch 64 (93537) - https://sketch.com -->
    <title>Untitled 2</title>
    <desc>Created with Sketch.</desc>
    <g id="Page-1" stroke="none" stroke-width="1" fill="none" fill-rule="evenodd">
        <g id="text" fill-rule="nonzero">
            <g id="Group" transform="translate(0.403226, 0.403226)" fill="#57A4FF">
                <polygon id="Path" points="1.61290323 1.61290323 3.22580645 1.61290323 3.22580645 3.22580645 1.61290323 3.22580645"></polygon>
                <polygon id="Path" points="1.61290323 20.9677419 3.22580645 20.9677419 3.22580645 22.5806452 1.61290323 22.5806452"></polygon>
                <polygon id="Path" points="16.9354839 6.4516129 16.9354839 9.67741935 16.1794355 9.67741935 15.7258065 8.06451613 12.9032258 8.06451613 12.9032258 16.5322581 14.516129 16.9354839 14.516129 17.7419355 9.67741935 17.7419355 9.67741935 16.9354839 11.2903226 16.5322581 11.2903226 8.06451613 8.46774194 8.06451613 8.0141129 9.67741935 7.25806452 9.67741935 7.25806452 6.4516129"></polygon>
                <polygon id="Path" points="20.9677419 1.61290323 22.5806452 1.61290323 22.5806452 3.22580645 20.9677419 3.22580645"></polygon>
                <polygon id="Path" points="20.9677419 20.9677419 22.5806452 20.9677419 22.5806452 22.5806452 20.9677419 22.5806452"></polygon>
                <g id="Path">
                    <polygon points="0 0 3.22580645 0 3.22580645 3.22580645 0 3.22580645"></polygon>
                    <polygon points="0 20.9677419 3.22580645 20.9677419 3.22580645 24.1935484 0 24.1935484"></polygon>
                    <polygon points="20.9677419 0 24.1935484 0 24.1935484 3.22580645 20.9677419 3.22580645"></polygon>
                    <polygon points="20.9677419 20.9677419 24.1935484 20.9677419 24.1935484 24.1935484 20.9677419 24.1935484"></polygon>
                    <polygon points="16.9354839 6.4516129 16.9354839 9.67741935 16.1794355 9.67741935 15.7258065 8.06451613 12.9032258 8.06451613 12.9032258 16.5322581 14.516129 16.9354839 14.516129 17.7419355 9.67741935 17.7419355 9.67741935 16.9354839 11.2903226 16.5322581 11.2903226 8.06451613 8.46774194 8.06451613 8.0141129 9.67741935 7.25806452 9.67741935 7.25806452 6.4516129"></polygon>
                </g>
            </g>
            <g id="Group" fill="#004FAC">
                <path d="M24.5967742,4.03225806 C24.8194697,4.03225806 25,3.85172772 25,3.62903226 L25,0.403225806 C25,0.180530343 24.8194697,0 24.5967742,0 L21.3709677,0 C21.1482723,0 20.9677419,0.180530343 20.9677419,0.403225806 L20.9677419,1.61290323 L4.03225806,1.61290323 L4.03225806,0.403225806 C4.03225806,0.180530343 3.85172772,0 3.62903226,0 L0.403225806,0 C0.180530343,0 0,0.180530343 0,0.403225806 L0,3.62903226 C0,3.85172772 0.180530343,4.03225806 0.403225806,4.03225806 L1.61290323,4.03225806 L1.61290323,20.9677419 L0.403225806,20.9677419 C0.180530343,20.9677419 0,21.1482723 0,21.3709677 L0,24.5967742 C0,24.8194697 0.180530343,25 0.403225806,25 L3.62903226,25 C3.85172772,25 4.03225806,24.8194697 4.03225806,24.5967742 L4.03225806,23.3870968 L20.9677419,23.3870968 L20.9677419,24.5967742 C20.9677419,24.8194697 21.1482723,25 21.3709677,25 L24.5967742,25 C24.8194697,25 25,24.8194697 25,24.5967742 L25,21.3709677 C25,21.1482723 24.8194697,20.9677419 24.5967742,20.9677419 L23.3870968,20.9677419 L23.3870968,4.03225806 L24.5967742,4.03225806 Z M0.806451613,3.22580645 L0.806451613,0.806451613 L3.22580645,0.806451613 L3.22580645,3.22580645 L0.806451613,3.22580645 Z M3.22580645,24.1935484 L0.806451613,24.1935484 L0.806451613,21.7741935 L3.22580645,21.7741935 L3.22580645,24.1935484 Z M20.9677419,21.3709677 L20.9677419,22.5806452 L4.03225806,22.5806452 L4.03225806,21.3709677 C4.03225806,21.1482723 3.85172772,20.9677419 3.62903226,20.9677419 L2.41935484,20.9677419 L2.41935484,4.03225806 L3.62903226,4.03225806 C3.85172772,4.03225806 4.03225806,3.85172772 4.03225806,3.62903226 L4.03225806,2.41935484 L20.9677419,2.41935484 L20.9677419,3.62903226 C20.9677419,3.85172772 21.1482723,4.03225806 21.3709677,4.03225806 L22.5806452,4.03225806 L22.5806452,20.9677419 L21.3709677,20.9677419 C21.1482723,20.9677419 20.9677419,21.1482723 20.9677419,21.3709677 Z M24.1935484,21.7741935 L24.1935484,24.1935484 L21.7741935,24.1935484 L21.7741935,21.7741935 L24.1935484,21.7741935 Z M21.7741935,3.22580645 L21.7741935,0.806451613 L24.1935484,0.806451613 L24.1935484,3.22580645 L21.7741935,3.22580645 Z" id="Shape"></path>
                <path d="M17.3387097,6.4516129 L7.66129032,6.4516129 C7.43859486,6.4516129 7.25806452,6.63214325 7.25806452,6.85483871 L7.25806452,10.0806452 C7.25806452,10.3033406 7.43859486,10.483871 7.66129032,10.483871 L8.41733871,10.483871 C8.59790929,10.4838694 8.75646378,10.363821 8.80544355,10.1900202 L9.17641129,8.87096774 L11.2903226,8.87096774 L11.2903226,16.6204637 L9.9828629,16.9475806 C9.80337516,16.9924456 9.67744737,17.1536996 9.67741935,17.3387097 L9.67741935,18.1451613 C9.67741935,18.3678568 9.8579497,18.5483871 10.0806452,18.5483871 L14.9193548,18.5483871 C15.1420503,18.5483871 15.3225806,18.3678568 15.3225806,18.1451613 L15.3225806,17.3387097 C15.3225526,17.1536996 15.1966248,16.9924456 15.0171371,16.9475806 L13.7096774,16.6204637 L13.7096774,8.87096774 L15.8235887,8.87096774 L16.1945565,10.1900202 C16.2435362,10.363821 16.4020907,10.4838694 16.5826613,10.483871 L17.3387097,10.483871 C17.5614051,10.483871 17.7419355,10.3033406 17.7419355,10.0806452 L17.7419355,6.85483871 C17.7419355,6.63214325 17.5614051,6.4516129 17.3387097,6.4516129 L17.3387097,6.4516129 Z M16.9354839,9.67741935 L16.8881048,9.67741935 L16.5171371,8.35836694 C16.4681573,8.18456614 16.3096028,8.06451774 16.1290323,8.06451613 L13.3064516,8.06451613 C13.0837561,8.06451613 12.9032258,8.24504647 12.9032258,8.46774194 L12.9032258,16.9354839 C12.9032538,17.1204939 13.0291816,17.281748 13.2086694,17.3266129 L14.516129,17.6537298 L14.516129,17.7419355 L10.483871,17.7419355 L10.483871,17.6537298 L11.7913306,17.3266129 C11.9708184,17.281748 12.0967462,17.1204939 12.0967742,16.9354839 L12.0967742,8.46774194 C12.0967742,8.24504647 11.9162439,8.06451613 11.6935484,8.06451613 L8.87096774,8.06451613 C8.69039716,8.06451774 8.53184267,8.18456614 8.4828629,8.35836694 L8.11189516,9.67741935 L8.06451613,9.67741935 L8.06451613,7.25806452 L16.9354839,7.25806452 L16.9354839,9.67741935 Z" id="Shape"></path>
                <path d="M17.7419355,19.3548387 L7.25806452,19.3548387 C7.03536905,19.3548387 6.85483871,19.5353691 6.85483871,19.7580645 C6.85483871,19.98076 7.03536905,20.1612903 7.25806452,20.1612903 L17.7419355,20.1612903 C17.9646309,20.1612903 18.1451613,19.98076 18.1451613,19.7580645 C18.1451613,19.5353691 17.9646309,19.3548387 17.7419355,19.3548387 Z" id="Path"></path>
                <path d="M14.1129032,20.5645161 L10.8870968,20.5645161 C10.6644013,20.5645161 10.483871,20.7450465 10.483871,20.9677419 C10.483871,21.1904374 10.6644013,21.3709677 10.8870968,21.3709677 L14.1129032,21.3709677 C14.3355987,21.3709677 14.516129,21.1904374 14.516129,20.9677419 C14.516129,20.7450465 14.3355987,20.5645161 14.1129032,20.5645161 Z" id="Path"></path>
            </g>
        </g>
    </g>
</svg>