<?xml version="1.0" encoding="UTF-8"?>
<svg width="25px" height="25px" viewBox="0 0 25 25" version="1.1" xmlns="http://www.w3.org/2000/svg" xmlns:xlink="http://www.w3.org/1999/xlink">
    <!-- Generator: Sketch 64 (93537) - https://sketch.com -->
    <title>Untitled 2</title>
    <desc>Created with Sketch.</desc>
    <g id="Page-1" stroke="none" stroke-width="1" fill="none" fill-rule="evenodd">
        <g id="next-skip-svgrepo-com-4" fill-rule="nonzero">
            <g id="next-skip-svgrepo-com-3">
                <g id="next-skip-svgrepo-com-2">
                    <g id="next-skip-svgrepo-com">
                        <circle id="Oval" fill="#F7B500" cx="12.4852071" cy="12.4852071" r="12.2879684"></circle>
                        <path d="M12.4852071,24.9704142 C5.60157791,24.9704142 0,19.3688363 0,12.4852071 C0,5.60157791 5.60157791,0 12.4852071,0 C19.3688363,0 24.9704142,5.60157791 24.9704142,12.4852071 C24.9704142,19.3688363 19.3688363,24.9704142 12.4852071,24.9704142 Z M12.4852071,0.394477318 C5.81854043,0.394477318 0.394477318,5.81854043 0.394477318,12.4852071 C0.394477318,19.1518738 5.81854043,24.5759369 12.4852071,24.5759369 C19.1518738,24.5759369 24.5759369,19.1518738 24.5759369,12.4852071 C24.5759369,5.81854043 19.1518738,0.394477318 12.4852071,0.394477318 Z" id="Shape" fill="#000000"></path>
                    </g>
                </g>
                <g id="arrow-2" transform="translate(7.495069, 5.177515)" fill="#000000">
                    <g id="arrow" transform="translate(5.029586, 7.322485) rotate(-270.000000) translate(-5.029586, -7.322485) translate(-2.268245, 2.317554)">
                        <path d="M11.4762732,6.38285692 C11.0885762,6.14177425 10.6641833,5.96233075 10.2149567,5.84945867 C9.31991696,5.62454132 8.32622487,5.61986564 7.08766557,5.8348044 L6.99376377,5.85108376 C6.8807175,5.87064179 6.7981374,5.96891661 6.7981374,6.08386994 L6.7981374,7.53649563 C6.7981374,7.60283898 6.75350489,7.63531215 6.73430352,7.64620307 C6.7151306,7.65703696 6.66435365,7.67864773 6.60763139,7.64452096 C6.60609528,7.64358012 6.60453072,7.64263929 6.60290927,7.64175547 L0.530640451,4.17502324 C0.477246427,4.14178029 0.471386454,4.08926442 0.471386454,4.06805279 C0.471386454,4.04686968 0.477246427,3.99432529 0.530640451,3.96108234 L6.60296617,0.494350111 C6.60453072,0.493466293 6.60609528,0.492525455 6.60765984,0.491613127 C6.66446744,0.457400829 6.71518749,0.479040108 6.73436041,0.489931023 C6.75356178,0.500793427 6.79819429,0.533295111 6.79819429,0.59963846 L6.79819429,2.05220713 C6.79819429,2.16929872 6.88376127,2.26871396 6.99936773,2.28587713 C7.09454962,2.30001821 7.18975995,2.31418781 7.28673397,2.32869953 C7.90686701,2.41673917 8.53374187,2.56228399 9.14986397,2.76125702 C9.2737199,2.80117137 9.40653646,2.73303188 9.44647531,2.60884123 C9.48638571,2.4846791 9.4183133,2.35159326 9.29440048,2.31156487 C8.65279035,2.10435238 7.99951717,1.95270636 7.35460724,1.86115995 C7.32630301,1.85694044 7.29791343,1.85272092 7.26960919,1.84847289 L7.26960919,0.59960995 C7.26960919,0.381078892 7.15627846,0.186325382 6.9665405,0.0786991925 C6.77765594,-0.0284423228 6.55400979,-0.0260189517 6.36757163,0.084942937 L0.294364071,3.55224537 C0.292799516,3.55312918 0.29123496,3.55407002 0.289641957,3.55501086 C0.108267265,3.66420511 0,3.85599356 0,4.0680813 C0,4.28016904 0.108267265,4.47190047 0.289670404,4.58109472 C0.291206513,4.58203556 0.292771069,4.5829764 0.294392518,4.58386021 L6.36745784,8.05110562 C6.46252595,8.10769847 6.56729429,8.13609467 6.67220488,8.13609467 C6.77299072,8.13609467 6.87389035,8.10986525 6.96645516,8.05740639 C7.15627846,7.9497802 7.2695523,7.75502669 7.2695523,7.53649563 L7.2695523,6.28315658 C8.39361456,6.09735529 9.29548145,6.1054522 10.100289,6.3077039 C10.5021807,6.40871571 10.8814859,6.56905735 11.2277933,6.78430973 C11.3382793,6.85307645 11.4836977,6.81894969 11.5523106,6.70807333 C11.6209519,6.59725399 11.5869299,6.45162364 11.4762732,6.38285692 Z" id="Path"></path>
                        <path d="M13.2828726,4.9547352 C12.5628718,3.9978603 11.5195206,3.20354384 10.2657414,2.65771243 C10.1464477,2.60578127 10.0075276,2.66035589 9.95556056,2.77959573 C9.90359353,2.89883558 9.9581774,3.03763133 10.0775281,3.08956249 C11.2568411,3.6029618 12.2349704,4.34583031 12.9061614,5.23784101 C13.7453421,6.35318126 14.1762674,7.82143735 14.0884326,9.26607286 L14.0881766,9.27016596 C14.0795297,9.40657407 13.9632225,9.51418839 13.8272037,9.51418839 C13.8241033,9.51418839 13.8210029,9.51413154 13.8178741,9.51404627 L13.8005233,9.51339251 C13.6843299,9.50918571 13.5837807,9.42846076 13.555991,9.31683862 L13.5526915,9.3038203 C13.3901914,8.68093067 13.1302994,8.10627704 12.780098,7.595777 C12.6283497,7.37446557 12.4558374,7.16651355 12.267368,6.97769108 C12.1754942,6.88559641 12.0262489,6.88536902 11.9340907,6.97729314 C11.8419324,7.06910355 11.8417333,7.21824574 11.9336925,7.3103404 C12.1018529,7.47878268 12.2557913,7.66439321 12.3913266,7.86199879 C12.7106664,8.32747477 12.947917,8.85255646 13.0964227,9.42183791 L13.0987267,9.4308484 C13.1769474,9.74479456 13.4585706,9.97227405 13.7843387,9.98409855 L13.8004664,9.98469546 C13.8097392,9.98503655 13.8188981,9.9852071 13.8280855,9.9852071 C14.2156053,9.9852071 14.5340065,9.68913982 14.5587243,9.2989029 L14.5589803,9.29478138 C14.653414,7.74000179 14.1882992,6.15816229 13.2828726,4.9547352 Z" id="Path"></path>
                    </g>
                </g>
            </g>
        </g>
    </g>
</svg>