<?xml version="1.0" encoding="UTF-8"?>
<svg width="27px" height="27px" viewBox="0 0 27 27" version="1.1" xmlns="http://www.w3.org/2000/svg" xmlns:xlink="http://www.w3.org/1999/xlink">
    <!-- Generator: Sketch 64 (93537) - https://sketch.com -->
    <title>Untitled 2</title>
    <desc>Created with Sketch.</desc>
    <g id="Page-1" stroke="none" stroke-width="1" fill="none" fill-rule="evenodd">
        <g id="upload-file" transform="translate(1.000000, 1.000000)" fill-rule="nonzero">
            <path d="M25.0000488,12.500293 C25.0000488,19.4043457 19.4040527,25 12.5002441,25 C5.59599609,25 4.8828125e-05,19.4043945 4.8828125e-05,12.500293 C-0.000341796875,5.59619141 5.59599609,0 12.5002441,0 C19.4040527,0 25.0000488,5.59638672 25.0000488,12.500293 Z" id="Path" stroke="#0C0B0B" fill="#F7B500"></path>
            <g id="Group" transform="translate(4.345703, 4.345703)" fill="#F4F6F9">
                <path d="M0.706396484,0.706396484 L7.47724609,0.706396484 L7.47724609,3.75327148 C7.47724609,3.94023437 7.62866211,4.09179687 7.81577148,4.09179687 L10.8626465,4.09179687 L10.8626465,6.46157227 L11.5397461,6.46157227 L11.5397461,3.75454102 C11.5397461,3.7543457 11.5397461,3.75410156 11.5397461,3.75385742 L11.5397461,3.75322266 C11.5397461,3.71713867 11.5296875,3.68413086 11.5192383,3.65151367 C11.5164063,3.64291992 11.5173828,3.63330078 11.5138672,3.62490234 C11.4960449,3.58144531 11.4694336,3.54306641 11.4362793,3.5109375 L8.05546875,0.128759766 C8.02446289,0.09765625 7.98740234,0.0728027344 7.94619141,0.0556152344 C7.90532227,0.0384765625 7.86113281,0.0292480469 7.81582031,0.0292480469 L0.367871094,0.0292480469 C0.180712891,0.0292480469 0.0293457031,0.180810547 0.0293457031,0.367773437 L0.0293457031,14.5865234 C0.0293457031,14.7734863 0.180761719,14.9250488 0.367871094,14.9250488 L7.1387207,14.9250488 L7.1387207,14.2480469 L0.706396484,14.2480469 L0.706396484,0.706396484 Z M8.1543457,1.18530273 L10.3828125,3.41474609 L8.1543457,3.41474609 L8.1543457,1.18530273 Z" id="Shape"></path>
                <path d="M11.8782715,7.47719727 C9.45161133,7.47719727 7.47724609,9.45141602 7.47724609,11.8782227 C7.47724609,14.3050293 9.45161133,16.279248 11.8782715,16.279248 C14.3049316,16.279248 16.2792969,14.3050293 16.2792969,11.8782227 C16.2792969,9.45141602 14.3049316,7.47719727 11.8782715,7.47719727 Z M11.8782715,15.6021973 C9.82490234,15.6021973 8.15429688,13.9316406 8.15429688,11.8782227 C8.15429688,9.82480469 9.82490234,8.15429688 11.8782715,8.15429688 C13.9316406,8.15429688 15.6022461,9.82485352 15.6022461,11.8782715 C15.6022461,13.9316895 13.9316895,15.6021973 11.8782715,15.6021973 Z" id="Shape"></path>
                <path d="M12.1206543,9.79580078 C12.0591309,9.73232422 11.9737305,9.69223633 11.8782715,9.69223633 C11.7828125,9.69223633 11.6973633,9.73227539 11.6358887,9.79580078 L10.1617676,11.2699219 C10.029541,11.4021484 10.029541,11.6163574 10.1617676,11.7486328 C10.2939941,11.8808594 10.5082031,11.8808594 10.6404785,11.7486328 L11.5397461,10.8494141 L11.5397461,13.7237305 C11.5397461,13.9106934 11.6911621,14.0622559 11.8782715,14.0622559 C12.0653809,14.0622559 12.2167969,13.9106934 12.2167969,13.7237305 L12.2167969,10.8494141 L13.1160645,11.7486816 C13.1822266,11.8148437 13.2688477,11.8478516 13.3554199,11.8478516 C13.4419922,11.8478516 13.5286621,11.8147949 13.5947754,11.7486816 C13.727002,11.6164551 13.727002,11.4022461 13.5947754,11.2699707 L12.1206543,9.79580078 Z" id="Path"></path>
            </g>
        </g>
    </g>
</svg>