<?xml version="1.0" encoding="UTF-8"?>
<svg width="25px" height="25px" viewBox="0 0 25 25" version="1.1" xmlns="http://www.w3.org/2000/svg" xmlns:xlink="http://www.w3.org/1999/xlink">
    <!-- Generator: Sketch 64 (93537) - https://sketch.com -->
    <title>Untitled 2</title>
    <desc>Created with Sketch.</desc>
    <g id="Page-1" stroke="none" stroke-width="1" fill="none" fill-rule="evenodd">
        <g id="pause-svgrepo-com-(1)" fill-rule="nonzero">
            <path d="M24.7731755,12.4852071 C24.7731755,19.270217 19.270217,24.7731755 12.4852071,24.7731755 C5.70019724,24.7731755 0.197238659,19.270217 0.197238659,12.4852071 C0.197238659,5.70019724 5.70019724,0.197238659 12.4852071,0.197238659 C19.270217,0.197238659 24.7731755,5.70019724 24.7731755,12.4852071 Z" id="Path" fill="#E07D46"></path>
            <g id="Group" transform="translate(9.714004, 6.558185)" fill="#F4EFEF">
                <path d="M1.39053254,0.601577909 L1.39053254,11.3905325 C1.39053254,11.7061144 1.15384615,12.0414201 0.8382643,12.0414201 L0.424063116,12.0414201 C0.108481262,12.0414201 0.00986193294,11.7061144 0.00986193294,11.3905325 L0.00986193294,0.463510848 C0.00986193294,0.147928994 0.108481262,0.00986193294 0.424063116,0.00986193294 L0.8382643,0.00986193294 C1.15384615,0.00986193294 1.37080868,0.285996055 1.37080868,0.601577909" id="Path"></path>
                <path d="M5.53254438,0.601577909 L5.53254438,11.3905325 C5.53254438,11.7061144 5.25641026,12.0414201 4.9408284,12.0414201 L4.52662722,12.0414201 C4.21104536,12.0414201 4.15187377,11.7061144 4.15187377,11.3905325 L4.15187377,0.463510848 C4.15187377,0.147928994 4.21104536,0.00986193294 4.52662722,0.00986193294 L4.9408284,0.00986193294 C5.25641026,0.00986193294 5.47337278,0.285996055 5.47337278,0.601577909" id="Path"></path>
            </g>
            <path d="M12.4852071,24.9704142 C5.60157791,24.9704142 0,19.3688363 0,12.4852071 C0,5.60157791 5.60157791,0 12.4852071,0 C19.3688363,0 24.9704142,5.60157791 24.9704142,12.4852071 C24.9704142,19.3688363 19.3688363,24.9704142 12.4852071,24.9704142 Z M12.4852071,0.394477318 C5.81854043,0.394477318 0.394477318,5.81854043 0.394477318,12.4852071 C0.394477318,19.1518738 5.81854043,24.5759369 12.4852071,24.5759369 C19.1518738,24.5759369 24.5759369,19.1518738 24.5759369,12.4852071 C24.5759369,5.81854043 19.1518738,0.394477318 12.4852071,0.394477318 Z" id="Shape" fill="#000000"></path>
            <path d="M14.7140039,18.9940828 L14.260355,18.9940828 C13.82643,18.9940828 13.4714004,18.6390533 13.4714004,18.2248521 L13.4714004,7.14003945 C13.4714004,6.72583826 13.8658777,6.35108481 14.2998028,6.35108481 L14.6745562,6.35108481 C15.0887574,6.35108481 15.443787,6.7061144 15.443787,7.14003945 L15.443787,18.2051282 C15.443787,18.6587771 15.1282051,18.9940828 14.7140039,18.9940828 Z M14.2998028,6.765286 C14.0828402,6.765286 13.8658777,6.94280079 13.8658777,7.15976331 L13.8658777,18.2445759 C13.8658777,18.4418146 14.0433925,18.6193294 14.260355,18.6193294 L14.7140039,18.6193294 C14.9309665,18.6193294 15.0493097,18.4220907 15.0493097,18.2248521 L15.0493097,7.15976331 C15.0493097,6.94280079 14.8915187,6.765286 14.6745562,6.765286 L14.2998028,6.765286 Z" id="Shape" fill="#000000"></path>
            <path d="M10.6706114,18.8954635 L10.2169625,18.8954635 C9.78303748,18.8954635 9.42800789,18.5404339 9.42800789,18.1262327 L9.42800789,7.04142012 C9.42800789,6.62721893 9.82248521,6.25246548 10.2564103,6.25246548 L10.6311637,6.25246548 C11.0453649,6.25246548 11.4003945,6.60749507 11.4003945,7.04142012 L11.4003945,18.1065089 C11.4003945,18.5601578 11.0848126,18.8954635 10.6706114,18.8954635 Z M10.2564103,6.66666667 C10.0394477,6.66666667 9.82248521,6.84418146 9.82248521,7.06114398 L9.82248521,18.1459566 C9.82248521,18.3431953 10,18.5207101 10.2169625,18.5207101 L10.6706114,18.5207101 C10.887574,18.5207101 11.0059172,18.3234714 11.0059172,18.1262327 L11.0059172,7.06114398 C11.0059172,6.84418146 10.8481262,6.66666667 10.6311637,6.66666667 L10.2564103,6.66666667 Z" id="Shape" fill="#000000"></path>
        </g>
    </g>
</svg>