<?xml version="1.0" encoding="UTF-8"?>
<svg width="25px" height="25px" viewBox="0 0 25 25" version="1.1" xmlns="http://www.w3.org/2000/svg" xmlns:xlink="http://www.w3.org/1999/xlink">
    <!-- Generator: Sketch 64 (93537) - https://sketch.com -->
    <title>Untitled 2</title>
    <desc>Created with Sketch.</desc>
    <g id="Page-1" stroke="none" stroke-width="1" fill="none" fill-rule="evenodd">
        <g id="play" fill-rule="nonzero">
            <path d="M24.7731755,12.4852071 C24.7731755,19.270217 19.270217,24.7731755 12.4852071,24.7731755 C5.70019724,24.7731755 0.197238659,19.270217 0.197238659,12.4852071 C0.197238659,5.70019724 5.70019724,0.197238659 12.4852071,0.197238659 C19.270217,0.197238659 24.7731755,5.70019724 24.7731755,12.4852071 Z" id="Path" fill="#13A289"></path>
            <path d="M21.0848126,5.14792899 C22.7810651,7.12031558 23.7869822,9.68441815 23.7869822,12.4852071 C23.7869822,18.7376726 18.7179487,23.8067061 12.4654832,23.8067061 C6.21301775,23.8067061 1.16370809,18.7376726 1.16370809,12.4852071 C1.16370809,6.23274162 6.23274162,1.18343195 12.4852071,1.18343195 C15.2859961,1.18343195 17.8500986,2.18934911 19.8224852,3.88560158 C19.8224852,3.86587771 20.591716,4.57593688 21.0848126,5.14792899 Z" id="Path" fill="#54B265"></path>
            <path d="M10.4930966,18.2445759 C9.64497041,18.8362919 8.93491124,18.4615385 8.93491124,17.4161736 L8.93491124,7.55424063 C8.93491124,6.50887574 9.64497041,6.13412229 10.4930966,6.72583826 L17.2978304,11.4201183 C18.1459566,12.0118343 18.1459566,12.9585799 17.2978304,13.5502959 L10.4930966,18.2445759 Z" id="Path" fill="#F4EFEF"></path>
            <path d="M9.62524655,18.7179487 C9.44773176,18.7179487 9.28994083,18.678501 9.15187377,18.5996055 C8.77712032,18.4023669 8.56015779,17.9684418 8.56015779,17.4161736 L8.56015779,7.55424063 C8.56015779,7.00197239 8.77712032,6.56804734 9.15187377,6.37080868 C9.54635108,6.17357002 10.0394477,6.23274162 10.5325444,6.56804734 L17.3767258,11.2623274 C17.8303748,11.5779093 18.086785,12.0118343 18.086785,12.4654832 C18.086785,12.938856 17.8106509,13.3925049 17.357002,13.7080868 L10.5128205,18.4023669 C10.2169625,18.6193294 9.90138067,18.7179487 9.62524655,18.7179487 Z M9.62524655,6.6469428 C9.50690335,6.6469428 9.40828402,6.66666667 9.32938856,6.72583826 C9.09270217,6.86390533 8.93491124,7.15976331 8.93491124,7.55424063 L8.93491124,17.4161736 C8.93491124,17.8106509 9.0729783,18.1262327 9.32938856,18.2445759 C9.58579882,18.382643 9.9408284,18.3234714 10.295858,18.0670611 L10.295858,18.0670611 L17.1203156,13.3727811 C17.495069,13.1163708 17.6923077,12.800789 17.6923077,12.4457594 C17.6923077,12.1104536 17.495069,11.7948718 17.1597633,11.5581854 L10.295858,6.86390533 C10.0591716,6.72583826 9.82248521,6.6469428 9.62524655,6.6469428 Z" id="Shape" fill="#000000"></path>
            <path d="M12.4852071,24.9704142 C5.60157791,24.9704142 0,19.3688363 0,12.4852071 C0,5.60157791 5.60157791,0 12.4852071,0 C19.3688363,0 24.9704142,5.60157791 24.9704142,12.4852071 C24.9704142,19.3688363 19.3688363,24.9704142 12.4852071,24.9704142 Z M12.4852071,0.394477318 C5.81854043,0.394477318 0.394477318,5.81854043 0.394477318,12.4852071 C0.394477318,19.1518738 5.81854043,24.5759369 12.4852071,24.5759369 C19.1518738,24.5759369 24.5759369,19.1518738 24.5759369,12.4852071 C24.5759369,5.81854043 19.1518738,0.394477318 12.4852071,0.394477318 Z" id="Shape" fill="#000000"></path>
        </g>
    </g>
</svg>