<?xml version="1.0" encoding="UTF-8"?>
<svg width="25px" height="25px" viewBox="0 0 25 25" version="1.1" xmlns="http://www.w3.org/2000/svg" xmlns:xlink="http://www.w3.org/1999/xlink">
    <!-- Generator: Sketch 64 (93537) - https://sketch.com -->
    <title>Untitled 2</title>
    <desc>Created with Sketch.</desc>
    <g id="Page-1" stroke="none" stroke-width="1" fill="none" fill-rule="evenodd">
        <g id="next-skip-svgrepo-com-3" fill-rule="nonzero">
            <g id="next-skip-svgrepo-com-2">
                <g id="next-skip-svgrepo-com">
                    <circle id="Oval" fill="#32C5FF" cx="12.4852071" cy="12.4852071" r="12.2879684"></circle>
                    <path d="M12.4852071,24.9704142 C5.60157791,24.9704142 0,19.3688363 0,12.4852071 C0,5.60157791 5.60157791,0 12.4852071,0 C19.3688363,0 24.9704142,5.60157791 24.9704142,12.4852071 C24.9704142,19.3688363 19.3688363,24.9704142 12.4852071,24.9704142 Z M12.4852071,0.394477318 C5.81854043,0.394477318 0.394477318,5.81854043 0.394477318,12.4852071 C0.394477318,19.1518738 5.81854043,24.5759369 12.4852071,24.5759369 C19.1518738,24.5759369 24.5759369,19.1518738 24.5759369,12.4852071 C24.5759369,5.81854043 19.1518738,0.394477318 12.4852071,0.394477318 Z" id="Shape" fill="#000000"></path>
                </g>
                <g id="floppy-disk" transform="translate(6.508876, 6.508876)" fill="#000000">
                    <path d="M11.9237352,1.65614645 L10.3261021,0.0585133136 C10.288659,0.0210589266 10.2378717,0 10.1849112,0 L0.99852071,0 C0.447326664,0.000660245126 0.000660245126,0.447326664 0,0.99852071 L0,10.9837278 C0.000660245126,11.5349219 0.447326664,11.9815883 0.99852071,11.9822485 L10.9837278,11.9822485 C11.5349219,11.9815883 11.9815883,11.5349219 11.9822485,10.9837278 L11.9822485,1.79733728 C11.9822485,1.74437678 11.9611896,1.69358952 11.9237352,1.65614645 Z M9.18639053,0.399408284 L9.18639053,3.59467456 C9.18639053,3.70496811 9.09697994,3.7943787 8.98668639,3.7943787 L2.99556213,3.7943787 C2.88526858,3.7943787 2.79585799,3.70496811 2.79585799,3.59467456 L2.79585799,0.399408284 L9.18639053,0.399408284 Z M1.59763314,11.5828402 L1.59763314,6.59023669 C1.59763314,6.25935603 1.86586491,5.99112426 2.19674556,5.99112426 L9.78550296,5.99112426 C10.1163836,5.99112426 10.3846154,6.25935603 10.3846154,6.59023669 L10.3846154,11.5828402 L1.59763314,11.5828402 Z M11.5828402,10.9837278 C11.5828402,11.3146085 11.3146085,11.5828402 10.9837278,11.5828402 L10.7840237,11.5828402 L10.7840237,6.59023669 C10.7833634,6.03904264 10.336697,5.59237622 9.78550296,5.59171598 L2.19674556,5.59171598 C1.64555152,5.59237622 1.1988851,6.03904264 1.19822485,6.59023669 L1.19822485,11.5828402 L0.99852071,11.5828402 C0.667640054,11.5828402 0.399408284,11.3146085 0.399408284,10.9837278 L0.399408284,0.99852071 C0.399408284,0.667640054 0.667640054,0.399408284 0.99852071,0.399408284 L2.3964497,0.399408284 L2.3964497,3.59467456 C2.3964497,3.92555521 2.66468147,4.19378698 2.99556213,4.19378698 L8.98668639,4.19378698 C9.31756705,4.19378698 9.58579882,3.92555521 9.58579882,3.59467456 L9.58579882,0.399408284 L10.1022337,0.399408284 L11.5828402,1.88001479 L11.5828402,10.9837278 Z" id="Shape"></path>
                    <path d="M7.34714004,3.45167653 L8.53057199,3.45167653 C8.6395039,3.45167653 8.72781065,3.36167157 8.72781065,3.25064482 L8.72781065,1.03929601 C8.72781065,0.928269262 8.6395039,0.8382643 8.53057199,0.8382643 L7.34714004,0.8382643 C7.23820814,0.8382643 7.14990138,0.928269262 7.14990138,1.03929601 L7.14990138,3.25064482 C7.14990138,3.36167157 7.23820814,3.45167653 7.34714004,3.45167653 Z M7.5443787,1.24032772 L8.33333333,1.24032772 L8.33333333,3.04961311 L7.5443787,3.04961311 L7.5443787,1.24032772 Z" id="Shape"></path>
                    <path d="M9.02212771,8.57988166 L3.05874014,8.57988166 C2.9489572,8.57988166 2.85996055,8.66818841 2.85996055,8.77712032 C2.85996055,8.88605222 2.9489572,8.97435897 3.05874014,8.97435897 L9.02212771,8.97435897 C9.13191065,8.97435897 9.2209073,8.88605222 9.2209073,8.77712032 C9.2209073,8.66818841 9.13191065,8.57988166 9.02212771,8.57988166 Z" id="Path"></path>
                    <path d="M9.02212771,7.3964497 L3.05874014,7.3964497 C2.9489572,7.3964497 2.85996055,7.48475646 2.85996055,7.59368836 C2.85996055,7.70262027 2.9489572,7.79092702 3.05874014,7.79092702 L9.02212771,7.79092702 C9.13191065,7.79092702 9.2209073,7.70262027 9.2209073,7.59368836 C9.2209073,7.48475646 9.13191065,7.3964497 9.02212771,7.3964497 Z" id="Path"></path>
                    <path d="M9.02212771,9.81262327 L3.05874014,9.81262327 C2.9489572,9.81262327 2.85996055,9.90093003 2.85996055,10.0098619 C2.85996055,10.1187938 2.9489572,10.2071006 3.05874014,10.2071006 L9.02212771,10.2071006 C9.13191065,10.2071006 9.2209073,10.1187938 9.2209073,10.0098619 C9.2209073,9.90093003 9.13191065,9.81262327 9.02212771,9.81262327 Z" id="Path"></path>
                </g>
            </g>
        </g>
    </g>
</svg>