<?xml version="1.0" encoding="UTF-8"?>
<svg width="27px" height="27px" viewBox="0 0 27 27" version="1.1" xmlns="http://www.w3.org/2000/svg" xmlns:xlink="http://www.w3.org/1999/xlink">
    <!-- Generator: Sketch 64 (93537) - https://sketch.com -->
    <title>Untitled 2</title>
    <desc>Created with Sketch.</desc>
    <g id="Page-1" stroke="none" stroke-width="1" fill="none" fill-rule="evenodd">
        <g id="diskette" transform="translate(1.000000, 1.000000)" fill-rule="nonzero">
            <circle id="Oval" stroke="#080808" stroke-width="2" fill="#080808" cx="12.5" cy="12.5" r="12.5"></circle>
            <circle id="Oval" fill="#5E73EB" cx="12.5" cy="12.5" r="12.5"></circle>
            <path d="M16.925,5.125 L5.995,5.125 C5.515,5.125 5.12,5.515 5.12,6 L5.12,19.01 C5.12,19.49 5.51,19.885 5.995,19.885 L19.005,19.885 C19.485,19.885 19.88,19.495 19.88,19.01 L19.88,8.075 C19.88,7.845 19.79,7.62 19.625,7.46 L17.545,5.38 C17.375,5.215 17.155,5.125 16.925,5.125 Z" id="Path" fill="#030404"></path>
            <g id="Group" transform="translate(7.900000, 5.100000)" fill="#FFFFFF">
                <rect id="Rectangle" x="0.02" y="0.025" width="9.155" height="5.04"></rect>
                <rect id="Rectangle" x="0.02" y="9.215" width="9.155" height="5.56"></rect>
            </g>
            <rect id="Rectangle" fill="#030404" x="14.875" y="6.14" width="1.215" height="2.95"></rect>
            <polygon id="Path" fill="#FFFFFF" points="6.53 6.955 5.785 8 6.115 8 6.115 9.09 6.945 9.09 6.945 8 7.28 8"></polygon>
            <rect id="Rectangle" fill="#5E73EB" x="5.815" y="17.4" width="1.3" height="1.3"></rect>
            <g id="Group" transform="translate(8.650000, 15.050000)" fill="#ACB3BA">
                <rect id="Rectangle" x="0.025" y="0.025" width="7.665" height="1"></rect>
                <rect id="Rectangle" x="0.025" y="1.73" width="7.665" height="1"></rect>
                <rect id="Rectangle" x="0.025" y="3.43" width="7.665" height="1"></rect>
            </g>
        </g>
    </g>
</svg>