<?xml version="1.0" encoding="UTF-8"?>
<svg width="25px" height="25px" viewBox="0 0 25 25" version="1.1" xmlns="http://www.w3.org/2000/svg" xmlns:xlink="http://www.w3.org/1999/xlink">
    <!-- Generator: Sketch 64 (93537) - https://sketch.com -->
    <title>Untitled 2</title>
    <desc>Created with Sketch.</desc>
    <g id="Page-1" stroke="none" stroke-width="1" fill="none" fill-rule="evenodd">
        <g id="stop-svgrepo-com" fill-rule="nonzero">
            <circle id="Oval" fill="#DF5C4E" cx="12.4852071" cy="12.4852071" r="12.2879684"></circle>
            <path d="M17.2189349,16.3510848 C17.2189349,16.9428008 16.7455621,17.4161736 16.1538462,17.4161736 L8.61932939,17.4161736 C8.02761341,17.4161736 7.55424063,16.9428008 7.55424063,16.3510848 L7.55424063,8.81656805 C7.55424063,8.22485207 8.02761341,7.75147929 8.61932939,7.75147929 L16.1538462,7.75147929 C16.7455621,7.75147929 17.2189349,8.22485207 17.2189349,8.81656805 L17.2189349,16.3510848 L17.2189349,16.3510848 Z" id="Path" fill="#F4EFEF"></path>
            <path d="M12.4852071,24.9704142 C5.60157791,24.9704142 0,19.3688363 0,12.4852071 C0,5.60157791 5.60157791,0 12.4852071,0 C19.3688363,0 24.9704142,5.60157791 24.9704142,12.4852071 C24.9704142,19.3688363 19.3688363,24.9704142 12.4852071,24.9704142 Z M12.4852071,0.394477318 C5.81854043,0.394477318 0.394477318,5.81854043 0.394477318,12.4852071 C0.394477318,19.1518738 5.81854043,24.5759369 12.4852071,24.5759369 C19.1518738,24.5759369 24.5759369,19.1518738 24.5759369,12.4852071 C24.5759369,5.81854043 19.1518738,0.394477318 12.4852071,0.394477318 Z" id="Shape" fill="#000000"></path>
            <path d="M15.9566075,17.6134122 L8.42209073,17.6134122 C7.73175542,17.6134122 7.15976331,17.0414201 7.15976331,16.3510848 L7.15976331,8.81656805 C7.15976331,8.12623274 7.73175542,7.55424063 8.42209073,7.55424063 L15.9566075,7.55424063 C16.6469428,7.55424063 17.2189349,8.12623274 17.2189349,8.81656805 L17.2189349,16.3510848 C17.2189349,17.0414201 16.6469428,17.6134122 15.9566075,17.6134122 Z M8.42209073,7.94871795 C7.94871795,7.94871795 7.55424063,8.34319527 7.55424063,8.81656805 L7.55424063,16.3510848 C7.55424063,16.8244576 7.94871795,17.2189349 8.42209073,17.2189349 L15.9566075,17.2189349 C16.4299803,17.2189349 16.8244576,16.8244576 16.8244576,16.3510848 L16.8244576,8.81656805 C16.8244576,8.34319527 16.4299803,7.94871795 15.9566075,7.94871795 L8.42209073,7.94871795 Z" id="Shape" fill="#000000"></path>
        </g>
    </g>
</svg>