<?xml version="1.0" encoding="utf-8"?>
<!-- Generator: Adobe Illustrator 24.0.1, SVG Export Plug-In . SVG Version: 6.00 Build 0)  -->
<svg version="1.2" baseProfile="tiny" id="mySVG" class="wheel2"
	 xmlns="http://www.w3.org/2000/svg" xmlns:xlink="http://www.w3.org/1999/xlink"  viewBox="0 0 169 169"
	 xml:space="preserve"> 

<style>
     

 .wheel{
  transform-origin: center center;
  transform-box: fill-box;
  animation: spinR 5s linear 0s infinite;
}


@keyframes spinR {
  from {transform:rotate(0deg);}
  to {transform:rotate(360deg);}
}
@keyframes spinL {
  from {transform:rotate(360deg);}
  to {transform:rotate(0deg);}
}
   </style>

<g id="wheel" class="wheel" >
	<path d="M38.6,5.4L38.6,5.4 M38.6,5.4c-1.9,9.6,2.2,21.6,11.6,30.8c3.4,3.3,8.3,6.2,12.2,8.1l-5.9,9.2c-5.1-4.7-12.8-7.4-21.5-7.4
		c-3.5,0-7.2,0.4-10.9,1.4c-4.6,1.2-8.8,3-12.4,5.3L6.7,44c9.3-3,17.7-12.5,21.1-25.2c1.2-4.6,1.7-9.2,1.5-13.4L38.6,5.4 M38.6,4.4
		C38.6,4.4,38.6,4.4,38.6,4.4l-9.2,0c-0.3,0-0.5,0.1-0.7,0.3s-0.3,0.5-0.3,0.7c0.2,4.3-0.3,8.7-1.5,13.1
		C23.7,30.5,15.6,40.1,6.4,43.1c-0.3,0.1-0.5,0.3-0.6,0.6c-0.1,0.3-0.1,0.6,0.1,0.9l4.9,8.8c0.1,0.2,0.4,0.4,0.6,0.5
		c0.1,0,0.2,0,0.2,0c0.2,0,0.4-0.1,0.5-0.2c3.7-2.3,7.7-4.1,12.2-5.2c3.5-0.9,7.1-1.4,10.6-1.4c8.3,0,15.9,2.6,20.8,7.1
		c0.2,0.2,0.4,0.3,0.7,0.3c0,0,0.1,0,0.1,0c0.3,0,0.6-0.2,0.7-0.5l5.9-9.2c0.2-0.2,0.2-0.5,0.1-0.8c-0.1-0.3-0.3-0.5-0.5-0.6
		c-3.6-1.8-8.5-4.6-11.9-7.9c-8.8-8.6-13.2-20.3-11.4-29.8c0-0.1,0-0.2,0-0.3C39.6,4.8,39.1,4.4,38.6,4.4L38.6,4.4
		C38.6,4.4,38.6,4.4,38.6,4.4L38.6,4.4z M38.6,6.4L38.6,6.4L38.6,6.4L38.6,6.4z"/>
	
		<circle fill="none" stroke="#000000" stroke-linecap="round" stroke-linejoin="round" stroke-miterlimit="10" cx="34.3" cy="34.3" r="30.3"/>
	<g>
		<path d="M34.3,38.1c-2.1,0-3.8-1.7-3.8-3.8c0-2.1,1.7-3.8,3.8-3.8s3.8,1.7,3.8,3.8C38.2,36.4,36.5,38.1,34.3,38.1z"/>
		<path d="M34.3,30.9c1.8,0,3.3,1.5,3.3,3.3s-1.5,3.3-3.3,3.3S31,36.1,31,34.3S32.5,30.9,34.3,30.9 M34.3,29.9c-2.4,0-4.3,2-4.3,4.3
			s2,4.3,4.3,4.3s4.3-2,4.3-4.3S36.7,29.9,34.3,29.9L34.3,29.9z"/>
	</g>
	<path d="M34.3,29.2c2.9,0,5.2,2.4,5.2,5.2s-2.4,5.2-5.2,5.2c-2.9,0-5.2-2.4-5.2-5.2S31.4,29.2,34.3,29.2 M34.3,28.2
		c-3.4,0-6.2,2.8-6.2,6.2s2.8,6.2,6.2,6.2s6.2-2.8,6.2-6.2S37.8,28.2,34.3,28.2L34.3,28.2z"/>
	<g>
		<g>
			<path fill="#575756" d="M49.4,16.4c-0.5,0-1-0.4-1-1c0-0.5,0.4-1,1-1s1,0.4,1,1C50.4,16,50,16.4,49.4,16.4z"/>
			<path fill="#575756" d="M49.4,14.6c0.5,0,0.9,0.4,0.9,0.9s-0.4,0.9-0.9,0.9c-0.5,0-0.9-0.4-0.9-0.9S49,14.6,49.4,14.6 M49.4,14.3
				c-0.6,0-1.1,0.5-1.1,1.1c0,0.6,0.5,1.1,1.1,1.1c0.6,0,1.1-0.5,1.1-1.1C50.5,14.8,50,14.3,49.4,14.3L49.4,14.3z"/>
		</g>
		<g>
			<path fill="#575756" d="M45.4,14.1c-0.5,0-1-0.4-1-1c0-0.5,0.4-1,1-1s1,0.4,1,1C46.4,13.6,46,14.1,45.4,14.1z"/>
			<path fill="#575756" d="M45.4,12.2c0.5,0,0.9,0.4,0.9,0.9c0,0.5-0.4,0.9-0.9,0.9s-0.9-0.4-0.9-0.9C44.6,12.6,45,12.2,45.4,12.2
				 M45.4,11.9c-0.6,0-1.1,0.5-1.1,1.1c0,0.6,0.5,1.1,1.1,1.1s1.1-0.5,1.1-1.1C46.6,12.4,46.1,11.9,45.4,11.9L45.4,11.9z"/>
		</g>
		<g>
			<path fill="#575756" d="M41.8,12.3c-0.5,0-1-0.4-1-1c0-0.5,0.4-1,1-1s1,0.4,1,1C42.8,11.9,42.3,12.3,41.8,12.3z"/>
			<path fill="#575756" d="M41.8,10.5c0.5,0,0.9,0.4,0.9,0.9s-0.4,0.9-0.9,0.9c-0.5,0-0.9-0.4-0.9-0.9S41.3,10.5,41.8,10.5
				 M41.8,10.2c-0.6,0-1.1,0.5-1.1,1.1s0.5,1.1,1.1,1.1c0.6,0,1.1-0.5,1.1-1.1S42.4,10.2,41.8,10.2L41.8,10.2z"/>
		</g>
		<g>
			<path fill="#575756" d="M42.6,9.1c-0.5,0-1-0.4-1-1c0-0.5,0.4-1,1-1s1,0.4,1,1C43.6,8.6,43.2,9.1,42.6,9.1z"/>
			<path fill="#575756" d="M42.6,7.2c0.5,0,0.9,0.4,0.9,0.9c0,0.5-0.4,0.9-0.9,0.9c-0.5,0-0.9-0.4-0.9-0.9
				C41.8,7.6,42.2,7.2,42.6,7.2 M42.6,7c-0.6,0-1.1,0.5-1.1,1.1c0,0.6,0.5,1.1,1.1,1.1c0.6,0,1.1-0.5,1.1-1.1
				C43.8,7.5,43.3,7,42.6,7L42.6,7z"/>
		</g>
		<g>
			<path fill="#575756" d="M46.7,10.8c-0.5,0-1-0.4-1-1c0-0.5,0.4-1,1-1s1,0.4,1,1C47.7,10.4,47.3,10.8,46.7,10.8z"/>
			<path fill="#575756" d="M46.7,9c0.5,0,0.9,0.4,0.9,0.9c0,0.5-0.4,0.9-0.9,0.9s-0.9-0.4-0.9-0.9C45.9,9.3,46.3,9,46.7,9 M46.7,8.7
				c-0.6,0-1.1,0.5-1.1,1.1c0,0.6,0.5,1.1,1.1,1.1c0.6,0,1.1-0.5,1.1-1.1C47.9,9.2,47.4,8.7,46.7,8.7L46.7,8.7z"/>
		</g>
		<g>
			<path fill="#575756" d="M50.3,12.9c-0.5,0-1-0.4-1-1c0-0.5,0.4-1,1-1s1,0.4,1,1C51.3,12.4,50.8,12.9,50.3,12.9z"/>
			<path fill="#575756" d="M50.3,11c0.5,0,0.9,0.4,0.9,0.9s-0.4,0.9-0.9,0.9c-0.5,0-0.9-0.4-0.9-0.9S49.8,11,50.3,11 M50.3,10.8
				c-0.6,0-1.1,0.5-1.1,1.1s0.5,1.1,1.1,1.1c0.6,0,1.1-0.5,1.1-1.1S50.9,10.8,50.3,10.8L50.3,10.8z"/>
		</g>
		<g>
			<path fill="#575756" d="M53.6,15.6c-0.5,0-1-0.4-1-1c0-0.5,0.4-1,1-1s1,0.4,1,1C54.6,15.1,54.2,15.6,53.6,15.6z"/>
			<path fill="#575756" d="M53.6,13.7c0.5,0,0.9,0.4,0.9,0.9c0,0.5-0.4,0.9-0.9,0.9s-0.9-0.4-0.9-0.9C52.8,14.1,53.2,13.7,53.6,13.7
				 M53.6,13.5c-0.6,0-1.1,0.5-1.1,1.1c0,0.6,0.5,1.1,1.1,1.1s1.1-0.5,1.1-1.1C54.7,14,54.2,13.5,53.6,13.5L53.6,13.5z"/>
		</g>
		<g>
			<path fill="#575756" d="M56.5,19c-0.5,0-1-0.4-1-1c0-0.5,0.4-1,1-1s1,0.4,1,1C57.5,18.6,57,19,56.5,19z"/>
			<path fill="#575756" d="M56.5,17.2c0.5,0,0.9,0.4,0.9,0.9s-0.4,0.9-0.9,0.9s-0.9-0.4-0.9-0.9S56,17.2,56.5,17.2 M56.5,16.9
				c-0.6,0-1.1,0.5-1.1,1.1s0.5,1.1,1.1,1.1s1.1-0.5,1.1-1.1S57.1,16.9,56.5,16.9L56.5,16.9z"/>
		</g>
		<g>
			<path fill="#575756" d="M52.3,19.4c-0.5,0-1-0.4-1-1c0-0.5,0.4-1,1-1s1,0.4,1,1C53.3,19,52.8,19.4,52.3,19.4z"/>
			<path fill="#575756" d="M52.3,17.6c0.5,0,0.9,0.4,0.9,0.9s-0.4,0.9-0.9,0.9s-0.9-0.4-0.9-0.9S51.8,17.6,52.3,17.6 M52.3,17.3
				c-0.6,0-1.1,0.5-1.1,1.1s0.5,1.1,1.1,1.1s1.1-0.5,1.1-1.1S52.9,17.3,52.3,17.3L52.3,17.3z"/>
		</g>
		<g>
			<path fill="#575756" d="M54.8,22.8c-0.5,0-1-0.4-1-1c0-0.5,0.4-1,1-1s1,0.4,1,1C55.8,22.4,55.3,22.8,54.8,22.8z"/>
			<path fill="#575756" d="M54.8,21c0.5,0,0.9,0.4,0.9,0.9s-0.4,0.9-0.9,0.9c-0.5,0-0.9-0.4-0.9-0.9S54.3,21,54.8,21 M54.8,20.7
				c-0.6,0-1.1,0.5-1.1,1.1c0,0.6,0.5,1.1,1.1,1.1c0.6,0,1.1-0.5,1.1-1.1C55.9,21.2,55.4,20.7,54.8,20.7L54.8,20.7z"/>
		</g>
		<g>
			<path fill="#575756" d="M58.7,22.8c-0.5,0-1-0.4-1-1c0-0.5,0.4-1,1-1s1,0.4,1,1C59.7,22.4,59.3,22.8,58.7,22.8z"/>
			<path fill="#575756" d="M58.7,21c0.5,0,0.9,0.4,0.9,0.9s-0.4,0.9-0.9,0.9c-0.5,0-0.9-0.4-0.9-0.9S58.2,21,58.7,21 M58.7,20.7
				c-0.6,0-1.1,0.5-1.1,1.1c0,0.6,0.5,1.1,1.1,1.1c0.6,0,1.1-0.5,1.1-1.1C59.8,21.2,59.3,20.7,58.7,20.7L58.7,20.7z"/>
		</g>
		<g>
			<path fill="#575756" d="M60.4,26.8c-0.5,0-1-0.4-1-1c0-0.5,0.4-1,1-1s1,0.4,1,1C61.4,26.3,61,26.8,60.4,26.8z"/>
			<path fill="#575756" d="M60.4,24.9c0.5,0,0.9,0.4,0.9,0.9c0,0.5-0.4,0.9-0.9,0.9c-0.5,0-0.9-0.4-0.9-0.9
				C59.6,25.3,60,24.9,60.4,24.9 M60.4,24.7c-0.6,0-1.1,0.5-1.1,1.1c0,0.6,0.5,1.1,1.1,1.1c0.6,0,1.1-0.5,1.1-1.1
				C61.5,25.2,61,24.7,60.4,24.7L60.4,24.7z"/>
		</g>
		<g>
			<path fill="#575756" d="M61.3,31c-0.5,0-1-0.4-1-1c0-0.5,0.4-1,1-1s1,0.4,1,1C62.3,30.6,61.8,31,61.3,31z"/>
			<path fill="#575756" d="M61.3,29.2c0.5,0,0.9,0.4,0.9,0.9s-0.4,0.9-0.9,0.9c-0.5,0-0.9-0.4-0.9-0.9S60.8,29.2,61.3,29.2
				 M61.3,28.9c-0.6,0-1.1,0.5-1.1,1.1s0.5,1.1,1.1,1.1c0.6,0,1.1-0.5,1.1-1.1S61.9,28.9,61.3,28.9L61.3,28.9z"/>
		</g>
		<g>
			<path fill="#575756" d="M61.5,35.3c-0.5,0-1-0.4-1-1c0-0.5,0.4-1,1-1s1,0.4,1,1C62.5,34.8,62.1,35.3,61.5,35.3z"/>
			<path fill="#575756" d="M61.5,33.4c0.5,0,0.9,0.4,0.9,0.9s-0.4,0.9-0.9,0.9c-0.5,0-0.9-0.4-0.9-0.9S61,33.4,61.5,33.4 M61.5,33.2
				c-0.6,0-1.1,0.5-1.1,1.1s0.5,1.1,1.1,1.1c0.6,0,1.1-0.5,1.1-1.1S62.1,33.2,61.5,33.2L61.5,33.2z"/>
		</g>
		<g>
			<path fill="#575756" d="M61.5,39.5c-0.5,0-1-0.4-1-1s0.4-1,1-1s1,0.4,1,1S62.1,39.5,61.5,39.5z"/>
			<path fill="#575756" d="M61.5,37.7c0.5,0,0.9,0.4,0.9,0.9c0,0.5-0.4,0.9-0.9,0.9c-0.5,0-0.9-0.4-0.9-0.9
				C60.6,38.1,61,37.7,61.5,37.7 M61.5,37.4c-0.6,0-1.1,0.5-1.1,1.1c0,0.6,0.5,1.1,1.1,1.1c0.6,0,1.1-0.5,1.1-1.1
				C62.6,37.9,62.1,37.4,61.5,37.4L61.5,37.4z"/>
		</g>
		<g>
			<path fill="#575756" d="M57.8,39.5c-0.5,0-1-0.4-1-1s0.4-1,1-1s1,0.4,1,1S58.4,39.5,57.8,39.5z"/>
			<path fill="#575756" d="M57.8,37.7c0.5,0,0.9,0.4,0.9,0.9c0,0.5-0.4,0.9-0.9,0.9c-0.5,0-0.9-0.4-0.9-0.9
				C57,38.1,57.4,37.7,57.8,37.7 M57.8,37.4c-0.6,0-1.1,0.5-1.1,1.1c0,0.6,0.5,1.1,1.1,1.1c0.6,0,1.1-0.5,1.1-1.1
				C59,37.9,58.5,37.4,57.8,37.4L57.8,37.4z"/>
		</g>
		<g>
			<path fill="#575756" d="M58.2,35.4c-0.5,0-1-0.4-1-1c0-0.5,0.4-1,1-1s1,0.4,1,1C59.2,35,58.8,35.4,58.2,35.4z"/>
			<path fill="#575756" d="M58.2,33.5c0.5,0,0.9,0.4,0.9,0.9s-0.4,0.9-0.9,0.9c-0.5,0-0.9-0.4-0.9-0.9S57.7,33.5,58.2,33.5
				 M58.2,33.3c-0.6,0-1.1,0.5-1.1,1.1s0.5,1.1,1.1,1.1c0.6,0,1.1-0.5,1.1-1.1S58.8,33.3,58.2,33.3L58.2,33.3z"/>
		</g>
		<g>
			<path fill="#575756" d="M57.8,31.2c-0.5,0-1-0.4-1-1c0-0.5,0.4-1,1-1s1,0.4,1,1C58.8,30.8,58.4,31.2,57.8,31.2z"/>
			<path fill="#575756" d="M57.8,29.3c0.5,0,0.9,0.4,0.9,0.9c0,0.5-0.4,0.9-0.9,0.9c-0.5,0-0.9-0.4-0.9-0.9
				C57,29.7,57.4,29.3,57.8,29.3 M57.8,29.1c-0.6,0-1.1,0.5-1.1,1.1c0,0.6,0.5,1.1,1.1,1.1c0.6,0,1.1-0.5,1.1-1.1
				C59,29.6,58.5,29.1,57.8,29.1L57.8,29.1z"/>
		</g>
		<g>
			<path fill="#575756" d="M56.5,26.8c-0.5,0-1-0.4-1-1c0-0.5,0.4-1,1-1s1,0.4,1,1C57.5,26.3,57,26.8,56.5,26.8z"/>
			<path fill="#575756" d="M56.5,24.9c0.5,0,0.9,0.4,0.9,0.9c0,0.5-0.4,0.9-0.9,0.9s-0.9-0.4-0.9-0.9C55.6,25.3,56,24.9,56.5,24.9
				 M56.5,24.7c-0.6,0-1.1,0.5-1.1,1.1c0,0.6,0.5,1.1,1.1,1.1s1.1-0.5,1.1-1.1C57.6,25.2,57.1,24.7,56.5,24.7L56.5,24.7z"/>
		</g>
		<g>
			<path fill="#575756" d="M53.2,26.8c-0.5,0-1-0.4-1-1c0-0.5,0.4-1,1-1s1,0.4,1,1C54.1,26.3,53.7,26.8,53.2,26.8z"/>
			<path fill="#575756" d="M53.2,24.9c0.5,0,0.9,0.4,0.9,0.9c0,0.5-0.4,0.9-0.9,0.9c-0.5,0-0.9-0.4-0.9-0.9
				C52.3,25.3,52.7,24.9,53.2,24.9 M53.2,24.7c-0.6,0-1.1,0.5-1.1,1.1c0,0.6,0.5,1.1,1.1,1.1c0.6,0,1.1-0.5,1.1-1.1
				C54.3,25.2,53.8,24.7,53.2,24.7L53.2,24.7z"/>
		</g>
		<g>
			<path fill="#575756" d="M54,31c-0.5,0-1-0.4-1-1c0-0.5,0.4-1,1-1s1,0.4,1,1C55,30.6,54.6,31,54,31z"/>
			<path fill="#575756" d="M54,29.2c0.5,0,0.9,0.4,0.9,0.9s-0.4,0.9-0.9,0.9c-0.5,0-0.9-0.4-0.9-0.9S53.5,29.2,54,29.2 M54,28.9
				c-0.6,0-1.1,0.5-1.1,1.1s0.5,1.1,1.1,1.1c0.6,0,1.1-0.5,1.1-1.1S54.6,28.9,54,28.9L54,28.9z"/>
		</g>
		<g>
			<path fill="#575756" d="M54.8,35.1c-0.5,0-1-0.4-1-1c0-0.5,0.4-1,1-1s1,0.4,1,1C55.8,34.7,55.3,35.1,54.8,35.1z"/>
			<path fill="#575756" d="M54.8,33.3c0.5,0,0.9,0.4,0.9,0.9c0,0.5-0.4,0.9-0.9,0.9c-0.5,0-0.9-0.4-0.9-0.9
				C53.9,33.6,54.3,33.3,54.8,33.3 M54.8,33c-0.6,0-1.1,0.5-1.1,1.1c0,0.6,0.5,1.1,1.1,1.1c0.6,0,1.1-0.5,1.1-1.1
				C55.9,33.5,55.4,33,54.8,33L54.8,33z"/>
		</g>
		<g>
			<path fill="#575756" d="M50.8,23.3c-0.5,0-1-0.4-1-1c0-0.5,0.4-1,1-1s1,0.4,1,1C51.8,22.8,51.3,23.3,50.8,23.3z"/>
			<path fill="#575756" d="M50.8,21.4c0.5,0,0.9,0.4,0.9,0.9c0,0.5-0.4,0.9-0.9,0.9s-0.9-0.4-0.9-0.9C49.9,21.8,50.3,21.4,50.8,21.4
				 M50.8,21.2c-0.6,0-1.1,0.5-1.1,1.1c0,0.6,0.5,1.1,1.1,1.1s1.1-0.5,1.1-1.1C51.9,21.7,51.4,21.2,50.8,21.2L50.8,21.2z"/>
		</g>
		<g>
			<path fill="#575756" d="M49,26.8c-0.5,0-1-0.4-1-1c0-0.5,0.4-1,1-1s1,0.4,1,1C49.9,26.3,49.5,26.8,49,26.8z"/>
			<path fill="#575756" d="M49,24.9c0.5,0,0.9,0.4,0.9,0.9c0,0.5-0.4,0.9-0.9,0.9c-0.5,0-0.9-0.4-0.9-0.9
				C48.1,25.3,48.5,24.9,49,24.9 M49,24.7c-0.6,0-1.1,0.5-1.1,1.1c0,0.6,0.5,1.1,1.1,1.1c0.6,0,1.1-0.5,1.1-1.1
				C50.1,25.2,49.6,24.7,49,24.7L49,24.7z"/>
		</g>
		<g>
			<path fill="#575756" d="M50.8,31c-0.5,0-1-0.4-1-1c0-0.5,0.4-1,1-1s1,0.4,1,1C51.8,30.6,51.3,31,50.8,31z"/>
			<path fill="#575756" d="M50.8,29.2c0.5,0,0.9,0.4,0.9,0.9s-0.4,0.9-0.9,0.9s-0.9-0.4-0.9-0.9S50.3,29.2,50.8,29.2 M50.8,28.9
				c-0.6,0-1.1,0.5-1.1,1.1s0.5,1.1,1.1,1.1s1.1-0.5,1.1-1.1S51.4,28.9,50.8,28.9L50.8,28.9z"/>
		</g>
		<g>
			<path fill="#575756" d="M46.7,23.7c-0.5,0-1-0.4-1-1c0-0.5,0.4-1,1-1s1,0.4,1,1C47.7,23.3,47.3,23.7,46.7,23.7z"/>
			<path fill="#575756" d="M46.7,21.9c0.5,0,0.9,0.4,0.9,0.9c0,0.5-0.4,0.9-0.9,0.9s-0.9-0.4-0.9-0.9C45.9,22.2,46.3,21.9,46.7,21.9
				 M46.7,21.6c-0.6,0-1.1,0.5-1.1,1.1c0,0.6,0.5,1.1,1.1,1.1c0.6,0,1.1-0.5,1.1-1.1C47.9,22.1,47.4,21.6,46.7,21.6L46.7,21.6z"/>
		</g>
		<g>
			<path fill="#575756" d="M44.4,20.7c-0.5,0-1-0.4-1-1s0.4-1,1-1s1,0.4,1,1S44.9,20.7,44.4,20.7z"/>
			<path fill="#575756" d="M44.4,18.9c0.5,0,0.9,0.4,0.9,0.9c0,0.5-0.4,0.9-0.9,0.9c-0.5,0-0.9-0.4-0.9-0.9
				C43.5,19.3,43.9,18.9,44.4,18.9 M44.4,18.6c-0.6,0-1.1,0.5-1.1,1.1c0,0.6,0.5,1.1,1.1,1.1c0.6,0,1.1-0.5,1.1-1.1
				C45.5,19.1,45,18.6,44.4,18.6L44.4,18.6z"/>
		</g>
		<g>
			<path fill="#575756" d="M48.1,19.9c-0.5,0-1-0.4-1-1c0-0.5,0.4-1,1-1s1,0.4,1,1C49.1,19.4,48.6,19.9,48.1,19.9z"/>
			<path fill="#575756" d="M48.1,18c0.5,0,0.9,0.4,0.9,0.9c0,0.5-0.4,0.9-0.9,0.9s-0.9-0.4-0.9-0.9C47.2,18.4,47.6,18,48.1,18
				 M48.1,17.8c-0.6,0-1.1,0.5-1.1,1.1c0,0.6,0.5,1.1,1.1,1.1s1.1-0.5,1.1-1.1C49.2,18.3,48.7,17.8,48.1,17.8L48.1,17.8z"/>
		</g>
		<g>
			<path fill="#575756" d="M44.4,17.4c-0.5,0-1-0.4-1-1c0-0.5,0.4-1,1-1s1,0.4,1,1C45.4,17,44.9,17.4,44.4,17.4z"/>
			<path fill="#575756" d="M44.4,15.5c0.5,0,0.9,0.4,0.9,0.9c0,0.5-0.4,0.9-0.9,0.9c-0.5,0-0.9-0.4-0.9-0.9
				C43.5,15.9,43.9,15.5,44.4,15.5 M44.4,15.3c-0.6,0-1.1,0.5-1.1,1.1c0,0.6,0.5,1.1,1.1,1.1c0.6,0,1.1-0.5,1.1-1.1
				C45.5,15.8,45,15.3,44.4,15.3L44.4,15.3z"/>
		</g>
	</g>
	<g>
		<g>
			<path fill="#575756" d="M10.1,30.6c-0.4,0-0.7-0.2-0.9-0.5c-0.1-0.2-0.2-0.5-0.1-0.8c0.1-0.3,0.2-0.5,0.5-0.6
				c0.1-0.1,0.3-0.1,0.5-0.1c0.4,0,0.7,0.2,0.9,0.5c0.1,0.2,0.2,0.5,0.1,0.8c-0.1,0.3-0.2,0.5-0.5,0.6
				C10.4,30.6,10.3,30.6,10.1,30.6z"/>
			<path fill="#575756" d="M10.1,28.8c0.3,0,0.6,0.2,0.8,0.5c0.2,0.4,0.1,0.9-0.4,1.2c-0.1,0.1-0.3,0.1-0.4,0.1
				c-0.3,0-0.6-0.2-0.8-0.5c-0.2-0.4-0.1-0.9,0.4-1.2C9.8,28.8,10,28.8,10.1,28.8 M10.1,28.5c-0.2,0-0.4,0-0.5,0.1
				c-0.3,0.1-0.5,0.4-0.5,0.7C9,29.6,9,29.9,9.1,30.2c0.2,0.4,0.6,0.6,1,0.6c0.2,0,0.4,0,0.5-0.1c0.3-0.1,0.5-0.4,0.5-0.7
				c0.1-0.3,0.1-0.6-0.1-0.8C10.9,28.7,10.5,28.5,10.1,28.5L10.1,28.5z"/>
		</g>
		<g>
			<path fill="#575756" d="M9.9,35.3c-0.4,0-0.7-0.2-0.9-0.5c-0.3-0.5-0.1-1.1,0.4-1.3c0.1-0.1,0.3-0.1,0.5-0.1
				c0.4,0,0.7,0.2,0.9,0.5c0.3,0.5,0.1,1.1-0.4,1.3C10.2,35.2,10.1,35.3,9.9,35.3z"/>
			<path fill="#575756" d="M9.9,33.4c0.3,0,0.6,0.2,0.8,0.5c0.2,0.4,0.1,0.9-0.4,1.2c-0.1,0.1-0.3,0.1-0.4,0.1
				c-0.3,0-0.6-0.2-0.8-0.5c-0.2-0.4-0.1-0.9,0.4-1.2C9.6,33.4,9.8,33.4,9.9,33.4 M9.9,33.2L9.9,33.2c-0.2,0-0.4,0-0.5,0.1
				c-0.5,0.3-0.7,1-0.5,1.5c0.2,0.4,0.6,0.6,1,0.6c0.2,0,0.4,0,0.5-0.1c0.5-0.3,0.7-1,0.5-1.5C10.7,33.4,10.3,33.2,9.9,33.2
				L9.9,33.2z"/>
		</g>
		<g>
			<path fill="#575756" d="M10.1,39.3c-0.4,0-0.7-0.2-0.9-0.5c-0.3-0.5-0.1-1.1,0.4-1.3c0.1-0.1,0.3-0.1,0.5-0.1
				c0.4,0,0.7,0.2,0.9,0.5c0.3,0.5,0.1,1.1-0.4,1.3C10.4,39.3,10.3,39.3,10.1,39.3z"/>
			<path fill="#575756" d="M10.1,37.5c0.3,0,0.6,0.2,0.8,0.5c0.2,0.4,0.1,0.9-0.4,1.2c-0.1,0.1-0.3,0.1-0.4,0.1
				c-0.3,0-0.6-0.2-0.8-0.5c-0.2-0.4-0.1-0.9,0.4-1.2C9.8,37.5,10,37.5,10.1,37.5 M10.1,37.2C10.1,37.2,10.1,37.2,10.1,37.2
				c-0.2,0-0.4,0-0.5,0.1c-0.5,0.3-0.7,1-0.5,1.5c0.2,0.4,0.6,0.6,1,0.6c0.2,0,0.4,0,0.5-0.1c0.3-0.1,0.5-0.4,0.5-0.7
				c0.1-0.3,0.1-0.6-0.1-0.8C10.9,37.4,10.5,37.2,10.1,37.2L10.1,37.2z"/>
		</g>
		<g>
			<path fill="#575756" d="M6.9,40.1c-0.4,0-0.7-0.2-0.9-0.5c-0.3-0.5-0.1-1.1,0.4-1.3c0.1-0.1,0.3-0.1,0.5-0.1
				c0.4,0,0.7,0.2,0.9,0.5C8,39.1,7.8,39.7,7.3,40C7.2,40,7,40.1,6.9,40.1z"/>
			<path fill="#575756" d="M6.9,38.2c0.3,0,0.6,0.2,0.8,0.5c0.2,0.4,0.1,0.9-0.4,1.2c-0.1,0.1-0.3,0.1-0.4,0.1
				c-0.3,0-0.6-0.2-0.8-0.5c-0.2-0.4-0.1-0.9,0.4-1.2C6.6,38.2,6.7,38.2,6.9,38.2 M6.9,38c-0.2,0-0.4,0-0.5,0.1
				c-0.3,0.1-0.5,0.4-0.5,0.7c-0.1,0.3-0.1,0.6,0.1,0.8c0.2,0.4,0.6,0.6,1,0.6c0.2,0,0.4,0,0.5-0.1c0.5-0.3,0.7-1,0.5-1.5
				C7.6,38.2,7.3,38,6.9,38L6.9,38z"/>
		</g>
		<g>
			<path fill="#575756" d="M6.4,35.6c-0.4,0-0.7-0.2-0.9-0.5C5.3,34.6,5.5,34,6,33.8c0.1-0.1,0.3-0.1,0.5-0.1c0.4,0,0.7,0.2,0.9,0.5
				c0.3,0.5,0.1,1.1-0.4,1.3C6.8,35.6,6.6,35.6,6.4,35.6z"/>
			<path fill="#575756" d="M6.4,33.8c0.3,0,0.6,0.2,0.8,0.5c0.2,0.4,0.1,0.9-0.4,1.2c-0.1,0.1-0.3,0.1-0.4,0.1
				c-0.3,0-0.6-0.2-0.8-0.5c-0.2-0.4-0.1-0.9,0.4-1.2C6.2,33.8,6.3,33.8,6.4,33.8 M6.4,33.5L6.4,33.5c-0.2,0-0.4,0-0.5,0.1
				c-0.5,0.3-0.7,1-0.5,1.5c0.2,0.4,0.6,0.6,1,0.6c0.2,0,0.4,0,0.5-0.1c0.5-0.3,0.7-1,0.5-1.5C7.2,33.8,6.9,33.5,6.4,33.5L6.4,33.5z
				"/>
		</g>
		<g>
			<path fill="#575756" d="M6.6,31.5c-0.4,0-0.7-0.2-0.9-0.5c-0.3-0.5-0.1-1.1,0.4-1.3c0.1-0.1,0.3-0.1,0.5-0.1
				c0.4,0,0.7,0.2,0.9,0.5c0.3,0.5,0.1,1.1-0.4,1.3C6.9,31.5,6.7,31.5,6.6,31.5z"/>
			<path fill="#575756" d="M6.6,29.7c0.3,0,0.6,0.2,0.8,0.5c0.2,0.4,0.1,0.9-0.4,1.2c-0.1,0.1-0.3,0.1-0.4,0.1
				c-0.3,0-0.6-0.2-0.8-0.5c-0.2-0.4-0.1-0.9,0.4-1.2C6.3,29.7,6.4,29.7,6.6,29.7 M6.6,29.4c-0.2,0-0.4,0-0.5,0.1
				c-0.3,0.1-0.5,0.4-0.5,0.7s-0.1,0.6,0.1,0.8c0.2,0.4,0.6,0.6,1,0.6c0.2,0,0.4,0,0.5-0.1c0.5-0.3,0.7-1,0.5-1.5
				C7.4,29.7,7,29.4,6.6,29.4L6.6,29.4z"/>
		</g>
		<g>
			<path fill="#575756" d="M7.4,27.3c-0.4,0-0.7-0.2-0.9-0.5c-0.3-0.5-0.1-1.1,0.4-1.3c0.1-0.1,0.3-0.1,0.5-0.1
				c0.4,0,0.7,0.2,0.9,0.5c0.3,0.5,0.1,1.1-0.4,1.3C7.7,27.3,7.5,27.3,7.4,27.3z"/>
			<path fill="#575756" d="M7.4,25.5c0.3,0,0.6,0.2,0.8,0.5c0.2,0.4,0.1,0.9-0.4,1.2c-0.1,0.1-0.3,0.1-0.4,0.1
				c-0.3,0-0.6-0.2-0.8-0.5c-0.2-0.4-0.1-0.9,0.4-1.2C7.1,25.5,7.2,25.5,7.4,25.5 M7.4,25.2C7.4,25.2,7.4,25.2,7.4,25.2
				c-0.2,0-0.4,0-0.5,0.1c-0.5,0.3-0.7,1-0.5,1.5c0.2,0.4,0.6,0.6,1,0.6c0.2,0,0.4,0,0.5-0.1c0.5-0.3,0.7-1,0.5-1.5
				C8.2,25.5,7.8,25.2,7.4,25.2L7.4,25.2z"/>
		</g>
		<g>
			<path fill="#575756" d="M9.1,23.2c-0.4,0-0.7-0.2-0.9-0.5c-0.3-0.5-0.1-1.1,0.4-1.3c0.1-0.1,0.3-0.1,0.5-0.1
				c0.4,0,0.7,0.2,0.9,0.5c0.3,0.5,0.1,1.1-0.4,1.3C9.4,23.1,9.2,23.2,9.1,23.2z"/>
			<path fill="#575756" d="M9.1,21.3c0.3,0,0.6,0.2,0.8,0.5c0.2,0.4,0.1,0.9-0.4,1.2C9.3,23,9.2,23,9.1,23c-0.3,0-0.6-0.2-0.8-0.5
				c-0.2-0.4-0.1-0.9,0.4-1.2C8.8,21.4,8.9,21.3,9.1,21.3 M9.1,21.1c-0.2,0-0.4,0-0.5,0.1c-0.3,0.1-0.5,0.4-0.5,0.7
				c-0.1,0.3-0.1,0.6,0.1,0.8c0.2,0.4,0.6,0.6,1,0.6c0.2,0,0.4,0,0.5-0.1c0.5-0.3,0.7-1,0.5-1.5C9.9,21.3,9.5,21.1,9.1,21.1
				L9.1,21.1z"/>
		</g>
		<g>
			<path fill="#575756" d="M11.4,26.7c-0.4,0-0.7-0.2-0.9-0.5c-0.3-0.5-0.1-1.1,0.4-1.3c0.1-0.1,0.3-0.1,0.5-0.1
				c0.4,0,0.7,0.2,0.9,0.5c0.3,0.5,0.1,1.1-0.4,1.3C11.7,26.6,11.6,26.7,11.4,26.7z"/>
			<path fill="#575756" d="M11.4,24.8c0.3,0,0.6,0.2,0.8,0.5c0.2,0.4,0.1,0.9-0.4,1.2c-0.1,0.1-0.3,0.1-0.4,0.1
				c-0.3,0-0.6-0.2-0.8-0.5c-0.2-0.4-0.1-0.9,0.4-1.2C11.1,24.9,11.3,24.8,11.4,24.8 M11.4,24.6C11.4,24.6,11.4,24.6,11.4,24.6
				c-0.2,0-0.4,0-0.5,0.1c-0.5,0.3-0.7,1-0.5,1.5c0.2,0.4,0.6,0.6,1,0.6c0.2,0,0.4,0,0.5-0.1c0.3-0.1,0.5-0.4,0.5-0.7
				c0.1-0.3,0.1-0.6-0.1-0.8C12.2,24.8,11.8,24.6,11.4,24.6L11.4,24.6z"/>
		</g>
		<g>
			<path fill="#575756" d="M13.3,22.9c-0.4,0-0.7-0.2-0.9-0.5c-0.1-0.2-0.2-0.5-0.1-0.8c0.1-0.3,0.2-0.5,0.5-0.6
				c0.1-0.1,0.3-0.1,0.5-0.1c0.4,0,0.7,0.2,0.9,0.5c0.3,0.5,0.1,1.1-0.4,1.3C13.6,22.8,13.4,22.9,13.3,22.9z"/>
			<path fill="#575756" d="M13.3,21c0.3,0,0.6,0.2,0.8,0.5c0.2,0.4,0.1,0.9-0.4,1.2c-0.1,0.1-0.3,0.1-0.4,0.1
				c-0.3,0-0.6-0.2-0.8-0.5c-0.2-0.4-0.1-0.9,0.4-1.2C13,21.1,13.1,21,13.3,21 M13.3,20.8L13.3,20.8c-0.2,0-0.4,0-0.5,0.1
				c-0.5,0.3-0.7,1-0.5,1.5c0.2,0.4,0.6,0.6,1,0.6c0.2,0,0.4,0,0.5-0.1c0.3-0.1,0.5-0.4,0.5-0.7c0.1-0.3,0.1-0.6-0.1-0.8
				C14,21,13.7,20.8,13.3,20.8L13.3,20.8z"/>
		</g>
		<g>
			<path fill="#575756" d="M11.4,19.4c-0.4,0-0.7-0.2-0.9-0.5c-0.3-0.5-0.1-1.1,0.4-1.3c0.1-0.1,0.3-0.1,0.5-0.1
				c0.4,0,0.7,0.2,0.9,0.5c0.3,0.5,0.1,1.1-0.4,1.3C11.7,19.4,11.6,19.4,11.4,19.4z"/>
			<path fill="#575756" d="M11.4,17.6c0.3,0,0.6,0.2,0.8,0.5c0.2,0.4,0.1,0.9-0.4,1.2c-0.1,0.1-0.3,0.1-0.4,0.1
				c-0.3,0-0.6-0.2-0.8-0.5c-0.2-0.4-0.1-0.9,0.4-1.2C11.1,17.6,11.3,17.6,11.4,17.6 M11.4,17.3L11.4,17.3c-0.2,0-0.4,0-0.5,0.1
				c-0.5,0.3-0.7,1-0.5,1.5c0.2,0.4,0.6,0.6,1,0.6c0.2,0,0.4,0,0.5-0.1c0.5-0.3,0.7-1,0.5-1.5C12.2,17.5,11.8,17.3,11.4,17.3
				L11.4,17.3z"/>
		</g>
		<g>
			<path fill="#575756" d="M14.1,16c-0.4,0-0.7-0.2-0.9-0.5c-0.3-0.5-0.1-1.1,0.4-1.3c0.1-0.1,0.3-0.1,0.5-0.1
				c0.4,0,0.7,0.2,0.9,0.5c0.3,0.5,0.1,1.1-0.4,1.3C14.4,16,14.2,16,14.1,16z"/>
			<path fill="#575756" d="M14.1,14.2c0.3,0,0.6,0.2,0.8,0.5c0.2,0.4,0.1,0.9-0.4,1.2c-0.1,0.1-0.3,0.1-0.4,0.1
				c-0.3,0-0.6-0.2-0.8-0.5c-0.2-0.4-0.1-0.9,0.4-1.2C13.8,14.2,13.9,14.2,14.1,14.2 M14.1,13.9C14.1,13.9,14.1,13.9,14.1,13.9
				c-0.2,0-0.4,0-0.5,0.1c-0.5,0.3-0.7,1-0.5,1.5c0.2,0.4,0.6,0.6,1,0.6c0.2,0,0.4,0,0.5-0.1c0.5-0.3,0.7-1,0.5-1.5
				C14.8,14.2,14.5,13.9,14.1,13.9L14.1,13.9z"/>
		</g>
		<g>
			<path fill="#575756" d="M17.4,13.3c-0.4,0-0.7-0.2-0.9-0.5c-0.1-0.2-0.2-0.5-0.1-0.8c0.1-0.3,0.2-0.5,0.5-0.6
				c0.1-0.1,0.3-0.1,0.5-0.1c0.4,0,0.7,0.2,0.9,0.5c0.1,0.2,0.2,0.5,0.1,0.8c-0.1,0.3-0.2,0.5-0.5,0.6
				C17.7,13.2,17.5,13.3,17.4,13.3z"/>
			<path fill="#575756" d="M17.4,11.4c0.3,0,0.6,0.2,0.8,0.5c0.2,0.4,0.1,0.9-0.4,1.2c-0.1,0.1-0.3,0.1-0.4,0.1
				c-0.3,0-0.6-0.2-0.8-0.5c-0.2-0.4-0.1-0.9,0.4-1.2C17.1,11.5,17.2,11.4,17.4,11.4 M17.4,11.2L17.4,11.2c-0.2,0-0.4,0-0.5,0.1
				c-0.5,0.3-0.7,1-0.5,1.5c0.2,0.4,0.6,0.6,1,0.6c0.2,0,0.4,0,0.5-0.1c0.5-0.3,0.7-1,0.5-1.5C18.2,11.4,17.8,11.2,17.4,11.2
				L17.4,11.2z"/>
		</g>
		<g>
			<path fill="#575756" d="M21,11.1c-0.4,0-0.7-0.2-0.9-0.5c-0.1-0.2-0.2-0.5-0.1-0.8c0.1-0.3,0.2-0.5,0.5-0.6
				c0.1-0.1,0.3-0.1,0.5-0.1c0.4,0,0.7,0.2,0.9,0.5c0.3,0.5,0.1,1.1-0.4,1.3C21.4,11,21.2,11.1,21,11.1z"/>
			<path fill="#575756" d="M21,9.2c0.3,0,0.6,0.2,0.8,0.5c0.2,0.4,0.1,0.9-0.4,1.2C21.3,10.9,21.2,11,21,11c-0.3,0-0.6-0.2-0.8-0.5
				c-0.2-0.4-0.1-0.9,0.4-1.2C20.8,9.3,20.9,9.2,21,9.2 M21,9c-0.2,0-0.4,0-0.5,0.1c-0.3,0.1-0.5,0.4-0.5,0.7s-0.1,0.6,0.1,0.8
				c0.2,0.4,0.6,0.6,1,0.6c0.2,0,0.4,0,0.5-0.1c0.5-0.3,0.7-1,0.5-1.5C21.8,9.2,21.5,9,21,9L21,9z"/>
		</g>
		<g>
			<path fill="#575756" d="M24.8,9.1c-0.4,0-0.7-0.2-0.9-0.5c-0.3-0.5-0.1-1.1,0.4-1.3c0.1-0.1,0.3-0.1,0.5-0.1
				c0.4,0,0.7,0.2,0.9,0.5c0.1,0.2,0.2,0.5,0.1,0.8c-0.1,0.3-0.2,0.5-0.5,0.6C25.1,9,25,9.1,24.8,9.1z"/>
			<path fill="#575756" d="M24.8,7.2c0.3,0,0.6,0.2,0.8,0.5c0.2,0.4,0.1,0.9-0.4,1.2c-0.1,0.1-0.3,0.1-0.4,0.1
				c-0.3,0-0.6-0.2-0.8-0.5c-0.2-0.4-0.1-0.9,0.4-1.2C24.5,7.2,24.7,7.2,24.8,7.2 M24.8,7L24.8,7c-0.2,0-0.4,0-0.5,0.1
				c-0.3,0.1-0.5,0.4-0.5,0.7c-0.1,0.3-0.1,0.6,0.1,0.8c0.2,0.4,0.6,0.6,1,0.6c0.2,0,0.4,0,0.5-0.1c0.5-0.3,0.7-1,0.5-1.5
				C25.6,7.2,25.2,7,24.8,7L24.8,7z"/>
		</g>
		<g>
			<path fill="#575756" d="M26.5,12.3c-0.4,0-0.7-0.2-0.9-0.5c-0.3-0.5-0.1-1.1,0.4-1.3c0.1-0.1,0.3-0.1,0.5-0.1
				c0.4,0,0.7,0.2,0.9,0.5c0.3,0.5,0.1,1.1-0.4,1.3C26.9,12.3,26.7,12.3,26.5,12.3z"/>
			<path fill="#575756" d="M26.5,10.4c0.3,0,0.6,0.2,0.8,0.5c0.2,0.4,0.1,0.9-0.4,1.2c-0.1,0.1-0.3,0.1-0.4,0.1
				c-0.3,0-0.6-0.2-0.8-0.5c-0.2-0.4-0.1-0.9,0.4-1.2C26.3,10.5,26.4,10.4,26.5,10.4 M26.5,10.2C26.5,10.2,26.5,10.2,26.5,10.2
				c-0.2,0-0.4,0-0.5,0.1c-0.5,0.3-0.7,1-0.5,1.5c0.2,0.4,0.6,0.6,1,0.6c0.2,0,0.4,0,0.5-0.1c0.3-0.1,0.5-0.4,0.5-0.7
				c0.1-0.3,0.1-0.6-0.1-0.8C27.3,10.4,26.9,10.2,26.5,10.2L26.5,10.2z"/>
		</g>
		<g>
			<path fill="#575756" d="M22.7,13.9c-0.4,0-0.7-0.2-0.9-0.5c-0.3-0.5-0.1-1.1,0.4-1.3c0.1-0.1,0.3-0.1,0.5-0.1
				c0.4,0,0.7,0.2,0.9,0.5c0.3,0.5,0.1,1.1-0.4,1.3C23,13.9,22.9,13.9,22.7,13.9z"/>
			<path fill="#575756" d="M22.7,12.1c0.3,0,0.6,0.2,0.8,0.5c0.2,0.4,0.1,0.9-0.4,1.2c-0.1,0.1-0.3,0.1-0.4,0.1
				c-0.3,0-0.6-0.2-0.8-0.5c-0.2-0.4-0.1-0.9,0.4-1.2C22.4,12.1,22.6,12.1,22.7,12.1 M22.7,11.8c-0.2,0-0.4,0-0.5,0.1
				c-0.3,0.1-0.5,0.4-0.5,0.7c-0.1,0.3-0.1,0.6,0.1,0.8c0.2,0.4,0.6,0.6,1,0.6c0.2,0,0.4,0,0.5-0.1c0.5-0.3,0.7-1,0.5-1.5
				C23.5,12,23.1,11.8,22.7,11.8L22.7,11.8z"/>
		</g>
		<g>
			<path fill="#575756" d="M19.2,16.2c-0.4,0-0.7-0.2-0.9-0.5c-0.3-0.5-0.1-1.1,0.4-1.3c0.1-0.1,0.3-0.1,0.5-0.1
				c0.4,0,0.7,0.2,0.9,0.5c0.3,0.5,0.1,1.1-0.4,1.3C19.5,16.2,19.3,16.2,19.2,16.2z"/>
			<path fill="#575756" d="M19.2,14.4c0.3,0,0.6,0.2,0.8,0.5c0.2,0.4,0.1,0.9-0.4,1.2c-0.1,0.1-0.3,0.1-0.4,0.1
				c-0.3,0-0.6-0.2-0.8-0.5c-0.2-0.4-0.1-0.9,0.4-1.2C18.9,14.4,19,14.4,19.2,14.4 M19.2,14.1c-0.2,0-0.4,0-0.5,0.1
				c-0.3,0.1-0.5,0.4-0.5,0.7c-0.1,0.3-0.1,0.6,0.1,0.8c0.2,0.4,0.6,0.6,1,0.6c0.2,0,0.4,0,0.5-0.1c0.5-0.3,0.7-1,0.5-1.5
				C20,14.4,19.6,14.1,19.2,14.1L19.2,14.1z"/>
		</g>
		<g>
			<path fill="#575756" d="M15.9,19.5c-0.4,0-0.7-0.2-0.9-0.5c-0.3-0.5-0.1-1.1,0.4-1.3c0.1-0.1,0.3-0.1,0.5-0.1
				c0.4,0,0.7,0.2,0.9,0.5c0.3,0.5,0.1,1.1-0.4,1.3C16.2,19.5,16.1,19.5,15.9,19.5z"/>
			<path fill="#575756" d="M15.9,17.7c0.3,0,0.6,0.2,0.8,0.5c0.2,0.4,0.1,0.9-0.4,1.2c-0.1,0.1-0.3,0.1-0.4,0.1
				c-0.3,0-0.6-0.2-0.8-0.5c-0.2-0.4-0.1-0.9,0.4-1.2C15.6,17.7,15.8,17.7,15.9,17.7 M15.9,17.4C15.9,17.4,15.9,17.4,15.9,17.4
				c-0.2,0-0.4,0-0.5,0.1c-0.3,0.1-0.5,0.4-0.5,0.7c-0.1,0.3-0.1,0.6,0.1,0.8c0.2,0.4,0.6,0.6,1,0.6c0.2,0,0.4,0,0.5-0.1
				c0.3-0.1,0.5-0.4,0.5-0.7c0.1-0.3,0.1-0.6-0.1-0.8C16.7,17.6,16.3,17.4,15.9,17.4L15.9,17.4z"/>
		</g>
		<g>
			<path fill="#575756" d="M17.5,22.5c-0.4,0-0.7-0.2-0.9-0.5c-0.1-0.2-0.2-0.5-0.1-0.8c0.1-0.3,0.2-0.5,0.5-0.6
				c0.1-0.1,0.3-0.1,0.5-0.1c0.4,0,0.7,0.2,0.9,0.5c0.1,0.2,0.2,0.5,0.1,0.8c-0.1,0.3-0.2,0.5-0.5,0.6
				C17.8,22.4,17.7,22.5,17.5,22.5z"/>
			<path fill="#575756" d="M17.5,20.6c0.3,0,0.6,0.2,0.8,0.5c0.2,0.4,0.1,0.9-0.4,1.2c-0.1,0.1-0.3,0.1-0.4,0.1
				c-0.3,0-0.6-0.2-0.8-0.5c-0.2-0.4-0.1-0.9,0.4-1.2C17.2,20.6,17.4,20.6,17.5,20.6 M17.5,20.3C17.5,20.3,17.5,20.3,17.5,20.3
				c-0.2,0-0.4,0-0.5,0.1c-0.3,0.1-0.5,0.4-0.5,0.7c-0.1,0.3-0.1,0.6,0.1,0.8c0.2,0.4,0.6,0.6,1,0.6c0.2,0,0.4,0,0.5-0.1
				c0.5-0.3,0.7-1,0.5-1.5C18.3,20.6,17.9,20.3,17.5,20.3L17.5,20.3z"/>
		</g>
		<g>
			<path fill="#575756" d="M20.8,19.7c-0.4,0-0.7-0.2-0.9-0.5c-0.3-0.5-0.1-1.1,0.4-1.3c0.1-0.1,0.3-0.1,0.5-0.1
				c0.4,0,0.7,0.2,0.9,0.5c0.1,0.2,0.2,0.5,0.1,0.8s-0.2,0.5-0.5,0.6C21.1,19.7,21,19.7,20.8,19.7z"/>
			<path fill="#575756" d="M20.8,17.8c0.3,0,0.6,0.2,0.8,0.5c0.2,0.4,0.1,0.9-0.4,1.2c-0.1,0.1-0.3,0.1-0.4,0.1
				c-0.3,0-0.6-0.2-0.8-0.5c-0.2-0.4-0.1-0.9,0.4-1.2C20.5,17.9,20.7,17.8,20.8,17.8 M20.8,17.6L20.8,17.6c-0.2,0-0.4,0-0.5,0.1
				c-0.5,0.3-0.7,1-0.5,1.5c0.2,0.4,0.6,0.6,1,0.6c0.2,0,0.4,0,0.5-0.1c0.3-0.1,0.5-0.4,0.5-0.7c0.1-0.3,0.1-0.6-0.1-0.8
				C21.6,17.8,21.2,17.6,20.8,17.6L20.8,17.6z"/>
		</g>
		<g>
			<path fill="#575756" d="M24.1,17.1c-0.4,0-0.7-0.2-0.9-0.5c-0.3-0.5-0.1-1.1,0.4-1.3c0.1-0.1,0.3-0.1,0.5-0.1
				c0.4,0,0.7,0.2,0.9,0.5c0.3,0.5,0.1,1.1-0.4,1.3C24.4,17.1,24.2,17.1,24.1,17.1z"/>
			<path fill="#575756" d="M24.1,15.2c0.3,0,0.6,0.2,0.8,0.5c0.2,0.4,0.1,0.9-0.4,1.2c-0.1,0.1-0.3,0.1-0.4,0.1
				c-0.3,0-0.6-0.2-0.8-0.5c-0.2-0.4-0.1-0.9,0.4-1.2C23.8,15.3,23.9,15.2,24.1,15.2 M24.1,15C24.1,15,24.1,15,24.1,15
				c-0.2,0-0.4,0-0.5,0.1c-0.5,0.3-0.7,1-0.5,1.5c0.2,0.4,0.6,0.6,1,0.6c0.2,0,0.4,0,0.5-0.1c0.3-0.1,0.5-0.4,0.5-0.7
				c0.1-0.3,0.1-0.6-0.1-0.8C24.9,15.2,24.5,15,24.1,15L24.1,15z"/>
		</g>
		<g>
			<path fill="#575756" d="M15.5,26.2c-0.4,0-0.7-0.2-0.9-0.5c-0.3-0.5-0.1-1.1,0.4-1.3c0.1-0.1,0.3-0.1,0.5-0.1
				c0.4,0,0.7,0.2,0.9,0.5c0.3,0.5,0.1,1.1-0.4,1.3C15.8,26.1,15.7,26.2,15.5,26.2z"/>
			<path fill="#575756" d="M15.5,24.3c0.3,0,0.6,0.2,0.8,0.5c0.2,0.4,0.1,0.9-0.4,1.2c-0.1,0.1-0.3,0.1-0.4,0.1
				c-0.3,0-0.6-0.2-0.8-0.5c-0.2-0.4-0.1-0.9,0.4-1.2C15.2,24.4,15.4,24.3,15.5,24.3 M15.5,24.1L15.5,24.1c-0.2,0-0.4,0-0.5,0.1
				c-0.3,0.1-0.5,0.4-0.5,0.7c-0.1,0.3-0.1,0.6,0.1,0.8c0.2,0.4,0.6,0.6,1,0.6c0.2,0,0.4,0,0.5-0.1c0.5-0.3,0.7-1,0.5-1.5
				C16.3,24.3,15.9,24.1,15.5,24.1L15.5,24.1z"/>
		</g>
		<g>
			<path fill="#575756" d="M19.5,26.2c-0.4,0-0.7-0.2-0.9-0.5c-0.3-0.5-0.1-1.1,0.4-1.3c0.1-0.1,0.3-0.1,0.5-0.1
				c0.4,0,0.7,0.2,0.9,0.5c0.3,0.5,0.1,1.1-0.4,1.3C19.8,26.1,19.6,26.2,19.5,26.2z"/>
			<path fill="#575756" d="M19.5,24.3c0.3,0,0.6,0.2,0.8,0.5c0.2,0.4,0.1,0.9-0.4,1.2C19.8,26,19.6,26,19.5,26
				c-0.3,0-0.6-0.2-0.8-0.5c-0.2-0.4-0.1-0.9,0.4-1.2C19.2,24.3,19.3,24.3,19.5,24.3 M19.5,24.1L19.5,24.1c-0.2,0-0.4,0-0.5,0.1
				c-0.3,0.1-0.5,0.4-0.5,0.7c-0.1,0.3-0.1,0.6,0.1,0.8c0.2,0.4,0.6,0.6,1,0.6c0.2,0,0.4,0,0.5-0.1c0.5-0.3,0.7-1,0.5-1.5
				C20.3,24.3,19.9,24.1,19.5,24.1L19.5,24.1z"/>
		</g>
		<g>
			<path fill="#575756" d="M22.3,22.5c-0.4,0-0.7-0.2-0.9-0.5c-0.3-0.5-0.1-1.1,0.4-1.3c0.1-0.1,0.3-0.1,0.5-0.1
				c0.4,0,0.7,0.2,0.9,0.5c0.1,0.2,0.2,0.5,0.1,0.8c-0.1,0.3-0.2,0.5-0.5,0.6C22.7,22.5,22.5,22.5,22.3,22.5z"/>
			<path fill="#575756" d="M22.3,20.7c0.3,0,0.6,0.2,0.8,0.5c0.2,0.4,0.1,0.9-0.4,1.2c-0.1,0.1-0.3,0.1-0.4,0.1
				c-0.3,0-0.6-0.2-0.8-0.5c-0.2-0.4-0.1-0.9,0.4-1.2C22.1,20.7,22.2,20.7,22.3,20.7 M22.3,20.4c-0.2,0-0.4,0-0.5,0.1
				c-0.3,0.1-0.5,0.4-0.5,0.7c-0.1,0.3-0.1,0.6,0.1,0.8c0.2,0.4,0.6,0.6,1,0.6c0.2,0,0.4,0,0.5-0.1c0.3-0.1,0.5-0.4,0.5-0.7
				c0.1-0.3,0.1-0.6-0.1-0.8C23.1,20.7,22.7,20.4,22.3,20.4L22.3,20.4z"/>
		</g>
		<g>
			<path fill="#575756" d="M17.8,29.6c-0.4,0-0.7-0.2-0.9-0.5c-0.1-0.2-0.2-0.5-0.1-0.8c0.1-0.3,0.2-0.5,0.5-0.6
				c0.1-0.1,0.3-0.1,0.5-0.1c0.4,0,0.7,0.2,0.9,0.5c0.1,0.2,0.2,0.5,0.1,0.8c-0.1,0.3-0.2,0.5-0.5,0.6C18.1,29.5,18,29.6,17.8,29.6z
				"/>
			<path fill="#575756" d="M17.8,27.7c0.3,0,0.6,0.2,0.8,0.5c0.2,0.4,0.1,0.9-0.4,1.2c-0.1,0.1-0.3,0.1-0.4,0.1
				c-0.3,0-0.6-0.2-0.8-0.5c-0.2-0.4-0.1-0.9,0.4-1.2C17.5,27.7,17.7,27.7,17.8,27.7 M17.8,27.4c-0.2,0-0.4,0-0.5,0.1
				c-0.3,0.1-0.5,0.4-0.5,0.7c-0.1,0.3-0.1,0.6,0.1,0.8c0.2,0.4,0.6,0.6,1,0.6c0.2,0,0.4,0,0.5-0.1c0.5-0.3,0.7-1,0.5-1.5
				C18.6,27.7,18.2,27.4,17.8,27.4L17.8,27.4z"/>
		</g>
		<g>
			<path fill="#575756" d="M16.3,33c-0.4,0-0.7-0.2-0.9-0.5c-0.3-0.5-0.1-1.1,0.4-1.3c0.1-0.1,0.3-0.1,0.5-0.1
				c0.4,0,0.7,0.2,0.9,0.5c0.3,0.5,0.1,1.1-0.4,1.3C16.6,33,16.5,33,16.3,33z"/>
			<path fill="#575756" d="M16.3,31.2c0.3,0,0.6,0.2,0.8,0.5c0.2,0.4,0.1,0.9-0.4,1.2c-0.1,0.1-0.3,0.1-0.4,0.1
				c-0.3,0-0.6-0.2-0.8-0.5c-0.2-0.4-0.1-0.9,0.4-1.2C16,31.2,16.2,31.2,16.3,31.2 M16.3,30.9L16.3,30.9c-0.2,0-0.4,0-0.5,0.1
				c-0.5,0.3-0.7,1-0.5,1.5c0.2,0.4,0.6,0.6,1,0.6c0.2,0,0.4,0,0.5-0.1c0.5-0.3,0.7-1,0.5-1.5C17.1,31.2,16.7,30.9,16.3,30.9
				L16.3,30.9z"/>
		</g>
		<g>
			<path fill="#575756" d="M13.8,30.2c-0.4,0-0.7-0.2-0.9-0.5c-0.1-0.2-0.2-0.5-0.1-0.8c0.1-0.3,0.2-0.5,0.5-0.6
				c0.1-0.1,0.3-0.1,0.5-0.1c0.4,0,0.7,0.2,0.9,0.5c0.3,0.5,0.1,1.1-0.4,1.3C14.1,30.1,14,30.2,13.8,30.2z"/>
			<path fill="#575756" d="M13.8,28.3c0.3,0,0.6,0.2,0.8,0.5c0.2,0.4,0.1,0.9-0.4,1.2C14.1,30,13.9,30,13.8,30
				c-0.3,0-0.6-0.2-0.8-0.5c-0.2-0.4-0.1-0.9,0.4-1.2C13.5,28.4,13.7,28.3,13.8,28.3 M13.8,28.1C13.8,28.1,13.8,28.1,13.8,28.1
				c-0.2,0-0.4,0-0.5,0.1c-0.5,0.3-0.7,1-0.5,1.5c0.2,0.4,0.6,0.6,1,0.6c0.2,0,0.4,0,0.5-0.1c0.5-0.3,0.7-1,0.5-1.5
				C14.6,28.3,14.2,28.1,13.8,28.1L13.8,28.1z"/>
		</g>
		<g>
			<path fill="#575756" d="M13.4,34.6c-0.4,0-0.7-0.2-0.9-0.5c-0.3-0.5-0.1-1.1,0.4-1.3c0.1-0.1,0.3-0.1,0.5-0.1
				c0.4,0,0.7,0.2,0.9,0.5c0.3,0.5,0.1,1.1-0.4,1.3C13.7,34.6,13.5,34.6,13.4,34.6z"/>
			<path fill="#575756" d="M13.4,32.8c0.3,0,0.6,0.2,0.8,0.5c0.2,0.4,0.1,0.9-0.4,1.2c-0.1,0.1-0.3,0.1-0.4,0.1
				c-0.3,0-0.6-0.2-0.8-0.5c-0.2-0.4-0.1-0.9,0.4-1.2C13.1,32.8,13.2,32.8,13.4,32.8 M13.4,32.5L13.4,32.5c-0.2,0-0.4,0-0.5,0.1
				c-0.3,0.1-0.5,0.4-0.5,0.7c-0.1,0.3-0.1,0.6,0.1,0.8c0.2,0.4,0.6,0.6,1,0.6c0.2,0,0.4,0,0.5-0.1c0.3-0.1,0.5-0.4,0.5-0.7
				c0.1-0.3,0.1-0.6-0.1-0.8C14.2,32.7,13.8,32.5,13.4,32.5L13.4,32.5z"/>
		</g>
	</g>
	<g>
		<g>
			<path fill="#575756" d="M42.3,58.6c-0.2,0-0.4,0-0.5-0.1c-0.5-0.3-0.6-0.9-0.3-1.4c0.2-0.3,0.5-0.5,0.8-0.5c0.2,0,0.4,0,0.5,0.1
				c0.2,0.1,0.4,0.4,0.4,0.6s0,0.5-0.1,0.7C42.9,58.4,42.6,58.6,42.3,58.6z"/>
			<path fill="#575756" d="M42.3,56.7c0.2,0,0.3,0,0.4,0.1c0.4,0.2,0.5,0.8,0.3,1.2c-0.2,0.3-0.4,0.4-0.7,0.4c-0.2,0-0.3,0-0.4-0.1
				c-0.4-0.2-0.5-0.8-0.3-1.2C41.7,56.9,42,56.7,42.3,56.7 M42.3,56.5C42.3,56.5,42.3,56.5,42.3,56.5c-0.4,0-0.8,0.2-1,0.5
				c-0.2,0.3-0.2,0.6-0.1,0.8c0.1,0.3,0.3,0.5,0.5,0.7c0.2,0.1,0.4,0.2,0.6,0.2c0.4,0,0.8-0.2,1-0.5c0.2-0.3,0.2-0.6,0.1-0.8
				c-0.1-0.3-0.3-0.5-0.5-0.7C42.7,56.5,42.5,56.5,42.3,56.5L42.3,56.5z"/>
		</g>
		<g>
			<path fill="#575756" d="M46.3,56.4c-0.2,0-0.4,0-0.5-0.1c-0.5-0.3-0.6-0.9-0.3-1.4c0.2-0.3,0.5-0.5,0.8-0.5c0.2,0,0.4,0,0.5,0.1
				c0.5,0.3,0.6,0.9,0.3,1.4C47,56.2,46.7,56.4,46.3,56.4z"/>
			<path fill="#575756" d="M46.3,54.5c0.2,0,0.3,0,0.4,0.1c0.4,0.2,0.5,0.8,0.3,1.2c-0.2,0.3-0.4,0.4-0.7,0.4c-0.2,0-0.3,0-0.4-0.1
				c-0.4-0.2-0.5-0.8-0.3-1.2C45.8,54.7,46.1,54.5,46.3,54.5 M46.3,54.3L46.3,54.3c-0.4,0-0.8,0.2-1,0.5c-0.3,0.5-0.1,1.2,0.4,1.5
				c0.2,0.1,0.4,0.2,0.6,0.2c0.4,0,0.8-0.2,1-0.5c0.2-0.3,0.2-0.6,0.1-0.8c-0.1-0.3-0.3-0.5-0.5-0.7C46.7,54.4,46.5,54.3,46.3,54.3
				L46.3,54.3z"/>
		</g>
		<g>
			<path fill="#575756" d="M49.7,54.2c-0.2,0-0.4,0-0.5-0.1c-0.5-0.3-0.6-0.9-0.3-1.4c0.2-0.3,0.5-0.5,0.8-0.5c0.2,0,0.4,0,0.5,0.1
				c0.5,0.3,0.6,0.9,0.3,1.4C50.4,54,50.1,54.2,49.7,54.2z"/>
			<path fill="#575756" d="M49.7,52.3c0.2,0,0.3,0,0.4,0.1c0.4,0.2,0.5,0.8,0.3,1.2C50.3,53.9,50,54,49.7,54c-0.2,0-0.3,0-0.4-0.1
				c-0.4-0.2-0.5-0.8-0.3-1.2C49.1,52.5,49.4,52.3,49.7,52.3 M49.7,52.1L49.7,52.1c-0.4,0-0.8,0.2-1,0.5c-0.2,0.3-0.2,0.6-0.1,0.8
				c0.1,0.3,0.3,0.5,0.5,0.7c0.2,0.1,0.4,0.2,0.6,0.2c0.4,0,0.8-0.2,1-0.5c0.2-0.3,0.2-0.6,0.1-0.8c-0.1-0.3-0.3-0.5-0.5-0.7
				C50.1,52.1,49.9,52.1,49.7,52.1L49.7,52.1z"/>
		</g>
		<g>
			<path fill="#575756" d="M52,56.6c-0.2,0-0.4,0-0.5-0.1c-0.5-0.3-0.6-0.9-0.3-1.4c0.2-0.3,0.5-0.5,0.8-0.5c0.2,0,0.4,0,0.5,0.1
				c0.5,0.3,0.6,0.9,0.3,1.4C52.7,56.4,52.4,56.6,52,56.6z"/>
			<path fill="#575756" d="M52,54.7c0.2,0,0.3,0,0.4,0.1c0.4,0.2,0.5,0.8,0.3,1.2c-0.2,0.3-0.4,0.4-0.7,0.4c-0.2,0-0.3,0-0.4-0.1
				c-0.4-0.2-0.5-0.8-0.3-1.2C51.5,54.9,51.8,54.7,52,54.7 M52,54.5L52,54.5c-0.4,0-0.8,0.2-1,0.5c-0.2,0.3-0.2,0.6-0.1,0.8
				c0.1,0.3,0.3,0.5,0.5,0.7c0.2,0.1,0.4,0.2,0.6,0.2c0.4,0,0.8-0.2,1-0.5c0.2-0.3,0.2-0.6,0.1-0.8c-0.1-0.3-0.3-0.5-0.5-0.7
				C52.4,54.5,52.2,54.5,52,54.5L52,54.5z"/>
		</g>
		<g>
			<path fill="#575756" d="M48.4,59.2c-0.2,0-0.4,0-0.5-0.1c-0.2-0.1-0.4-0.4-0.5-0.6s0-0.5,0.1-0.7c0.2-0.3,0.5-0.5,0.8-0.5
				c0.2,0,0.4,0,0.5,0.1c0.2,0.1,0.4,0.4,0.4,0.6c0.1,0.3,0,0.5-0.1,0.8C49.1,59,48.8,59.2,48.4,59.2z"/>
			<path fill="#575756" d="M48.4,57.3c0.2,0,0.3,0,0.4,0.1c0.4,0.2,0.5,0.8,0.3,1.2c-0.2,0.3-0.4,0.4-0.7,0.4c-0.2,0-0.3,0-0.4-0.1
				c-0.4-0.2-0.5-0.8-0.3-1.2C47.9,57.5,48.2,57.3,48.4,57.3 M48.4,57.1C48.4,57.1,48.4,57.1,48.4,57.1c-0.4,0-0.8,0.2-1,0.5
				c-0.3,0.5-0.1,1.2,0.4,1.5c0.2,0.1,0.4,0.2,0.6,0.2c0.4,0,0.8-0.2,1-0.5c0.2-0.3,0.2-0.6,0.1-0.8c-0.1-0.3-0.3-0.5-0.5-0.7
				C48.8,57.1,48.6,57.1,48.4,57.1L48.4,57.1z"/>
		</g>
		<g>
			<path fill="#575756" d="M44.8,61.2c-0.2,0-0.4,0-0.5-0.1c-0.5-0.3-0.6-0.9-0.3-1.4c0.2-0.3,0.5-0.5,0.8-0.5c0.2,0,0.4,0,0.5,0.1
				c0.5,0.3,0.6,0.9,0.3,1.4C45.5,61,45.2,61.2,44.8,61.2z"/>
			<path fill="#575756" d="M44.8,59.3c0.2,0,0.3,0,0.4,0.1c0.4,0.2,0.5,0.8,0.3,1.2c-0.2,0.3-0.4,0.4-0.7,0.4c-0.2,0-0.3,0-0.4-0.1
				c-0.4-0.2-0.5-0.8-0.3-1.2C44.3,59.5,44.6,59.3,44.8,59.3 M44.8,59.1L44.8,59.1c-0.4,0-0.8,0.2-1,0.5c-0.2,0.3-0.2,0.6-0.1,0.8
				c0.1,0.3,0.3,0.5,0.5,0.7c0.2,0.1,0.4,0.2,0.6,0.2c0.4,0,0.8-0.2,1-0.5c0.3-0.5,0.1-1.2-0.4-1.5C45.2,59.1,45,59.1,44.8,59.1
				L44.8,59.1z"/>
		</g>
		<g>
			<path fill="#575756" d="M40.8,62.6c-0.2,0-0.4,0-0.5-0.1c-0.2-0.1-0.4-0.4-0.5-0.6s0-0.5,0.1-0.7c0.2-0.3,0.5-0.5,0.8-0.5
				c0.2,0,0.4,0,0.5,0.1c0.2,0.1,0.4,0.4,0.5,0.6s0,0.5-0.1,0.7C41.5,62.4,41.2,62.6,40.8,62.6z"/>
			<path fill="#575756" d="M40.8,60.8c0.2,0,0.3,0,0.4,0.1c0.4,0.2,0.5,0.8,0.3,1.2c-0.2,0.3-0.4,0.4-0.7,0.4c-0.2,0-0.3,0-0.4-0.1
				c-0.4-0.2-0.5-0.8-0.3-1.2C40.2,60.9,40.5,60.8,40.8,60.8 M40.8,60.5L40.8,60.5c-0.4,0-0.8,0.2-1,0.5c-0.2,0.3-0.2,0.6-0.1,0.8
				s0.3,0.5,0.5,0.7c0.2,0.1,0.4,0.2,0.6,0.2c0.4,0,0.8-0.2,1-0.5c0.2-0.3,0.2-0.6,0.1-0.8c-0.1-0.3-0.3-0.5-0.5-0.7
				C41.2,60.6,41,60.5,40.8,60.5L40.8,60.5z"/>
		</g>
		<g>
			<path fill="#575756" d="M36.4,63.3c-0.2,0-0.4,0-0.5-0.1c-0.5-0.3-0.6-0.9-0.3-1.4c0.2-0.3,0.5-0.5,0.8-0.5c0.2,0,0.4,0,0.5,0.1
				c0.2,0.1,0.4,0.4,0.5,0.6s0,0.5-0.1,0.7C37.1,63.1,36.7,63.3,36.4,63.3z"/>
			<path fill="#575756" d="M36.4,61.4c0.2,0,0.3,0,0.4,0.1c0.4,0.2,0.5,0.8,0.3,1.2c-0.2,0.3-0.4,0.4-0.7,0.4c-0.2,0-0.3,0-0.4-0.1
				c-0.4-0.2-0.5-0.8-0.3-1.2C35.8,61.6,36.1,61.4,36.4,61.4 M36.4,61.2L36.4,61.2c-0.4,0-0.8,0.2-1,0.5c-0.3,0.5-0.1,1.2,0.4,1.5
				c0.2,0.1,0.4,0.2,0.6,0.2c0.4,0,0.8-0.2,1-0.5c0.2-0.3,0.2-0.6,0.1-0.8c-0.1-0.3-0.3-0.5-0.5-0.7C36.8,61.3,36.6,61.2,36.4,61.2
				L36.4,61.2z"/>
		</g>
		<g>
			<path fill="#575756" d="M38.2,59.5c-0.2,0-0.4,0-0.5-0.1c-0.5-0.3-0.6-0.9-0.3-1.4c0.2-0.3,0.5-0.5,0.8-0.5c0.2,0,0.4,0,0.5,0.1
				c0.2,0.1,0.4,0.4,0.4,0.6s0,0.5-0.1,0.7C38.9,59.3,38.6,59.5,38.2,59.5z"/>
			<path fill="#575756" d="M38.2,57.6c0.2,0,0.3,0,0.4,0.1c0.4,0.2,0.5,0.8,0.3,1.2c-0.2,0.3-0.4,0.4-0.7,0.4c-0.2,0-0.3,0-0.4-0.1
				c-0.4-0.2-0.5-0.8-0.3-1.2C37.6,57.8,37.9,57.6,38.2,57.6 M38.2,57.4L38.2,57.4c-0.4,0-0.8,0.2-1,0.5c-0.2,0.3-0.2,0.6-0.1,0.8
				s0.3,0.5,0.5,0.7c0.2,0.1,0.4,0.2,0.6,0.2c0.4,0,0.8-0.2,1-0.5c0.2-0.3,0.2-0.6,0.1-0.8c-0.1-0.3-0.3-0.5-0.5-0.7
				C38.6,57.4,38.4,57.4,38.2,57.4L38.2,57.4z"/>
		</g>
		<g>
			<path fill="#575756" d="M34,59.8c-0.2,0-0.4,0-0.5-0.1c-0.2-0.1-0.4-0.4-0.4-0.6s0-0.5,0.1-0.7c0.2-0.3,0.5-0.5,0.8-0.5
				c0.2,0,0.4,0,0.5,0.1c0.5,0.3,0.6,0.9,0.3,1.4C34.7,59.7,34.3,59.8,34,59.8z"/>
			<path fill="#575756" d="M34,58c0.2,0,0.3,0,0.4,0.1c0.4,0.2,0.5,0.8,0.3,1.2c-0.2,0.3-0.4,0.4-0.7,0.4c-0.2,0-0.3,0-0.4-0.1
				c-0.4-0.2-0.5-0.8-0.3-1.2C33.4,58.1,33.7,58,34,58 M34,57.7L34,57.7c-0.4,0-0.8,0.2-1,0.5c-0.2,0.3-0.2,0.6-0.1,0.8
				c0.1,0.3,0.3,0.5,0.5,0.7c0.2,0.1,0.4,0.2,0.6,0.2c0.4,0,0.8-0.2,1-0.5c0.2-0.3,0.2-0.6,0.1-0.8c-0.1-0.3-0.3-0.5-0.5-0.7
				C34.4,57.8,34.2,57.7,34,57.7L34,57.7z"/>
		</g>
		<g>
			<path fill="#575756" d="M32,63.2c-0.2,0-0.4,0-0.5-0.1c-0.2-0.1-0.4-0.4-0.4-0.6s0-0.5,0.1-0.7c0.2-0.3,0.5-0.5,0.8-0.5
				c0.2,0,0.4,0,0.5,0.1c0.5,0.3,0.6,0.9,0.3,1.4C32.6,63,32.3,63.2,32,63.2z"/>
			<path fill="#575756" d="M32,61.4c0.2,0,0.3,0,0.4,0.1c0.4,0.2,0.5,0.8,0.3,1.2c-0.2,0.3-0.4,0.4-0.7,0.4c-0.2,0-0.3,0-0.4-0.1
				c-0.4-0.2-0.5-0.8-0.3-1.2C31.4,61.5,31.7,61.4,32,61.4 M32,61.1L32,61.1c-0.4,0-0.8,0.2-1,0.5c-0.2,0.3-0.2,0.6-0.1,0.8
				c0.1,0.3,0.3,0.5,0.5,0.7c0.2,0.1,0.4,0.2,0.6,0.2c0.4,0,0.8-0.2,1-0.5c0.3-0.5,0.1-1.2-0.4-1.5C32.4,61.2,32.2,61.1,32,61.1
				L32,61.1z"/>
		</g>
		<g>
			<path fill="#575756" d="M27.7,62.7c-0.2,0-0.4,0-0.5-0.1c-0.2-0.1-0.4-0.4-0.4-0.6s0-0.5,0.1-0.7c0.2-0.3,0.5-0.5,0.8-0.5
				c0.2,0,0.4,0,0.5,0.1c0.5,0.3,0.6,0.9,0.3,1.4C28.4,62.5,28,62.7,27.7,62.7z"/>
			<path fill="#575756" d="M27.7,60.8c0.2,0,0.3,0,0.4,0.1c0.4,0.2,0.5,0.8,0.3,1.2c-0.2,0.3-0.4,0.4-0.7,0.4c-0.2,0-0.3,0-0.4-0.1
				c-0.4-0.2-0.5-0.8-0.3-1.2C27.1,61,27.4,60.8,27.7,60.8 M27.7,60.6L27.7,60.6c-0.4,0-0.8,0.2-1,0.5c-0.3,0.5-0.1,1.2,0.4,1.5
				c0.2,0.1,0.4,0.2,0.6,0.2c0.4,0,0.8-0.2,1-0.5c0.2-0.3,0.2-0.6,0.1-0.8c-0.1-0.3-0.3-0.5-0.5-0.7C28.1,60.6,27.9,60.6,27.7,60.6
				L27.7,60.6z"/>
		</g>
		<g>
			<path fill="#575756" d="M23.6,61.2c-0.2,0-0.4,0-0.5-0.1c-0.2-0.1-0.4-0.4-0.4-0.6s0-0.5,0.1-0.7c0.2-0.3,0.5-0.5,0.8-0.5
				c0.2,0,0.4,0,0.5,0.1c0.5,0.3,0.6,0.9,0.3,1.4C24.3,61,24,61.2,23.6,61.2z"/>
			<path fill="#575756" d="M23.6,59.4c0.2,0,0.3,0,0.4,0.1c0.4,0.2,0.5,0.8,0.3,1.2c-0.2,0.3-0.4,0.4-0.7,0.4c-0.2,0-0.3,0-0.4-0.1
				c-0.4-0.2-0.5-0.8-0.3-1.2C23.1,59.5,23.3,59.4,23.6,59.4 M23.6,59.1L23.6,59.1c-0.4,0-0.8,0.2-1,0.5c-0.2,0.3-0.2,0.6-0.1,0.8
				c0.1,0.3,0.3,0.5,0.5,0.7c0.2,0.1,0.4,0.2,0.6,0.2c0.4,0,0.8-0.2,1-0.5c0.2-0.3,0.2-0.6,0.1-0.8c-0.1-0.3-0.3-0.5-0.5-0.7
				C24,59.2,23.8,59.1,23.6,59.1L23.6,59.1z"/>
		</g>
		<g>
			<path fill="#575756" d="M19.9,59.2c-0.2,0-0.4,0-0.5-0.1c-0.2-0.1-0.4-0.4-0.4-0.6s0-0.5,0.1-0.7c0.2-0.3,0.5-0.5,0.8-0.5
				c0.2,0,0.4,0,0.5,0.1c0.5,0.3,0.6,0.9,0.3,1.4C20.5,59,20.2,59.2,19.9,59.2z"/>
			<path fill="#575756" d="M19.9,57.3c0.2,0,0.3,0,0.4,0.1c0.4,0.2,0.5,0.8,0.3,1.2c-0.2,0.3-0.4,0.4-0.7,0.4c-0.2,0-0.3,0-0.4-0.1
				c-0.4-0.2-0.5-0.8-0.3-1.2C19.3,57.5,19.6,57.3,19.9,57.3 M19.9,57.1L19.9,57.1c-0.4,0-0.8,0.2-1,0.5c-0.2,0.3-0.2,0.6-0.1,0.8
				c0.1,0.3,0.3,0.5,0.5,0.7c0.2,0.1,0.4,0.2,0.6,0.2c0.4,0,0.8-0.2,1-0.5c0.2-0.3,0.2-0.6,0.1-0.8c-0.1-0.3-0.3-0.5-0.5-0.7
				C20.3,57.1,20.1,57.1,19.9,57.1L19.9,57.1z"/>
		</g>
		<g>
			<path fill="#575756" d="M16.2,57c-0.2,0-0.4,0-0.5-0.1c-0.5-0.3-0.6-0.9-0.3-1.4c0.2-0.3,0.5-0.5,0.8-0.5c0.2,0,0.4,0,0.5,0.1
				c0.2,0.1,0.4,0.4,0.4,0.6s0,0.5-0.1,0.7C16.9,56.8,16.6,57,16.2,57z"/>
			<path fill="#575756" d="M16.2,55.1c0.2,0,0.3,0,0.4,0.1c0.4,0.2,0.5,0.8,0.3,1.2c-0.2,0.3-0.4,0.4-0.7,0.4c-0.2,0-0.3,0-0.4-0.1
				c-0.4-0.2-0.5-0.8-0.3-1.2C15.6,55.3,15.9,55.1,16.2,55.1 M16.2,54.9L16.2,54.9c-0.4,0-0.8,0.2-1,0.5c-0.2,0.3-0.2,0.6-0.1,0.8
				c0.1,0.3,0.3,0.5,0.5,0.7c0.2,0.1,0.4,0.2,0.6,0.2c0.4,0,0.8-0.2,1-0.5c0.2-0.3,0.2-0.6,0.1-0.8c-0.1-0.3-0.3-0.5-0.5-0.7
				C16.6,54.9,16.4,54.9,16.2,54.9L16.2,54.9z"/>
		</g>
		<g>
			<path fill="#575756" d="M18.1,53.8c-0.2,0-0.4,0-0.5-0.1c-0.5-0.3-0.6-0.9-0.3-1.4c0.2-0.3,0.5-0.5,0.8-0.5c0.2,0,0.4,0,0.5,0.1
				c0.2,0.1,0.4,0.4,0.4,0.6s0,0.5-0.1,0.7C18.8,53.7,18.5,53.8,18.1,53.8z"/>
			<path fill="#575756" d="M18.1,52c0.2,0,0.3,0,0.4,0.1c0.4,0.2,0.5,0.8,0.3,1.2c-0.2,0.3-0.4,0.4-0.7,0.4c-0.2,0-0.3,0-0.4-0.1
				c-0.4-0.2-0.5-0.8-0.3-1.2C17.5,52.1,17.8,52,18.1,52 M18.1,51.7L18.1,51.7c-0.4,0-0.8,0.2-1,0.5C17,52.5,17,52.8,17,53.1
				c0.1,0.3,0.3,0.5,0.5,0.7c0.2,0.1,0.4,0.2,0.6,0.2c0.4,0,0.8-0.2,1-0.5c0.2-0.3,0.2-0.6,0.1-0.8c-0.1-0.3-0.3-0.5-0.5-0.7
				C18.5,51.8,18.3,51.7,18.1,51.7L18.1,51.7z"/>
		</g>
		<g>
			<path fill="#575756" d="M21.5,56.3c-0.2,0-0.4,0-0.5-0.1c-0.2-0.1-0.4-0.4-0.4-0.6s0-0.5,0.1-0.7c0.2-0.3,0.5-0.5,0.8-0.5
				c0.2,0,0.4,0,0.5,0.1c0.5,0.3,0.6,0.9,0.3,1.4C22.1,56.1,21.8,56.3,21.5,56.3z"/>
			<path fill="#575756" d="M21.5,54.5c0.2,0,0.3,0,0.4,0.1c0.4,0.2,0.5,0.8,0.3,1.2c-0.2,0.3-0.4,0.4-0.7,0.4c-0.2,0-0.3,0-0.4-0.1
				c-0.4-0.2-0.5-0.8-0.3-1.2C20.9,54.6,21.2,54.5,21.5,54.5 M21.5,54.2C21.5,54.2,21.5,54.2,21.5,54.2c-0.4,0-0.8,0.2-1,0.5
				c-0.2,0.3-0.2,0.6-0.1,0.8c0.1,0.3,0.3,0.5,0.5,0.7c0.2,0.1,0.4,0.2,0.6,0.2c0.4,0,0.8-0.2,1-0.5c0.3-0.5,0.1-1.2-0.4-1.5
				C21.9,54.3,21.7,54.2,21.5,54.2L21.5,54.2z"/>
		</g>
		<g>
			<path fill="#575756" d="M25.3,58.2c-0.2,0-0.4,0-0.5-0.1c-0.5-0.3-0.6-0.9-0.3-1.4c0.2-0.3,0.5-0.5,0.8-0.5c0.2,0,0.4,0,0.5,0.1
				c0.2,0.1,0.4,0.4,0.4,0.6s0,0.5-0.1,0.7C25.9,58,25.6,58.2,25.3,58.2z"/>
			<path fill="#575756" d="M25.3,56.3c0.2,0,0.3,0,0.4,0.1c0.4,0.2,0.5,0.8,0.3,1.2c-0.2,0.3-0.4,0.4-0.7,0.4c-0.2,0-0.3,0-0.4-0.1
				c-0.4-0.2-0.5-0.8-0.3-1.2C24.7,56.5,25,56.3,25.3,56.3 M25.3,56.1L25.3,56.1c-0.4,0-0.8,0.2-1,0.5c-0.2,0.3-0.2,0.6-0.1,0.8
				s0.3,0.5,0.5,0.7c0.2,0.1,0.4,0.2,0.6,0.2c0.4,0,0.8-0.2,1-0.5c0.2-0.3,0.2-0.6,0.1-0.8c-0.1-0.3-0.3-0.5-0.5-0.7
				C25.7,56.1,25.5,56.1,25.3,56.1L25.3,56.1z"/>
		</g>
		<g>
			<path fill="#575756" d="M29.7,59.3c-0.2,0-0.4,0-0.5-0.1c-0.5-0.3-0.6-0.9-0.3-1.4c0.2-0.3,0.5-0.5,0.8-0.5c0.2,0,0.4,0,0.5,0.1
				c0.2,0.1,0.4,0.4,0.4,0.6s0,0.5-0.1,0.7C30.4,59.1,30.1,59.3,29.7,59.3z"/>
			<path fill="#575756" d="M29.7,57.4c0.2,0,0.3,0,0.4,0.1c0.4,0.2,0.5,0.8,0.3,1.2c-0.2,0.3-0.4,0.4-0.7,0.4c-0.2,0-0.3,0-0.4-0.1
				c-0.4-0.2-0.5-0.8-0.3-1.2C29.2,57.6,29.4,57.4,29.7,57.4 M29.7,57.2L29.7,57.2c-0.4,0-0.8,0.2-1,0.5c-0.2,0.3-0.2,0.6-0.1,0.8
				s0.3,0.5,0.5,0.7c0.2,0.1,0.4,0.2,0.6,0.2c0.4,0,0.8-0.2,1-0.5c0.2-0.3,0.2-0.6,0.1-0.8c-0.1-0.3-0.3-0.5-0.5-0.7
				C30.1,57.2,29.9,57.2,29.7,57.2L29.7,57.2z"/>
		</g>
		<g>
			<path fill="#575756" d="M31.5,56.4c-0.2,0-0.4,0-0.5-0.1c-0.5-0.3-0.6-0.9-0.3-1.4c0.2-0.3,0.5-0.5,0.8-0.5c0.2,0,0.4,0,0.5,0.1
				c0.2,0.1,0.4,0.4,0.4,0.6s0,0.5-0.1,0.7C32.1,56.3,31.8,56.4,31.5,56.4z"/>
			<path fill="#575756" d="M31.5,54.6c0.2,0,0.3,0,0.4,0.1c0.4,0.2,0.5,0.8,0.3,1.2c-0.2,0.3-0.4,0.4-0.7,0.4c-0.2,0-0.3,0-0.4-0.1
				c-0.4-0.2-0.5-0.8-0.3-1.2C30.9,54.7,31.2,54.6,31.5,54.6 M31.5,54.3L31.5,54.3c-0.4,0-0.8,0.2-1,0.5c-0.2,0.3-0.2,0.6-0.1,0.8
				c0.1,0.3,0.3,0.5,0.5,0.7c0.2,0.1,0.4,0.2,0.6,0.2c0.4,0,0.8-0.2,1-0.5c0.2-0.3,0.2-0.6,0.1-0.8s-0.3-0.5-0.5-0.7
				C31.9,54.4,31.7,54.3,31.5,54.3L31.5,54.3z"/>
		</g>
		<g>
			<path fill="#575756" d="M27.4,55c-0.2,0-0.4,0-0.5-0.1c-0.5-0.3-0.6-0.9-0.3-1.4c0.2-0.3,0.5-0.5,0.8-0.5c0.2,0,0.4,0,0.5,0.1
				c0.2,0.1,0.4,0.4,0.4,0.6s0,0.5-0.1,0.7C28.1,54.8,27.7,55,27.4,55z"/>
			<path fill="#575756" d="M27.4,53.1c0.2,0,0.3,0,0.4,0.1c0.4,0.2,0.5,0.8,0.3,1.2c-0.2,0.3-0.4,0.4-0.7,0.4c-0.2,0-0.3,0-0.4-0.1
				c-0.4-0.2-0.5-0.8-0.3-1.2C26.8,53.3,27.1,53.1,27.4,53.1 M27.4,52.9L27.4,52.9c-0.4,0-0.8,0.2-1,0.5c-0.2,0.3-0.2,0.6-0.1,0.8
				c0.1,0.3,0.3,0.5,0.5,0.7c0.2,0.1,0.4,0.2,0.6,0.2c0.4,0,0.8-0.2,1-0.5c0.2-0.3,0.2-0.6,0.1-0.8c-0.1-0.3-0.3-0.5-0.5-0.7
				C27.8,52.9,27.6,52.9,27.4,52.9L27.4,52.9z"/>
		</g>
		<g>
			<path fill="#575756" d="M23.5,53.5c-0.2,0-0.4,0-0.5-0.1c-0.2-0.1-0.4-0.4-0.4-0.6s0-0.5,0.1-0.7c0.2-0.3,0.5-0.5,0.8-0.5
				c0.2,0,0.4,0,0.5,0.1c0.5,0.3,0.6,0.9,0.3,1.4C24.2,53.3,23.8,53.5,23.5,53.5z"/>
			<path fill="#575756" d="M23.5,51.7c0.2,0,0.3,0,0.4,0.1c0.4,0.2,0.5,0.8,0.3,1.2c-0.2,0.3-0.4,0.4-0.7,0.4c-0.2,0-0.3,0-0.4-0.1
				c-0.4-0.2-0.5-0.8-0.3-1.2C22.9,51.8,23.2,51.7,23.5,51.7 M23.5,51.4L23.5,51.4c-0.4,0-0.8,0.2-1,0.5c-0.2,0.3-0.2,0.6-0.1,0.8
				c0.1,0.3,0.3,0.5,0.5,0.7c0.2,0.1,0.4,0.2,0.6,0.2c0.4,0,0.8-0.2,1-0.5c0.2-0.3,0.2-0.6,0.1-0.8c-0.1-0.3-0.3-0.5-0.5-0.7
				C23.9,51.5,23.7,51.4,23.5,51.4L23.5,51.4z"/>
		</g>
		<g>
			<path fill="#575756" d="M35.7,56.2c-0.2,0-0.4,0-0.5-0.1c-0.2-0.1-0.4-0.4-0.4-0.6s0-0.5,0.1-0.7c0.2-0.3,0.5-0.5,0.8-0.5
				c0.2,0,0.4,0,0.5,0.1c0.5,0.3,0.6,0.9,0.3,1.4C36.3,56,36,56.2,35.7,56.2z"/>
			<path fill="#575756" d="M35.7,54.4c0.2,0,0.3,0,0.4,0.1c0.4,0.2,0.5,0.8,0.3,1.2c-0.2,0.3-0.4,0.4-0.7,0.4c-0.2,0-0.3,0-0.4-0.1
				c-0.4-0.2-0.5-0.8-0.3-1.2C35.1,54.5,35.4,54.4,35.7,54.4 M35.7,54.1L35.7,54.1c-0.4,0-0.8,0.2-1,0.5c-0.3,0.5-0.1,1.2,0.4,1.5
				c0.2,0.1,0.4,0.2,0.6,0.2c0.4,0,0.8-0.2,1-0.5c0.2-0.3,0.2-0.6,0.1-0.8c-0.1-0.3-0.3-0.5-0.5-0.7C36.1,54.2,35.9,54.1,35.7,54.1
				L35.7,54.1z"/>
		</g>
		<g>
			<path fill="#575756" d="M33.6,52.8c-0.2,0-0.4,0-0.5-0.1c-0.5-0.3-0.6-0.9-0.3-1.4c0.2-0.3,0.5-0.5,0.8-0.5c0.2,0,0.4,0,0.5,0.1
				c0.2,0.1,0.4,0.4,0.4,0.6s0,0.5-0.1,0.7C34.3,52.7,34,52.8,33.6,52.8z"/>
			<path fill="#575756" d="M33.6,51c0.2,0,0.3,0,0.4,0.1c0.4,0.2,0.5,0.8,0.3,1.2c-0.2,0.3-0.4,0.4-0.7,0.4c-0.2,0-0.3,0-0.4-0.1
				c-0.4-0.2-0.5-0.8-0.3-1.2C33.1,51.1,33.3,51,33.6,51 M33.6,50.7C33.6,50.7,33.6,50.7,33.6,50.7c-0.4,0-0.8,0.2-1,0.5
				c-0.2,0.3-0.2,0.6-0.1,0.8c0.1,0.3,0.3,0.5,0.5,0.7c0.2,0.1,0.4,0.2,0.6,0.2c0.4,0,0.8-0.2,1-0.5c0.3-0.5,0.1-1.2-0.4-1.5
				C34,50.8,33.8,50.7,33.6,50.7L33.6,50.7z"/>
		</g>
		<g>
			<path fill="#575756" d="M29.1,52.2c-0.2,0-0.4,0-0.5-0.1c-0.5-0.3-0.6-0.9-0.3-1.4c0.2-0.3,0.5-0.5,0.8-0.5c0.2,0,0.4,0,0.5,0.1
				c0.2,0.1,0.4,0.4,0.4,0.6s0,0.5-0.1,0.7C29.7,52,29.4,52.2,29.1,52.2z"/>
			<path fill="#575756" d="M29.1,50.4c0.2,0,0.3,0,0.4,0.1c0.4,0.2,0.5,0.8,0.3,1.2c-0.2,0.3-0.4,0.4-0.7,0.4c-0.2,0-0.3,0-0.4-0.1
				c-0.4-0.2-0.5-0.8-0.3-1.2C28.5,50.5,28.8,50.4,29.1,50.4 M29.1,50.1L29.1,50.1c-0.4,0-0.8,0.2-1,0.5c-0.2,0.3-0.2,0.6-0.1,0.8
				c0.1,0.3,0.3,0.5,0.5,0.7c0.2,0.1,0.4,0.2,0.6,0.2c0.4,0,0.8-0.2,1-0.5c0.2-0.3,0.2-0.6,0.1-0.8c-0.1-0.3-0.3-0.5-0.5-0.7
				C29.5,50.2,29.3,50.1,29.1,50.1L29.1,50.1z"/>
		</g>
		<g>
			<path fill="#575756" d="M37.4,52.5c-0.2,0-0.4,0-0.5-0.1c-0.2-0.1-0.4-0.4-0.4-0.6c-0.1-0.3,0-0.5,0.1-0.7
				c0.2-0.3,0.5-0.5,0.8-0.5c0.2,0,0.4,0,0.5,0.1c0.5,0.3,0.6,0.9,0.3,1.4C38.1,52.3,37.7,52.5,37.4,52.5z"/>
			<path fill="#575756" d="M37.4,50.7c0.2,0,0.3,0,0.4,0.1c0.4,0.2,0.5,0.8,0.3,1.2c-0.2,0.3-0.4,0.4-0.7,0.4c-0.2,0-0.3,0-0.4-0.1
				c-0.4-0.2-0.5-0.8-0.3-1.2C36.8,50.8,37.1,50.7,37.4,50.7 M37.4,50.4L37.4,50.4c-0.4,0-0.8,0.2-1,0.5c-0.2,0.3-0.2,0.6-0.1,0.8
				c0.1,0.3,0.3,0.5,0.5,0.7c0.2,0.1,0.4,0.2,0.6,0.2c0.4,0,0.8-0.2,1-0.5c0.3-0.5,0.1-1.2-0.4-1.5C37.8,50.5,37.6,50.4,37.4,50.4
				L37.4,50.4z"/>
		</g>
		<g>
			<path fill="#575756" d="M41.2,52c-0.2,0-0.4,0-0.5-0.1c-0.5-0.3-0.6-0.9-0.3-1.4c0.2-0.3,0.5-0.5,0.8-0.5c0.2,0,0.4,0,0.5,0.1
				c0.5,0.3,0.6,0.9,0.3,1.4C41.8,51.8,41.5,52,41.2,52z"/>
			<path fill="#575756" d="M41.2,50.2c0.2,0,0.3,0,0.4,0.1c0.4,0.2,0.5,0.8,0.3,1.2c-0.2,0.3-0.4,0.4-0.7,0.4c-0.2,0-0.3,0-0.4-0.1
				c-0.4-0.2-0.5-0.8-0.3-1.2C40.6,50.3,40.9,50.2,41.2,50.2 M41.2,49.9c-0.4,0-0.8,0.2-1,0.5c-0.2,0.3-0.2,0.6-0.1,0.8
				c0.1,0.3,0.3,0.5,0.5,0.7c0.2,0.1,0.4,0.2,0.6,0.2c0.4,0,0.8-0.2,1-0.5c0.2-0.3,0.2-0.6,0.1-0.8s-0.3-0.5-0.5-0.7
				C41.6,50,41.4,49.9,41.2,49.9L41.2,49.9z"/>
		</g>
		<g>
			<path fill="#575756" d="M40,55.7c-0.2,0-0.4,0-0.5-0.1c-0.2-0.1-0.4-0.4-0.4-0.6s0-0.5,0.1-0.7c0.2-0.3,0.5-0.5,0.8-0.5
				c0.2,0,0.4,0,0.5,0.1c0.5,0.3,0.6,0.9,0.3,1.4C40.7,55.5,40.3,55.7,40,55.7z"/>
			<path fill="#575756" d="M40,53.8c0.2,0,0.3,0,0.4,0.1c0.4,0.2,0.5,0.8,0.3,1.2c-0.2,0.3-0.4,0.4-0.7,0.4c-0.2,0-0.3,0-0.4-0.1
				c-0.4-0.2-0.5-0.8-0.3-1.2C39.4,54,39.7,53.8,40,53.8 M40,53.6L40,53.6c-0.4,0-0.8,0.2-1,0.5c-0.2,0.3-0.2,0.6-0.1,0.8
				c0.1,0.3,0.3,0.5,0.5,0.7c0.2,0.1,0.4,0.2,0.6,0.2c0.4,0,0.8-0.2,1-0.5c0.3-0.5,0.1-1.2-0.4-1.5C40.4,53.6,40.2,53.6,40,53.6
				L40,53.6z"/>
		</g>
		<g>
			<path fill="#575756" d="M44,53.8c-0.2,0-0.4,0-0.5-0.1c-0.2-0.1-0.4-0.4-0.4-0.6c-0.1-0.3,0-0.5,0.1-0.8c0.2-0.3,0.5-0.5,0.8-0.5
				c0.2,0,0.4,0,0.5,0.1c0.2,0.1,0.4,0.4,0.4,0.6s0,0.5-0.1,0.7C44.7,53.6,44.4,53.8,44,53.8z"/>
			<path fill="#575756" d="M44,51.9c0.2,0,0.3,0,0.4,0.1c0.4,0.2,0.5,0.8,0.3,1.2c-0.2,0.3-0.4,0.4-0.7,0.4c-0.2,0-0.3,0-0.4-0.1
				c-0.4-0.2-0.5-0.8-0.3-1.2C43.5,52.1,43.7,51.9,44,51.9 M44,51.7c-0.4,0-0.8,0.2-1,0.5c-0.2,0.3-0.2,0.6-0.1,0.8
				c0.1,0.3,0.3,0.5,0.5,0.7c0.2,0.1,0.4,0.2,0.6,0.2c0.4,0,0.8-0.2,1-0.5c0.2-0.3,0.2-0.6,0.1-0.8s-0.3-0.5-0.5-0.7
				C44.4,51.7,44.2,51.7,44,51.7L44,51.7z"/>
		</g>
	</g>
</g>
<g id="ring" class="ring">
	
		<circle fill="none" stroke="#000000" stroke-width="2" stroke-linecap="round" stroke-linejoin="round" stroke-miterlimit="10" cx="34.5" cy="34.5" r="33.2"/>
	
		<circle fill="#FFFFFF" stroke="#000000" stroke-linecap="round" stroke-linejoin="round" stroke-miterlimit="10" cx="7.8" cy="7.2" r="2.7"/>
</g>
</svg>
