<svg version="1.2" baseProfile="tiny" xmlns="http://www.w3.org/2000/svg" viewBox="0 0 69 69"><path d="M38.6 5.4C36.7 15 40.8 27 50.2 36.2c3.4 3.3 8.3 6.2 12.2 8.1l-5.9 9.2A31.6 31.6 0 0035 46.1a43.4 43.4 0 00-23.3 6.7l-5-8.8c9.3-3 17.7-12.5 21.1-25.2 1.2-4.6 1.7-9.2 1.5-13.4h9.3m0-1h-9.2c-.3 0-.5.1-.7.3s-.3.5-.3.7c.2 4.3-.3 8.7-1.5 13.1-3.2 12-11.3 21.6-20.5 24.6-.3.1-.5.3-.6.6-.1.3-.1.6.1.9l4.9 8.8.6.5h.2l.5-.2a41.6 41.6 0 0122.8-6.6 31 31 0 0120.8 7.1c.2.2.4.3.7.3h.1c.3 0 .6-.2.7-.5l5.9-9.2c.2-.2.2-.5.1-.8a1 1 0 00-.5-.6 50.2 50.2 0 01-11.9-7.9C42 26.9 37.6 15.2 39.4 5.7v-.3c.2-.6-.3-1-.8-1zm0 2z"/><circle fill="none" stroke="#000" stroke-linecap="round" stroke-linejoin="round" stroke-miterlimit="10" cx="34.3" cy="34.3" r="30.3"/><path d="M34.3 38.1a3.8 3.8 0 113.8-3.8 3.7 3.7 0 01-3.8 3.8z"/><path d="M34.3 30.9c1.8 0 3.3 1.5 3.3 3.3s-1.5 3.3-3.3 3.3-3.3-1.4-3.3-3.2 1.5-3.4 3.3-3.4m0-1c-2.4 0-4.3 2-4.3 4.3s2 4.3 4.3 4.3 4.3-2 4.3-4.3-1.9-4.3-4.3-4.3z"/><path d="M34.3 29.2c2.9 0 5.2 2.4 5.2 5.2s-2.4 5.2-5.2 5.2c-2.9 0-5.2-2.4-5.2-5.2s2.3-5.2 5.2-5.2m0-1c-3.4 0-6.2 2.8-6.2 6.2s2.8 6.2 6.2 6.2 6.2-2.8 6.2-6.2-2.7-6.2-6.2-6.2z"/><g fill="#575756"><path d="M49.4 16.4a1 1 0 010-2c.6 0 1 .4 1 1s-.4 1-1 1z"/><path d="M49.4 14.6c.5 0 .9.4.9.9s-.4.9-.9.9-.9-.4-.9-.9.5-.9.9-.9m0-.3c-.6 0-1.1.5-1.1 1.1 0 .6.5 1.1 1.1 1.1.6 0 1.1-.5 1.1-1.1 0-.6-.5-1.1-1.1-1.1zM45.4 14.1a1 1 0 010-2c.6 0 1 .4 1 1 0 .5-.4 1-1 1z"/><path d="M45.4 12.2c.5 0 .9.4.9.9s-.4.9-.9.9-.9-.4-.9-.9c.1-.5.5-.9.9-.9m0-.3c-.6 0-1.1.5-1.1 1.1 0 .6.5 1.1 1.1 1.1s1.1-.5 1.1-1.1c.1-.6-.4-1.1-1.1-1.1zM41.8 12.3a1 1 0 010-2c.6 0 1 .4 1 1s-.5 1-1 1z"/><path d="M41.8 10.5c.5 0 .9.4.9.9s-.4.9-.9.9-.9-.4-.9-.9.4-.9.9-.9m0-.3c-.6 0-1.1.5-1.1 1.1s.5 1.1 1.1 1.1c.6 0 1.1-.5 1.1-1.1s-.5-1.1-1.1-1.1zM42.6 9.1a1 1 0 010-2c.6 0 1 .4 1 1 0 .5-.4 1-1 1z"/><path d="M42.6 7.2c.5 0 .9.4.9.9s-.4.9-.9.9a.9.9 0 01-.9-.9c.1-.5.5-.9.9-.9m0-.2c-.6 0-1.1.5-1.1 1.1 0 .6.5 1.1 1.1 1.1.6 0 1.1-.5 1.1-1.1.1-.6-.4-1.1-1.1-1.1zM46.7 10.8a1 1 0 010-2c.6 0 1 .4 1 1s-.4 1-1 1z"/><path d="M46.7 9c.5 0 .9.4.9.9s-.4.9-.9.9-.9-.4-.9-.9c.1-.6.5-.9.9-.9m0-.3c-.6 0-1.1.5-1.1 1.1 0 .6.5 1.1 1.1 1.1.6 0 1.1-.5 1.1-1.1.1-.6-.4-1.1-1.1-1.1zM50.3 12.9a1 1 0 010-2c.6 0 1 .4 1 1 0 .5-.5 1-1 1z"/><path d="M50.3 11c.5 0 .9.4.9.9s-.4.9-.9.9-.9-.4-.9-.9.4-.9.9-.9m0-.2c-.6 0-1.1.5-1.1 1.1s.5 1.1 1.1 1.1c.6 0 1.1-.5 1.1-1.1s-.5-1.1-1.1-1.1zM53.6 15.6a1 1 0 010-2c.6 0 1 .4 1 1 0 .5-.4 1-1 1z"/><path d="M53.6 13.7c.5 0 .9.4.9.9s-.4.9-.9.9-.9-.4-.9-.9c.1-.5.5-.9.9-.9m0-.2c-.6 0-1.1.5-1.1 1.1 0 .6.5 1.1 1.1 1.1s1.1-.5 1.1-1.1c0-.6-.5-1.1-1.1-1.1zM56.5 19a1 1 0 010-2c.6 0 1 .4 1 1s-.5 1-1 1z"/><path d="M56.5 17.2c.5 0 .9.4.9.9s-.4.9-.9.9-.9-.4-.9-.9.4-.9.9-.9m0-.3c-.6 0-1.1.5-1.1 1.1s.5 1.1 1.1 1.1 1.1-.5 1.1-1.1-.5-1.1-1.1-1.1zM52.3 19.4a1 1 0 010-2c.6 0 1 .4 1 1s-.5 1-1 1z"/><path d="M52.3 17.6c.5 0 .9.4.9.9s-.4.9-.9.9-.9-.4-.9-.9.4-.9.9-.9m0-.3c-.6 0-1.1.5-1.1 1.1s.5 1.1 1.1 1.1 1.1-.5 1.1-1.1-.5-1.1-1.1-1.1zM54.8 22.8a1 1 0 010-2c.6 0 1 .4 1 1s-.5 1-1 1z"/><path d="M54.8 21c.5 0 .9.4.9.9s-.4.9-.9.9-.9-.4-.9-.9.4-.9.9-.9m0-.3c-.6 0-1.1.5-1.1 1.1 0 .6.5 1.1 1.1 1.1.6 0 1.1-.5 1.1-1.1 0-.6-.5-1.1-1.1-1.1zM58.7 22.8a1 1 0 010-2c.6 0 1 .4 1 1s-.4 1-1 1z"/><path d="M58.7 21c.5 0 .9.4.9.9s-.4.9-.9.9-.9-.4-.9-.9.4-.9.9-.9m0-.3c-.6 0-1.1.5-1.1 1.1 0 .6.5 1.1 1.1 1.1.6 0 1.1-.5 1.1-1.1 0-.6-.5-1.1-1.1-1.1zM60.4 26.8a1 1 0 010-2c.6 0 1 .4 1 1 0 .5-.4 1-1 1z"/><path d="M60.4 24.9c.5 0 .9.4.9.9s-.4.9-.9.9a.9.9 0 01-.9-.9c.1-.5.5-.9.9-.9m0-.2c-.6 0-1.1.5-1.1 1.1 0 .6.5 1.1 1.1 1.1.6 0 1.1-.5 1.1-1.1 0-.6-.5-1.1-1.1-1.1zM61.3 31a1 1 0 010-2c.6 0 1 .4 1 1s-.5 1-1 1z"/><path d="M61.3 29.2c.5 0 .9.4.9.9s-.4.9-.9.9-.9-.4-.9-.9.4-.9.9-.9m0-.3c-.6 0-1.1.5-1.1 1.1s.5 1.1 1.1 1.1c.6 0 1.1-.5 1.1-1.1s-.5-1.1-1.1-1.1zM61.5 35.3a1 1 0 010-2c.6 0 1 .4 1 1 0 .5-.4 1-1 1z"/><path d="M61.5 33.4c.5 0 .9.4.9.9s-.4.9-.9.9-.9-.4-.9-.9.4-.9.9-.9m0-.2c-.6 0-1.1.5-1.1 1.1s.5 1.1 1.1 1.1c.6 0 1.1-.5 1.1-1.1s-.5-1.1-1.1-1.1zM61.5 39.5c-.5 0-1-.4-1-1s.4-1 1-1 1 .4 1 1-.4 1-1 1z"/><path d="M61.5 37.7c.5 0 .9.4.9.9s-.4.9-.9.9a.9.9 0 01-.9-.9c0-.5.4-.9.9-.9m0-.3c-.6 0-1.1.5-1.1 1.1 0 .6.5 1.1 1.1 1.1.6 0 1.1-.5 1.1-1.1 0-.6-.5-1.1-1.1-1.1z"/><g><path d="M57.8 39.5c-.5 0-1-.4-1-1s.4-1 1-1 1 .4 1 1-.4 1-1 1z"/><path d="M57.8 37.7c.5 0 .9.4.9.9s-.4.9-.9.9a.9.9 0 01-.9-.9c.1-.5.5-.9.9-.9m0-.3c-.6 0-1.1.5-1.1 1.1 0 .6.5 1.1 1.1 1.1.6 0 1.1-.5 1.1-1.1.1-.6-.4-1.1-1.1-1.1z"/></g><g><path d="M58.2 35.4a1 1 0 010-2c.6 0 1 .4 1 1s-.4 1-1 1z"/><path d="M58.2 33.5c.5 0 .9.4.9.9s-.4.9-.9.9-.9-.4-.9-.9.4-.9.9-.9m0-.2c-.6 0-1.1.5-1.1 1.1s.5 1.1 1.1 1.1c.6 0 1.1-.5 1.1-1.1s-.5-1.1-1.1-1.1z"/></g><g><path d="M57.8 31.2a1 1 0 010-2c.6 0 1 .4 1 1s-.4 1-1 1z"/><path d="M57.8 29.3c.5 0 .9.4.9.9s-.4.9-.9.9a.9.9 0 01-.9-.9c.1-.5.5-.9.9-.9m0-.2c-.6 0-1.1.5-1.1 1.1 0 .6.5 1.1 1.1 1.1.6 0 1.1-.5 1.1-1.1.1-.6-.4-1.1-1.1-1.1z"/></g><g><path d="M56.5 26.8a1 1 0 010-2c.6 0 1 .4 1 1 0 .5-.5 1-1 1z"/><path d="M56.5 24.9c.5 0 .9.4.9.9s-.4.9-.9.9-.9-.4-.9-.9.4-.9.9-.9m0-.2c-.6 0-1.1.5-1.1 1.1 0 .6.5 1.1 1.1 1.1s1.1-.5 1.1-1.1c0-.6-.5-1.1-1.1-1.1z"/></g><g><path d="M53.2 26.8a1 1 0 010-2c.6 0 1 .4 1 1-.1.5-.5 1-1 1z"/><path d="M53.2 24.9c.5 0 .9.4.9.9s-.4.9-.9.9a.9.9 0 01-.9-.9c0-.5.4-.9.9-.9m0-.2c-.6 0-1.1.5-1.1 1.1 0 .6.5 1.1 1.1 1.1.6 0 1.1-.5 1.1-1.1 0-.6-.5-1.1-1.1-1.1z"/></g><g><path d="M54 31a1 1 0 010-2c.6 0 1 .4 1 1s-.4 1-1 1z"/><path d="M54 29.2c.5 0 .9.4.9.9s-.4.9-.9.9-.9-.4-.9-.9.4-.9.9-.9m0-.3c-.6 0-1.1.5-1.1 1.1s.5 1.1 1.1 1.1c.6 0 1.1-.5 1.1-1.1s-.5-1.1-1.1-1.1z"/></g><g><path d="M54.8 35.1a1 1 0 010-2c.6 0 1 .4 1 1s-.5 1-1 1z"/><path d="M54.8 33.3c.5 0 .9.4.9.9s-.4.9-.9.9a.9.9 0 01-.9-.9c0-.6.4-.9.9-.9m0-.3c-.6 0-1.1.5-1.1 1.1 0 .6.5 1.1 1.1 1.1.6 0 1.1-.5 1.1-1.1 0-.6-.5-1.1-1.1-1.1z"/></g><g><path d="M50.8 23.3a1 1 0 010-2c.6 0 1 .4 1 1 0 .5-.5 1-1 1z"/><path d="M50.8 21.4c.5 0 .9.4.9.9s-.4.9-.9.9-.9-.4-.9-.9.4-.9.9-.9m0-.2c-.6 0-1.1.5-1.1 1.1 0 .6.5 1.1 1.1 1.1s1.1-.5 1.1-1.1c0-.6-.5-1.1-1.1-1.1z"/></g><g><path d="M49 26.8a1 1 0 010-2c.6 0 1 .4 1 1-.1.5-.5 1-1 1z"/><path d="M49 24.9c.5 0 .9.4.9.9s-.4.9-.9.9a.9.9 0 01-.9-.9c0-.5.4-.9.9-.9m0-.2c-.6 0-1.1.5-1.1 1.1 0 .6.5 1.1 1.1 1.1.6 0 1.1-.5 1.1-1.1 0-.6-.5-1.1-1.1-1.1z"/></g><g><path d="M50.8 31a1 1 0 010-2c.6 0 1 .4 1 1s-.5 1-1 1z"/><path d="M50.8 29.2c.5 0 .9.4.9.9s-.4.9-.9.9-.9-.4-.9-.9.4-.9.9-.9m0-.3c-.6 0-1.1.5-1.1 1.1s.5 1.1 1.1 1.1 1.1-.5 1.1-1.1-.5-1.1-1.1-1.1z"/></g><g><path d="M46.7 23.7a1 1 0 010-2c.6 0 1 .4 1 1s-.4 1-1 1z"/><path d="M46.7 21.9c.5 0 .9.4.9.9s-.4.9-.9.9-.9-.4-.9-.9c.1-.6.5-.9.9-.9m0-.3c-.6 0-1.1.5-1.1 1.1 0 .6.5 1.1 1.1 1.1.6 0 1.1-.5 1.1-1.1.1-.6-.4-1.1-1.1-1.1z"/></g><g><path d="M44.4 20.7c-.5 0-1-.4-1-1s.4-1 1-1 1 .4 1 1-.5 1-1 1z"/><path d="M44.4 18.9c.5 0 .9.4.9.9s-.4.9-.9.9a.9.9 0 01-.9-.9c0-.5.4-.9.9-.9m0-.3c-.6 0-1.1.5-1.1 1.1 0 .6.5 1.1 1.1 1.1.6 0 1.1-.5 1.1-1.1 0-.6-.5-1.1-1.1-1.1z"/></g><g><path d="M48.1 19.9a1 1 0 010-2c.6 0 1 .4 1 1 0 .5-.5 1-1 1z"/><path d="M48.1 18c.5 0 .9.4.9.9s-.4.9-.9.9-.9-.4-.9-.9.4-.9.9-.9m0-.2c-.6 0-1.1.5-1.1 1.1 0 .6.5 1.1 1.1 1.1s1.1-.5 1.1-1.1c0-.6-.5-1.1-1.1-1.1z"/></g><g><path d="M44.4 17.4a1 1 0 010-2c.6 0 1 .4 1 1s-.5 1-1 1z"/><path d="M44.4 15.5c.5 0 .9.4.9.9s-.4.9-.9.9a.9.9 0 01-.9-.9c0-.5.4-.9.9-.9m0-.2c-.6 0-1.1.5-1.1 1.1 0 .6.5 1.1 1.1 1.1.6 0 1.1-.5 1.1-1.1 0-.6-.5-1.1-1.1-1.1z"/></g></g><g fill="#575756"><path d="M10.1 30.6a1 1 0 01-.9-.5 1 1 0 01-.1-.8c.1-.3.2-.5.5-.6l.5-.1c.4 0 .7.2.9.5.1.2.2.5.1.8-.1.3-.2.5-.5.6l-.5.1z"/><path d="M10.1 28.8c.3 0 .6.2.8.5.2.4.1.9-.4 1.2l-.4.1c-.3 0-.6-.2-.8-.5-.2-.4-.1-.9.4-1.2l.4-.1m0-.3l-.5.1c-.3.1-.5.4-.5.7v.9c.2.4.6.6 1 .6l.5-.1c.3-.1.5-.4.5-.7.1-.3.1-.6-.1-.8-.1-.5-.5-.7-.9-.7zM9.9 35.3a1 1 0 01-.9-.5c-.3-.5-.1-1.1.4-1.3l.5-.1c.4 0 .7.2.9.5.3.5.1 1.1-.4 1.3l-.5.1z"/><path d="M9.9 33.4c.3 0 .6.2.8.5.2.4.1.9-.4 1.2l-.4.1c-.3 0-.6-.2-.8-.5-.2-.4-.1-.9.4-1.2l.4-.1m0-.2l-.5.1c-.5.3-.7 1-.5 1.5.2.4.6.6 1 .6l.5-.1c.5-.3.7-1 .5-1.5-.2-.4-.6-.6-1-.6zM10.1 39.3a1 1 0 01-.9-.5c-.3-.5-.1-1.1.4-1.3l.5-.1c.4 0 .7.2.9.5.3.5.1 1.1-.4 1.3l-.5.1z"/><path d="M10.1 37.5c.3 0 .6.2.8.5.2.4.1.9-.4 1.2l-.4.1c-.3 0-.6-.2-.8-.5-.2-.4-.1-.9.4-1.2l.4-.1m0-.3l-.5.1c-.5.3-.7 1-.5 1.5.2.4.6.6 1 .6l.5-.1c.3-.1.5-.4.5-.7.1-.3.1-.6-.1-.8-.1-.4-.5-.6-.9-.6zM6.9 40.1a1 1 0 01-.9-.5c-.3-.5-.1-1.1.4-1.3l.5-.1c.4 0 .7.2.9.5.2.4 0 1-.5 1.3l-.4.1z"/><path d="M6.9 38.2c.3 0 .6.2.8.5.2.4.1.9-.4 1.2l-.4.1c-.3 0-.6-.2-.8-.5-.2-.4-.1-.9.4-1.2l.4-.1m0-.2l-.5.1c-.3.1-.5.4-.5.7-.1.3-.1.6.1.8.2.4.6.6 1 .6l.5-.1c.5-.3.7-1 .5-1.5-.4-.4-.7-.6-1.1-.6zM6.4 35.6a1 1 0 01-.9-.5c-.2-.5 0-1.1.5-1.3l.5-.1c.4 0 .7.2.9.5.3.5.1 1.1-.4 1.3l-.6.1z"/><path d="M6.4 33.8c.3 0 .6.2.8.5.2.4.1.9-.4 1.2l-.4.1c-.3 0-.6-.2-.8-.5-.2-.4-.1-.9.4-1.2l.4-.1m0-.3l-.5.1c-.5.3-.7 1-.5 1.5.2.4.6.6 1 .6l.5-.1c.5-.3.7-1 .5-1.5-.2-.3-.5-.6-1-.6zM6.6 31.5a1 1 0 01-.9-.5c-.3-.5-.1-1.1.4-1.3l.5-.1c.4 0 .7.2.9.5.3.5.1 1.1-.4 1.3l-.5.1z"/><path d="M6.6 29.7c.3 0 .6.2.8.5.2.4.1.9-.4 1.2l-.4.1c-.3 0-.6-.2-.8-.5-.2-.4-.1-.9.4-1.2l.4-.1m0-.3l-.5.1c-.3.1-.5.4-.5.7s-.1.6.1.8c.2.4.6.6 1 .6l.5-.1c.5-.3.7-1 .5-1.5-.3-.3-.7-.6-1.1-.6zM7.4 27.3a1 1 0 01-.9-.5c-.3-.5-.1-1.1.4-1.3l.5-.1c.4 0 .7.2.9.5.3.5.1 1.1-.4 1.3l-.5.1z"/><path d="M7.4 25.5c.3 0 .6.2.8.5.2.4.1.9-.4 1.2l-.4.1c-.3 0-.6-.2-.8-.5-.2-.4-.1-.9.4-1.2l.4-.1m0-.3l-.5.1c-.5.3-.7 1-.5 1.5.2.4.6.6 1 .6l.5-.1c.5-.3.7-1 .5-1.5-.2-.3-.6-.6-1-.6zM9.1 23.2a1 1 0 01-.9-.5c-.3-.5-.1-1.1.4-1.3l.5-.1c.4 0 .7.2.9.5.3.5.1 1.1-.4 1.3l-.5.1z"/><path d="M9.1 21.3c.3 0 .6.2.8.5.2.4.1.9-.4 1.2h-.4c-.3 0-.6-.2-.8-.5-.2-.4-.1-.9.4-1.2.1.1.2 0 .4 0m0-.2l-.5.1c-.3.1-.5.4-.5.7-.1.3-.1.6.1.8.2.4.6.6 1 .6l.5-.1c.5-.3.7-1 .5-1.5-.3-.4-.7-.6-1.1-.6zM11.4 26.7a1 1 0 01-.9-.5c-.3-.5-.1-1.1.4-1.3l.5-.1c.4 0 .7.2.9.5.3.5.1 1.1-.4 1.3l-.5.1z"/><path d="M11.4 24.8c.3 0 .6.2.8.5.2.4.1.9-.4 1.2l-.4.1c-.3 0-.6-.2-.8-.5-.2-.4-.1-.9.4-1.2l.4-.1m0-.2l-.5.1c-.5.3-.7 1-.5 1.5.2.4.6.6 1 .6l.5-.1c.3-.1.5-.4.5-.7.1-.3.1-.6-.1-.8-.1-.4-.5-.6-.9-.6zM13.3 22.9a1 1 0 01-.9-.5 1 1 0 01-.1-.8c.1-.3.2-.5.5-.6l.5-.1c.4 0 .7.2.9.5.3.5.1 1.1-.4 1.3l-.5.2z"/><path d="M13.3 21c.3 0 .6.2.8.5.2.4.1.9-.4 1.2l-.4.1c-.3 0-.6-.2-.8-.5-.2-.4-.1-.9.4-1.2l.4-.1m0-.2l-.5.1c-.5.3-.7 1-.5 1.5.2.4.6.6 1 .6l.5-.1c.3-.1.5-.4.5-.7.1-.3.1-.6-.1-.8-.2-.4-.5-.6-.9-.6zM11.4 19.4a1 1 0 01-.9-.5c-.3-.5-.1-1.1.4-1.3l.5-.1c.4 0 .7.2.9.5.3.5.1 1.1-.4 1.3l-.5.1z"/><path d="M11.4 17.6c.3 0 .6.2.8.5.2.4.1.9-.4 1.2l-.4.1c-.3 0-.6-.2-.8-.5-.2-.4-.1-.9.4-1.2l.4-.1m0-.3l-.5.1c-.5.3-.7 1-.5 1.5.2.4.6.6 1 .6l.5-.1c.5-.3.7-1 .5-1.5-.2-.4-.6-.6-1-.6zM14.1 16a1 1 0 01-.9-.5c-.3-.5-.1-1.1.4-1.3l.5-.1c.4 0 .7.2.9.5.3.5.1 1.1-.4 1.3l-.5.1z"/><path d="M14.1 14.2c.3 0 .6.2.8.5.2.4.1.9-.4 1.2l-.4.1c-.3 0-.6-.2-.8-.5-.2-.4-.1-.9.4-1.2l.4-.1m0-.3l-.5.1c-.5.3-.7 1-.5 1.5.2.4.6.6 1 .6l.5-.1c.5-.3.7-1 .5-1.5-.3-.3-.6-.6-1-.6zM17.4 13.3a1 1 0 01-.9-.5 1 1 0 01-.1-.8c.1-.3.2-.5.5-.6l.5-.1c.4 0 .7.2.9.5.1.2.2.5.1.8-.1.3-.2.5-.5.6l-.5.1z"/><path d="M17.4 11.4c.3 0 .6.2.8.5.2.4.1.9-.4 1.2l-.4.1c-.3 0-.6-.2-.8-.5-.2-.4-.1-.9.4-1.2l.4-.1m0-.2l-.5.1c-.5.3-.7 1-.5 1.5.2.4.6.6 1 .6l.5-.1c.5-.3.7-1 .5-1.5-.2-.4-.6-.6-1-.6zM21 11.1a1 1 0 01-.9-.5 1 1 0 01-.1-.8c.1-.3.2-.5.5-.6l.5-.1c.4 0 .7.2.9.5.3.5.1 1.1-.4 1.3l-.5.2z"/><path d="M21 9.2c.3 0 .6.2.8.5.2.4.1.9-.4 1.2l-.4.1c-.3 0-.6-.2-.8-.5-.2-.4-.1-.9.4-1.2l.4-.1m0-.2l-.5.1c-.3.1-.5.4-.5.7s-.1.6.1.8c.2.4.6.6 1 .6l.5-.1c.5-.3.7-1 .5-1.5-.3-.4-.6-.6-1.1-.6zM24.8 9.1a1 1 0 01-.9-.5c-.3-.5-.1-1.1.4-1.3l.5-.1c.4 0 .7.2.9.5.1.2.2.5.1.8-.1.3-.2.5-.5.6h-.5z"/><path d="M24.8 7.2c.3 0 .6.2.8.5.2.4.1.9-.4 1.2l-.4.1c-.3 0-.6-.2-.8-.5-.2-.4-.1-.9.4-1.2l.4-.1m0-.2l-.5.1c-.3.1-.5.4-.5.7-.1.3-.1.6.1.8.2.4.6.6 1 .6l.5-.1c.5-.3.7-1 .5-1.5-.3-.4-.7-.6-1.1-.6z"/><g><path d="M26.5 12.3a1 1 0 01-.9-.5c-.3-.5-.1-1.1.4-1.3l.5-.1c.4 0 .7.2.9.5.3.5.1 1.1-.4 1.3l-.5.1z"/><path d="M26.5 10.4c.3 0 .6.2.8.5.2.4.1.9-.4 1.2l-.4.1c-.3 0-.6-.2-.8-.5-.2-.4-.1-.9.4-1.2l.4-.1m0-.2l-.5.1c-.5.3-.7 1-.5 1.5.2.4.6.6 1 .6l.5-.1c.3-.1.5-.4.5-.7.1-.3.1-.6-.1-.8-.1-.4-.5-.6-.9-.6z"/></g><g><path d="M22.7 13.9a1 1 0 01-.9-.5c-.3-.5-.1-1.1.4-1.3l.5-.1c.4 0 .7.2.9.5.3.5.1 1.1-.4 1.3l-.5.1z"/><path d="M22.7 12.1c.3 0 .6.2.8.5.2.4.1.9-.4 1.2l-.4.1c-.3 0-.6-.2-.8-.5-.2-.4-.1-.9.4-1.2l.4-.1m0-.3l-.5.1c-.3.1-.5.4-.5.7-.1.3-.1.6.1.8.2.4.6.6 1 .6l.5-.1c.5-.3.7-1 .5-1.5-.3-.4-.7-.6-1.1-.6z"/></g><g><path d="M19.2 16.2a1 1 0 01-.9-.5c-.3-.5-.1-1.1.4-1.3l.5-.1c.4 0 .7.2.9.5.3.5.1 1.1-.4 1.3l-.5.1z"/><path d="M19.2 14.4c.3 0 .6.2.8.5.2.4.1.9-.4 1.2l-.4.1c-.3 0-.6-.2-.8-.5-.2-.4-.1-.9.4-1.2l.4-.1m0-.3l-.5.1c-.3.1-.5.4-.5.7-.1.3-.1.6.1.8.2.4.6.6 1 .6l.5-.1c.5-.3.7-1 .5-1.5-.3-.3-.7-.6-1.1-.6z"/></g><g><path d="M15.9 19.5a1 1 0 01-.9-.5c-.3-.5-.1-1.1.4-1.3l.5-.1c.4 0 .7.2.9.5.3.5.1 1.1-.4 1.3l-.5.1z"/><path d="M15.9 17.7c.3 0 .6.2.8.5.2.4.1.9-.4 1.2l-.4.1c-.3 0-.6-.2-.8-.5-.2-.4-.1-.9.4-1.2l.4-.1m0-.3l-.5.1c-.3.1-.5.4-.5.7-.1.3-.1.6.1.8.2.4.6.6 1 .6l.5-.1c.3-.1.5-.4.5-.7.1-.3.1-.6-.1-.8-.2-.4-.6-.6-1-.6z"/></g><g><path d="M17.5 22.5a1 1 0 01-.9-.5 1 1 0 01-.1-.8c.1-.3.2-.5.5-.6l.5-.1c.4 0 .7.2.9.5.1.2.2.5.1.8-.1.3-.2.5-.5.6l-.5.1z"/><path d="M17.5 20.6c.3 0 .6.2.8.5.2.4.1.9-.4 1.2l-.4.1c-.3 0-.6-.2-.8-.5-.2-.4-.1-.9.4-1.2l.4-.1m0-.3l-.5.1c-.3.1-.5.4-.5.7-.1.3-.1.6.1.8.2.4.6.6 1 .6l.5-.1c.5-.3.7-1 .5-1.5-.3-.3-.7-.6-1.1-.6z"/></g><g><path d="M20.8 19.7a1 1 0 01-.9-.5c-.3-.5-.1-1.1.4-1.3l.5-.1c.4 0 .7.2.9.5.1.2.2.5.1.8s-.2.5-.5.6h-.5z"/><path d="M20.8 17.8c.3 0 .6.2.8.5.2.4.1.9-.4 1.2l-.4.1c-.3 0-.6-.2-.8-.5-.2-.4-.1-.9.4-1.2l.4-.1m0-.2l-.5.1c-.5.3-.7 1-.5 1.5.2.4.6.6 1 .6l.5-.1c.3-.1.5-.4.5-.7.1-.3.1-.6-.1-.8-.1-.4-.5-.6-.9-.6z"/></g><g><path d="M24.1 17.1a1 1 0 01-.9-.5c-.3-.5-.1-1.1.4-1.3l.5-.1c.4 0 .7.2.9.5.3.5.1 1.1-.4 1.3l-.5.1z"/><path d="M24.1 15.2c.3 0 .6.2.8.5.2.4.1.9-.4 1.2l-.4.1c-.3 0-.6-.2-.8-.5-.2-.4-.1-.9.4-1.2l.4-.1m0-.2l-.5.1c-.5.3-.7 1-.5 1.5.2.4.6.6 1 .6l.5-.1c.3-.1.5-.4.5-.7.1-.3.1-.6-.1-.8-.1-.4-.5-.6-.9-.6z"/></g><g><path d="M15.5 26.2a1 1 0 01-.9-.5c-.3-.5-.1-1.1.4-1.3l.5-.1c.4 0 .7.2.9.5.3.5.1 1.1-.4 1.3l-.5.1z"/><path d="M15.5 24.3c.3 0 .6.2.8.5.2.4.1.9-.4 1.2l-.4.1c-.3 0-.6-.2-.8-.5-.2-.4-.1-.9.4-1.2l.4-.1m0-.2l-.5.1c-.3.1-.5.4-.5.7-.1.3-.1.6.1.8.2.4.6.6 1 .6l.5-.1c.5-.3.7-1 .5-1.5-.3-.4-.7-.6-1.1-.6z"/></g><g><path d="M19.5 26.2a1 1 0 01-.9-.5c-.3-.5-.1-1.1.4-1.3l.5-.1c.4 0 .7.2.9.5.3.5.1 1.1-.4 1.3l-.5.1z"/><path d="M19.5 24.3c.3 0 .6.2.8.5.2.4.1.9-.4 1.2h-.4c-.3 0-.6-.2-.8-.5-.2-.4-.1-.9.4-1.2h.4m0-.2l-.5.1c-.3.1-.5.4-.5.7-.1.3-.1.6.1.8.2.4.6.6 1 .6l.5-.1c.5-.3.7-1 .5-1.5-.3-.4-.7-.6-1.1-.6z"/></g><g><path d="M22.3 22.5a1 1 0 01-.9-.5c-.3-.5-.1-1.1.4-1.3l.5-.1c.4 0 .7.2.9.5.1.2.2.5.1.8-.1.3-.2.5-.5.6h-.5z"/><path d="M22.3 20.7c.3 0 .6.2.8.5.2.4.1.9-.4 1.2l-.4.1c-.3 0-.6-.2-.8-.5-.2-.4-.1-.9.4-1.2l.4-.1m0-.3l-.5.1c-.3.1-.5.4-.5.7-.1.3-.1.6.1.8.2.4.6.6 1 .6l.5-.1c.3-.1.5-.4.5-.7.1-.3.1-.6-.1-.8-.2-.3-.6-.6-1-.6z"/></g><g><path d="M17.8 29.6a1 1 0 01-.9-.5 1 1 0 01-.1-.8c.1-.3.2-.5.5-.6l.5-.1c.4 0 .7.2.9.5.1.2.2.5.1.8-.1.3-.2.5-.5.6l-.5.1z"/><path d="M17.8 27.7c.3 0 .6.2.8.5.2.4.1.9-.4 1.2l-.4.1c-.3 0-.6-.2-.8-.5-.2-.4-.1-.9.4-1.2l.4-.1m0-.3l-.5.1c-.3.1-.5.4-.5.7-.1.3-.1.6.1.8.2.4.6.6 1 .6l.5-.1c.5-.3.7-1 .5-1.5-.3-.3-.7-.6-1.1-.6z"/></g><g><path d="M16.3 33a1 1 0 01-.9-.5c-.3-.5-.1-1.1.4-1.3l.5-.1c.4 0 .7.2.9.5.3.5.1 1.1-.4 1.3l-.5.1z"/><path d="M16.3 31.2c.3 0 .6.2.8.5.2.4.1.9-.4 1.2l-.4.1c-.3 0-.6-.2-.8-.5-.2-.4-.1-.9.4-1.2l.4-.1m0-.3l-.5.1c-.5.3-.7 1-.5 1.5.2.4.6.6 1 .6l.5-.1c.5-.3.7-1 .5-1.5-.2-.3-.6-.6-1-.6z"/></g><g><path d="M13.8 30.2a1 1 0 01-.9-.5 1 1 0 01-.1-.8c.1-.3.2-.5.5-.6l.5-.1c.4 0 .7.2.9.5.3.5.1 1.1-.4 1.3l-.5.2z"/><path d="M13.8 28.3c.3 0 .6.2.8.5.2.4.1.9-.4 1.2h-.4c-.3 0-.6-.2-.8-.5-.2-.4-.1-.9.4-1.2.1.1.3 0 .4 0m0-.2l-.5.1c-.5.3-.7 1-.5 1.5.2.4.6.6 1 .6l.5-.1c.5-.3.7-1 .5-1.5-.2-.4-.6-.6-1-.6z"/></g><g><path d="M13.4 34.6a1 1 0 01-.9-.5c-.3-.5-.1-1.1.4-1.3l.5-.1c.4 0 .7.2.9.5.3.5.1 1.1-.4 1.3l-.5.1z"/><path d="M13.4 32.8c.3 0 .6.2.8.5.2.4.1.9-.4 1.2l-.4.1c-.3 0-.6-.2-.8-.5-.2-.4-.1-.9.4-1.2l.4-.1m0-.3l-.5.1c-.3.1-.5.4-.5.7-.1.3-.1.6.1.8.2.4.6.6 1 .6l.5-.1c.3-.1.5-.4.5-.7.1-.3.1-.6-.1-.8-.2-.4-.6-.6-1-.6z"/></g></g><g fill="#575756"><path d="M42.3 58.6l-.5-.1c-.5-.3-.6-.9-.3-1.4.2-.3.5-.5.8-.5l.5.1c.2.1.4.4.4.6l-.1.7c-.2.4-.5.6-.8.6z"/><path d="M42.3 56.7l.4.1c.4.2.5.8.3 1.2-.2.3-.4.4-.7.4l-.4-.1c-.4-.2-.5-.8-.3-1.2.1-.2.4-.4.7-.4m0-.2c-.4 0-.8.2-1 .5-.2.3-.2.6-.1.8l.5.7.6.2c.4 0 .8-.2 1-.5.2-.3.2-.6.1-.8l-.5-.7c-.2-.2-.4-.2-.6-.2zM46.3 56.4l-.5-.1c-.5-.3-.6-.9-.3-1.4.2-.3.5-.5.8-.5l.5.1c.5.3.6.9.3 1.4-.1.3-.4.5-.8.5z"/><path d="M46.3 54.5l.4.1c.4.2.5.8.3 1.2-.2.3-.4.4-.7.4l-.4-.1c-.4-.2-.5-.8-.3-1.2l.7-.4m0-.2c-.4 0-.8.2-1 .5-.3.5-.1 1.2.4 1.5l.6.2c.4 0 .8-.2 1-.5.2-.3.2-.6.1-.8l-.5-.7-.6-.2zM49.7 54.2l-.5-.1c-.5-.3-.6-.9-.3-1.4.2-.3.5-.5.8-.5l.5.1c.5.3.6.9.3 1.4-.1.3-.4.5-.8.5z"/><path d="M49.7 52.3l.4.1c.4.2.5.8.3 1.2-.1.3-.4.4-.7.4l-.4-.1c-.4-.2-.5-.8-.3-1.2.1-.2.4-.4.7-.4m0-.2c-.4 0-.8.2-1 .5-.2.3-.2.6-.1.8l.5.7.6.2c.4 0 .8-.2 1-.5.2-.3.2-.6.1-.8l-.5-.7c-.2-.2-.4-.2-.6-.2zM52 56.6l-.5-.1c-.5-.3-.6-.9-.3-1.4.2-.3.5-.5.8-.5l.5.1c.5.3.6.9.3 1.4-.1.3-.4.5-.8.5z"/><path d="M52 54.7l.4.1c.4.2.5.8.3 1.2-.2.3-.4.4-.7.4l-.4-.1c-.4-.2-.5-.8-.3-1.2l.7-.4m0-.2c-.4 0-.8.2-1 .5-.2.3-.2.6-.1.8l.5.7.6.2c.4 0 .8-.2 1-.5.2-.3.2-.6.1-.8l-.5-.7c-.2-.2-.4-.2-.6-.2zM48.4 59.2l-.5-.1-.5-.6c-.1-.2 0-.5.1-.7.2-.3.5-.5.8-.5l.5.1c.2.1.4.4.4.6.1.3 0 .5-.1.8 0 .2-.3.4-.7.4z"/><path d="M48.4 57.3l.4.1c.4.2.5.8.3 1.2-.2.3-.4.4-.7.4l-.4-.1c-.4-.2-.5-.8-.3-1.2l.7-.4m0-.2c-.4 0-.8.2-1 .5-.3.5-.1 1.2.4 1.5l.6.2c.4 0 .8-.2 1-.5.2-.3.2-.6.1-.8l-.5-.7c-.2-.2-.4-.2-.6-.2zM44.8 61.2l-.5-.1c-.5-.3-.6-.9-.3-1.4.2-.3.5-.5.8-.5l.5.1c.5.3.6.9.3 1.4-.1.3-.4.5-.8.5z"/><path d="M44.8 59.3l.4.1c.4.2.5.8.3 1.2-.2.3-.4.4-.7.4l-.4-.1c-.4-.2-.5-.8-.3-1.2l.7-.4m0-.2c-.4 0-.8.2-1 .5-.2.3-.2.6-.1.8l.5.7.6.2c.4 0 .8-.2 1-.5.3-.5.1-1.2-.4-1.5-.2-.2-.4-.2-.6-.2zM40.8 62.6l-.5-.1-.5-.6c-.1-.2 0-.5.1-.7.2-.3.5-.5.8-.5l.5.1.5.6c.1.2 0 .5-.1.7-.1.3-.4.5-.8.5z"/><path d="M40.8 60.8l.4.1c.4.2.5.8.3 1.2-.2.3-.4.4-.7.4l-.4-.1c-.4-.2-.5-.8-.3-1.2.1-.3.4-.4.7-.4m0-.3c-.4 0-.8.2-1 .5-.2.3-.2.6-.1.8l.5.7.6.2c.4 0 .8-.2 1-.5.2-.3.2-.6.1-.8l-.5-.7-.6-.2zM36.4 63.3l-.5-.1c-.5-.3-.6-.9-.3-1.4.2-.3.5-.5.8-.5l.5.1.5.6c.1.2 0 .5-.1.7a1 1 0 01-.9.6z"/><path d="M36.4 61.4l.4.1c.4.2.5.8.3 1.2-.2.3-.4.4-.7.4L36 63c-.4-.2-.5-.8-.3-1.2.1-.2.4-.4.7-.4m0-.2c-.4 0-.8.2-1 .5-.3.5-.1 1.2.4 1.5l.6.2c.4 0 .8-.2 1-.5.2-.3.2-.6.1-.8l-.5-.7-.6-.2zM38.2 59.5l-.5-.1c-.5-.3-.6-.9-.3-1.4.2-.3.5-.5.8-.5l.5.1c.2.1.4.4.4.6l-.1.7c-.1.4-.4.6-.8.6z"/><path d="M38.2 57.6l.4.1c.4.2.5.8.3 1.2-.2.3-.4.4-.7.4l-.4-.1c-.4-.2-.5-.8-.3-1.2.1-.2.4-.4.7-.4m0-.2c-.4 0-.8.2-1 .5-.2.3-.2.6-.1.8l.5.7.6.2c.4 0 .8-.2 1-.5.2-.3.2-.6.1-.8l-.5-.7c-.2-.2-.4-.2-.6-.2zM34 59.8l-.5-.1c-.2-.1-.4-.4-.4-.6l.1-.7c.2-.3.5-.5.8-.5l.5.1c.5.3.6.9.3 1.4-.1.3-.5.4-.8.4z"/><path d="M34 58l.4.1c.4.2.5.8.3 1.2-.2.3-.4.4-.7.4l-.4-.1c-.4-.2-.5-.8-.3-1.2.1-.3.4-.4.7-.4m0-.3c-.4 0-.8.2-1 .5-.2.3-.2.6-.1.8l.5.7.6.2c.4 0 .8-.2 1-.5.2-.3.2-.6.1-.8l-.5-.7-.6-.2zM32 63.2l-.5-.1c-.2-.1-.4-.4-.4-.6l.1-.7c.2-.3.5-.5.8-.5l.5.1c.5.3.6.9.3 1.4-.2.2-.5.4-.8.4z"/><path d="M32 61.4l.4.1c.4.2.5.8.3 1.2-.2.3-.4.4-.7.4l-.4-.1c-.4-.2-.5-.8-.3-1.2.1-.3.4-.4.7-.4m0-.3c-.4 0-.8.2-1 .5-.2.3-.2.6-.1.8l.5.7.6.2c.4 0 .8-.2 1-.5.3-.5.1-1.2-.4-1.5l-.6-.2zM27.7 62.7l-.5-.1c-.2-.1-.4-.4-.4-.6l.1-.7c.2-.3.5-.5.8-.5l.5.1c.5.3.6.9.3 1.4-.1.2-.5.4-.8.4z"/><path d="M27.7 60.8l.4.1c.4.2.5.8.3 1.2-.2.3-.4.4-.7.4l-.4-.1c-.4-.2-.5-.8-.3-1.2.1-.2.4-.4.7-.4m0-.2c-.4 0-.8.2-1 .5-.3.5-.1 1.2.4 1.5l.6.2c.4 0 .8-.2 1-.5.2-.3.2-.6.1-.8l-.5-.7c-.2-.2-.4-.2-.6-.2zM23.6 61.2l-.5-.1c-.2-.1-.4-.4-.4-.6l.1-.7c.2-.3.5-.5.8-.5l.5.1c.5.3.6.9.3 1.4-.1.2-.4.4-.8.4z"/><path d="M23.6 59.4l.4.1c.4.2.5.8.3 1.2-.2.3-.4.4-.7.4l-.4-.1c-.4-.2-.5-.8-.3-1.2.2-.3.4-.4.7-.4m0-.3c-.4 0-.8.2-1 .5-.2.3-.2.6-.1.8l.5.7.6.2c.4 0 .8-.2 1-.5.2-.3.2-.6.1-.8l-.5-.7-.6-.2zM19.9 59.2l-.5-.1c-.2-.1-.4-.4-.4-.6l.1-.7c.2-.3.5-.5.8-.5l.5.1c.5.3.6.9.3 1.4-.2.2-.5.4-.8.4z"/><path d="M19.9 57.3l.4.1c.4.2.5.8.3 1.2-.2.3-.4.4-.7.4l-.4-.1c-.4-.2-.5-.8-.3-1.2.1-.2.4-.4.7-.4m0-.2c-.4 0-.8.2-1 .5-.2.3-.2.6-.1.8l.5.7.6.2c.4 0 .8-.2 1-.5.2-.3.2-.6.1-.8l-.5-.7c-.2-.2-.4-.2-.6-.2zM16.2 57l-.5-.1c-.5-.3-.6-.9-.3-1.4.2-.3.5-.5.8-.5l.5.1c.2.1.4.4.4.6l-.1.7c-.1.4-.4.6-.8.6z"/><path d="M16.2 55.1l.4.1c.4.2.5.8.3 1.2-.2.3-.4.4-.7.4l-.4-.1c-.4-.2-.5-.8-.3-1.2.1-.2.4-.4.7-.4m0-.2c-.4 0-.8.2-1 .5-.2.3-.2.6-.1.8l.5.7.6.2c.4 0 .8-.2 1-.5.2-.3.2-.6.1-.8l-.5-.7c-.2-.2-.4-.2-.6-.2z"/><g><path d="M18.1 53.8l-.5-.1c-.5-.3-.6-.9-.3-1.4.2-.3.5-.5.8-.5l.5.1c.2.1.4.4.4.6l-.1.7c-.1.5-.4.6-.8.6z"/><path d="M18.1 52l.4.1c.4.2.5.8.3 1.2-.2.3-.4.4-.7.4l-.4-.1c-.4-.2-.5-.8-.3-1.2.1-.3.4-.4.7-.4m0-.3c-.4 0-.8.2-1 .5l-.1.9.5.7.6.2c.4 0 .8-.2 1-.5.2-.3.2-.6.1-.8l-.5-.7-.6-.3z"/></g><g><path d="M21.5 56.3l-.5-.1c-.2-.1-.4-.4-.4-.6l.1-.7c.2-.3.5-.5.8-.5l.5.1c.5.3.6.9.3 1.4-.2.2-.5.4-.8.4z"/><path d="M21.5 54.5l.4.1c.4.2.5.8.3 1.2-.2.3-.4.4-.7.4l-.4-.1c-.4-.2-.5-.8-.3-1.2.1-.3.4-.4.7-.4m0-.3c-.4 0-.8.2-1 .5-.2.3-.2.6-.1.8l.5.7.6.2c.4 0 .8-.2 1-.5.3-.5.1-1.2-.4-1.5l-.6-.2z"/></g><g><path d="M25.3 58.2l-.5-.1c-.5-.3-.6-.9-.3-1.4.2-.3.5-.5.8-.5l.5.1c.2.1.4.4.4.6l-.1.7c-.2.4-.5.6-.8.6z"/><path d="M25.3 56.3l.4.1c.4.2.5.8.3 1.2-.2.3-.4.4-.7.4l-.4-.1c-.4-.2-.5-.8-.3-1.2.1-.2.4-.4.7-.4m0-.2c-.4 0-.8.2-1 .5-.2.3-.2.6-.1.8l.5.7.6.2c.4 0 .8-.2 1-.5.2-.3.2-.6.1-.8l-.5-.7c-.2-.2-.4-.2-.6-.2z"/></g><g><path d="M29.7 59.3l-.5-.1c-.5-.3-.6-.9-.3-1.4.2-.3.5-.5.8-.5l.5.1c.2.1.4.4.4.6l-.1.7c-.1.4-.4.6-.8.6z"/><path d="M29.7 57.4l.4.1c.4.2.5.8.3 1.2-.2.3-.4.4-.7.4l-.4-.1c-.4-.2-.5-.8-.3-1.2.2-.2.4-.4.7-.4m0-.2c-.4 0-.8.2-1 .5-.2.3-.2.6-.1.8l.5.7.6.2c.4 0 .8-.2 1-.5.2-.3.2-.6.1-.8l-.5-.7c-.2-.2-.4-.2-.6-.2z"/></g><g><path d="M31.5 56.4l-.5-.1c-.5-.3-.6-.9-.3-1.4.2-.3.5-.5.8-.5l.5.1c.2.1.4.4.4.6l-.1.7c-.2.5-.5.6-.8.6z"/><path d="M31.5 54.6l.4.1c.4.2.5.8.3 1.2-.2.3-.4.4-.7.4l-.4-.1c-.4-.2-.5-.8-.3-1.2.1-.3.4-.4.7-.4m0-.3c-.4 0-.8.2-1 .5-.2.3-.2.6-.1.8l.5.7.6.2c.4 0 .8-.2 1-.5.2-.3.2-.6.1-.8l-.5-.7-.6-.2z"/></g><g><path d="M27.4 55l-.5-.1c-.5-.3-.6-.9-.3-1.4.2-.3.5-.5.8-.5l.5.1c.2.1.4.4.4.6l-.1.7c-.1.4-.5.6-.8.6z"/><path d="M27.4 53.1l.4.1c.4.2.5.8.3 1.2-.2.3-.4.4-.7.4l-.4-.1c-.4-.2-.5-.8-.3-1.2.1-.2.4-.4.7-.4m0-.2c-.4 0-.8.2-1 .5-.2.3-.2.6-.1.8l.5.7.6.2c.4 0 .8-.2 1-.5.2-.3.2-.6.1-.8l-.5-.7c-.2-.2-.4-.2-.6-.2z"/></g><g><path d="M23.5 53.5l-.5-.1c-.2-.1-.4-.4-.4-.6l.1-.7c.2-.3.5-.5.8-.5l.5.1c.5.3.6.9.3 1.4-.1.2-.5.4-.8.4z"/><path d="M23.5 51.7l.4.1c.4.2.5.8.3 1.2-.2.3-.4.4-.7.4l-.4-.1c-.4-.2-.5-.8-.3-1.2.1-.3.4-.4.7-.4m0-.3c-.4 0-.8.2-1 .5-.2.3-.2.6-.1.8l.5.7.6.2c.4 0 .8-.2 1-.5.2-.3.2-.6.1-.8l-.5-.7-.6-.2z"/></g><g><path d="M35.7 56.2l-.5-.1c-.2-.1-.4-.4-.4-.6l.1-.7c.2-.3.5-.5.8-.5l.5.1c.5.3.6.9.3 1.4-.2.2-.5.4-.8.4z"/><path d="M35.7 54.4l.4.1c.4.2.5.8.3 1.2-.2.3-.4.4-.7.4l-.4-.1c-.4-.2-.5-.8-.3-1.2.1-.3.4-.4.7-.4m0-.3c-.4 0-.8.2-1 .5-.3.5-.1 1.2.4 1.5l.6.2c.4 0 .8-.2 1-.5.2-.3.2-.6.1-.8l-.5-.7-.6-.2z"/></g><g><path d="M33.6 52.8l-.5-.1c-.5-.3-.6-.9-.3-1.4.2-.3.5-.5.8-.5l.5.1c.2.1.4.4.4.6l-.1.7c-.1.5-.4.6-.8.6z"/><path d="M33.6 51l.4.1c.4.2.5.8.3 1.2-.2.3-.4.4-.7.4l-.4-.1c-.4-.2-.5-.8-.3-1.2.2-.3.4-.4.7-.4m0-.3c-.4 0-.8.2-1 .5-.2.3-.2.6-.1.8l.5.7.6.2c.4 0 .8-.2 1-.5.3-.5.1-1.2-.4-1.5l-.6-.2z"/></g><g><path d="M29.1 52.2l-.5-.1c-.5-.3-.6-.9-.3-1.4.2-.3.5-.5.8-.5l.5.1c.2.1.4.4.4.6l-.1.7c-.2.4-.5.6-.8.6z"/><path d="M29.1 50.4l.4.1c.4.2.5.8.3 1.2-.2.3-.4.4-.7.4l-.4-.1c-.4-.2-.5-.8-.3-1.2.1-.3.4-.4.7-.4m0-.3c-.4 0-.8.2-1 .5-.2.3-.2.6-.1.8l.5.7.6.2c.4 0 .8-.2 1-.5.2-.3.2-.6.1-.8l-.5-.7-.6-.2z"/></g><g><path d="M37.4 52.5l-.5-.1c-.2-.1-.4-.4-.4-.6-.1-.3 0-.5.1-.7.2-.3.5-.5.8-.5l.5.1c.5.3.6.9.3 1.4-.1.2-.5.4-.8.4z"/><path d="M37.4 50.7l.4.1c.4.2.5.8.3 1.2-.2.3-.4.4-.7.4l-.4-.1c-.4-.2-.5-.8-.3-1.2.1-.3.4-.4.7-.4m0-.3c-.4 0-.8.2-1 .5-.2.3-.2.6-.1.8l.5.7.6.2c.4 0 .8-.2 1-.5.3-.5.1-1.2-.4-1.5l-.6-.2z"/></g><g><path d="M41.2 52l-.5-.1c-.5-.3-.6-.9-.3-1.4.2-.3.5-.5.8-.5l.5.1c.5.3.6.9.3 1.4-.2.3-.5.5-.8.5z"/><path d="M41.2 50.2l.4.1c.4.2.5.8.3 1.2-.2.3-.4.4-.7.4l-.4-.1c-.4-.2-.5-.8-.3-1.2.1-.3.4-.4.7-.4m0-.3c-.4 0-.8.2-1 .5-.2.3-.2.6-.1.8l.5.7.6.2c.4 0 .8-.2 1-.5.2-.3.2-.6.1-.8l-.5-.7-.6-.2z"/></g><g><path d="M40 55.7l-.5-.1c-.2-.1-.4-.4-.4-.6l.1-.7c.2-.3.5-.5.8-.5l.5.1c.5.3.6.9.3 1.4-.1.2-.5.4-.8.4z"/><path d="M40 53.8l.4.1c.4.2.5.8.3 1.2-.2.3-.4.4-.7.4l-.4-.1c-.4-.2-.5-.8-.3-1.2.1-.2.4-.4.7-.4m0-.2c-.4 0-.8.2-1 .5-.2.3-.2.6-.1.8l.5.7.6.2c.4 0 .8-.2 1-.5.3-.5.1-1.2-.4-1.5-.2-.2-.4-.2-.6-.2z"/></g><g><path d="M44 53.8l-.5-.1c-.2-.1-.4-.4-.4-.6-.1-.3 0-.5.1-.8.2-.3.5-.5.8-.5l.5.1c.2.1.4.4.4.6l-.1.7c-.1.4-.4.6-.8.6z"/><path d="M44 51.9l.4.1c.4.2.5.8.3 1.2-.2.3-.4.4-.7.4l-.4-.1c-.4-.2-.5-.8-.3-1.2.2-.2.4-.4.7-.4m0-.2c-.4 0-.8.2-1 .5-.2.3-.2.6-.1.8l.5.7.6.2c.4 0 .8-.2 1-.5.2-.3.2-.6.1-.8l-.5-.7c-.2-.2-.4-.2-.6-.2z"/></g></g><circle fill="none" stroke="#000" stroke-width="2" stroke-linecap="round" stroke-linejoin="round" stroke-miterlimit="10" cx="34.5" cy="34.5" r="33.2"/></svg>