<?xml version="1.0" encoding="utf-8"?>
<!-- Generator: Adobe Illustrator 24.0.1, SVG Export Plug-In . SVG Version: 6.00 Build 0)  -->
<svg version="1.0" id="Layer_1" xmlns="http://www.w3.org/2000/svg" xmlns:xlink="http://www.w3.org/1999/xlink" x="0px" y="0px"
	 viewBox="0 0 533.8 533.8" enable-background="new 0 0 533.8 533.8" xml:space="preserve">
<g>
	<linearGradient id="SVGID_1_" gradientUnits="userSpaceOnUse" x1="266.8813" y1="0" x2="266.8813" y2="531.8155">
		<stop  offset="0" style="stop-color:#42BDE9"/>
		<stop  offset="1" style="stop-color:#23A8DD"/>
	</linearGradient>
	<circle fill="url(#SVGID_1_)" cx="266.9" cy="266.9" r="266.9"/>
	<g>
		<path fill="#FFFFFF" d="M396.7,153.5l-47.7,240.3c0,0-6.7,16.7-25,8.7l-110-84.3l-40-19.3l-67.3-22.7c0,0-10.3-3.7-11.3-11.7
			c-1-8,11.7-12.3,11.7-12.3l267.7-105C374.7,147.2,396.7,137.5,396.7,153.5z"/>
		<path fill="#D3E6F2" d="M205.6,391.2c0,0-3.2-0.3-7.2-13c-4-12.7-24.3-79.3-24.3-79.3l161.7-102.7c0,0,9.3-5.7,9,0
			c0,0,1.7,1-3.3,5.7c-5,4.7-127,114.3-127,114.3"/>
		<path fill="#B6D0E5" d="M256.3,350.5l-43.5,39.7c0,0-3.4,2.6-7.1,1l8.3-73.7"/>
	</g>
</g>
</svg>
